<svg xmlns="http://www.w3.org/2000/svg" viewBox="0 0 300 420">
  <rect width="100%" height="100%" fill="#4a3326" />
  <g fill-opacity=".5" transform="translate(.8 .8) scale(1.64063)">
    <circle r="1" fill="#fff" transform="rotate(-93.6 67.4 -10.4) scale(65.59305 181.99999)" />
    <circle r="1" fill="#f9ffff" transform="matrix(-25.02442 -2.74167 19.8213 -180.91743 2.6 143.4)" />
    <circle r="1" fill="#e5f7ff" transform="rotate(-97.6 164.7 4.7) scale(180.62099 20.30474)" />
    <circle r="1" fill="#fff7f3" transform="matrix(15.57715 8.70577 -18.29504 32.73513 24.4 246.4)" />
    <circle r="1" fill="#f7e2dd" transform="matrix(-14.17843 10.69009 -17.17714 -22.7823 159.3 239.8)" />
    <path fill="#000e19" d="M49 108h89v148H49z" />
    <path fill="#e2e6e7" d="m54 42.3 34 43.4-82 64-34-43.4z" />
    <path fill="#230300" d="m63.2 45.2 36.4-20.6 16.3 22 3.5 6.5z" />
    <path fill="#faffff" d="m46.9 178.7 2.1 3.4-6.6 83.9-4.7-70.9z" />
    <path fill="#d7dee0" d="m198 152-87-57 20-110z" />
    <circle r="1" fill="#00000a" transform="matrix(-10.64913 -3.31683 13.76527 -44.1952 30.3 173.2)" />
    <circle r="1" fill="#ced3d8" transform="matrix(-20.30003 -8.69784 71.67819 -167.29088 48 47)" />
    <circle r="1" fill="#000005" transform="rotate(170.4 70.5 98) scale(11.65735 40.74239)" />
    <path fill="#fdffff" d="M139 189h5v55h-5z" />
    <path fill="#080500" d="m79 122.9-45.3 2.2 11.7-9.6 41.2-17.4z" />
    <ellipse cx="6" cy="222" fill="#e6ecf2" rx="8" ry="100" />
    <path fill="#d17756" d="M121.9 58 91 41.7 67 61.4l29.8 65.1z" />
    <path fill="#b3b8c0" d="m.6-6.2 182 6.4-1.2 34-182-6.4z" />
    <path fill="#070807" d="m152.2 130.3-54.1.5L111.8 96l-12.6-5.6z" />
    <path fill="#050f11" d="M15 177h22v46H15z" />
    <path fill="#bbbaba" d="M192 257 131 43l57-59z" />
    <path fill="#150000" d="m116 76-16-46 17 16z" />
    <path fill="#e9b199" d="m94.6 66.9 4.8 57-21.1-20.7-.9-35z" />
    <path fill="#0b0000" d="m74 62.6-4.6-1.7 8.5-23.5 4.7 1.7z" />
    <circle r="1" fill="#c1c0c0" transform="matrix(-31.4113 126.43757 -33.39217 -8.29573 0 114.8)" />
    <circle r="1" fill="#172023" transform="matrix(-27.81252 -3.31644 4.13022 -34.63704 131.2 148.4)" />
    <path fill="#cbcfd2" d="m139.5 179.5-3.5 1.3 3.2 34.3 9.9 41.5z" />
    <path fill="#f4feff" d="m47 215.5-9-1.2 3-21.8 9 1.2z" />
    <path fill="#0a1215" d="m144.1 126.6 29.5 70-23.7 24.3-11.8-57.5z" />
    <circle r="1" fill="#bfcbd1" transform="matrix(4.30071 .85156 -10.2536 51.78443 166.5 244.6)" />
    <path fill="#d4d6db" d="m24.2 258.2-28.1 7-20.3-81.4 28.1-7z" />
    <circle r="1" fill="#162023" transform="matrix(8.05733 -42.6422 12.45548 2.35349 37 159)" />
    <path fill="#c8cac9" d="M116-13.3 198 206l-49.1-86.3-30.5-18.4z" />
    <path fill="#190600" d="M83 32h21v13H83z" />
    <path fill="#1a1f1f" d="M46 219h93v37H46z" />
    <path fill="#b3b4b7" d="m7-4 186 67-25-64z" />
    <path fill="#d8d9d6" d="m25.6 98 37.8-18.4 11 22.4-37.8 18.4z" />
    <circle r="1" fill="#f69670" transform="matrix(-7.10005 1.34157 -2.88682 -15.27804 28 238.6)" />
    <path fill="#131211" d="m78.3 100.5 12.7 18-21.3 15-12.7-18z" />
    <path fill="#242626" d="m138 112-97 28 18 122z" />
    <ellipse cx="178" cy="230" fill="#b3b5b4" rx="8" ry="255" />
    <path fill="#d6d6d6" d="m-3 121 7 96 31-105z" />
    <path fill="#b9babc" d="M0 0h72v67H0z" />
    <circle r="1" fill="#eac2ad" transform="matrix(-11.58981 -5.15569 2.22013 -4.99077 93 109.4)" />
    <path fill="#191818" d="m116 167 51 13-9-41z" />
    <path fill="#8f4e36" d="m166 220-40 51 34-24z" />
    <path fill="#1a1716" d="m12 202 28-6-17-28z" />
    <path fill="#0a0602" d="m111 100-10 21 36-5z" />
    <ellipse cx="41" cy="225" fill="#d0d6e0" rx="4" ry="31" />
    <path fill="#f6b293" d="m85 45 22 3-14 21z" />
    <path fill="#89402a" d="M33 221h4v35h-4z" />
    <path fill="#956d55" d="m108.2 116.3 1.9-30.2-17.8 7.2-16.5-6.7z" />
    <ellipse cx="23" cy="203" fill="#21201f" rx="11" ry="21" />
    <path fill="#e89472" d="m153.4 246-7.6-2.5 8.8-25.6 7.6 2.6z" />
    <path fill="#d4dce0" d="m139 206 4-16-6-16z" />
    <path fill="#1c1e1e" d="m46.7 115.6-24.2 38.2 10.9 24.1 24.7 9z" />
    <path fill="#c0c5ce" d="m41 207.8-5.7-1.8 7.7-23.8 5.7 1.8z" />
    <path fill="#222" d="m28 145 12 50-24 25z" />
    <ellipse cx="137" cy="93" fill="#cccbc7" rx="28" ry="17" />
    <path fill="#864e3a" d="m118.1 66.5-7.7 17-3.7-28.4-12-19.3z" />
    <circle cx="176" cy="14" r="69" fill="#b5b5b7" />
    <path fill="#181c1b" d="m170.2 194.5-7 26.1-19.4-5.1 7-26.1z" />
    <path fill="#bac2c6" d="M141 208h4v44h-4z" />
    <path fill="#111110" d="m125.3 243.2 25.7 8.3-4.3 13.3-25.7-8.3z" />
    <circle r="1" fill="#1f2223" transform="matrix(4.68906 .57574 -6.11107 49.77071 49.2 242)" />
    <ellipse cx="97" cy="4" fill="#b4b4b6" rx="182" ry="26" />
    <ellipse cx="163" cy="197" fill="#111010" rx="8" ry="13" />
    <path fill="#050708" d="M47 150h6v40h-6z" />
    <ellipse cx="60" cy="138" fill="#232425" rx="31" ry="25" />
    <path fill="#e1b8a5" d="m107 102-31-3 23 20z" />
    <path fill="#aeafb1" d="m180.3 184.1 8.4 86.9h-78.8l47-17.7z" />
    <path fill="#cac9c8" d="M35 38h36v57H35z" />
    <path fill="#212121" d="m100.5 125.2-74.8 18.6 53.7-46.1-1.8 15.9z" />
    <path fill="#f5f7fb" d="M40 187h7v6h-7z" />
    <path fill="#985648" d="M97 63h6v42h-6z" />
    <path fill="#302e2c" d="m16.6 227.3-5.1-28.4-.3-.9 30.9 15z" />
    <path fill="#3d260f" d="m111.4 36.6-26.6 9.2L70.3 56l9.9-22.4z" />
    <path fill="#babbba" d="m186.7 207.8-25.9-104.9 5 74.8 2.2 5.5z" />
    <path fill="#121311" d="m140.3 252.1-1.4-26.4L134 172l-21.8 70.5z" />
    <path fill="#f2f4f6" d="m35 203 1.3-3.7 4.7 1.6-1.3 3.8z" />
    <path fill="#cacacc" d="m-12.1 215 24.3-5.6 12 51.6-24.4 5.6z" />
    <ellipse cx="153" cy="171" fill="#1c1e1d" rx="10" ry="34" />
    <circle r="1" fill="#212020" transform="matrix(11.86612 -16.09482 19.74658 14.55843 122.8 129.5)" />
    <circle r="1" fill="#c1c0bd" transform="matrix(-19.9867 11.63582 -39.4953 -67.84057 167.6 104)" />
    <path fill="#bebdbd" d="m136.1 293 10.8-76.2 1 .1-10.8 76.3z" />
    <circle cx="66" cy="91" r="13" fill="#d0d1cf" />
    <path fill="#cdcfd1" d="M36 215h8v19h-8z" />
    <circle r="1" fill="#262727" transform="rotate(-58.8 222 13.2) scale(81.20193 20.40764)" />
    <path fill="#5e362a" d="m34.8 239.6 4.5 31.4 12.9-23.8-9 15.5z" />
    <circle r="1" fill="#a7a8ae" transform="matrix(33.94006 39.7664 -13.88538 11.85098 164.7 4.5)" />
    <circle r="1" fill="#020507" transform="matrix(-1.606 -24.17961 1.79897 -.11949 140.4 165)" />
    <path fill="#190d00" d="m114.1 58.4-11.6-18.7 3.4-2 11.6 18.6z" />
    <path fill="#dda790" d="m32.7 220.9-45.3 15 27.1-9.5 13.2 28.2z" />
    <path fill="#352112" d="m80 39-6 26-2-17z" />
    <path fill="#a46a5b" d="m113.2 74.1-4.6-30.3-11.7 32.1-27-17.4z" />
    <circle r="1" fill="#2b1f11" transform="matrix(2.06405 6.83645 -4.29763 1.29753 109.6 44)" />
    <circle r="1" fill="#cbcac8" transform="matrix(23.81743 -5.20434 5.31739 24.3348 49.1 87.8)" />
    <circle r="1" fill="#090c0d" transform="matrix(-6.62623 11.8242 -3.14373 -1.76173 47.5 172.8)" />
    <path fill="#1c1c1c" d="m13 209 28-13-16-45z" />
    <circle r="1" fill="#cecfcf" transform="matrix(9.58293 2.30135 -3.99594 16.6393 13.4 159)" />
  </g>
</svg>