<svg xmlns="http://www.w3.org/2000/svg" viewBox="0 0 300 420"><rect width="100%" height="100%" fill="#4a3326"/><g fill-opacity=".5"><path fill="#fff" d="M325.7 20.5-25.4 345.4 4-25.4z"/><path fill="#f9ffff" d="m151.8-25.4 164 3.3-9.8 393.7z"/><path fill="#fff" d="m81.2 404.4-87 41L2.6 293z"/><path d="m23.8 378.2 27.9-174 109.9-54z"/><path fill="#e1d7d5" d="m-4.1 176.4 329.8 4.9L-25.4-15.6z"/><path fill="#f7eff0" d="M291.2 445.4 325.7 306l-108.3 77z"/><path fill="#8a452a" d="m112.4 64.8 93.5-27.9-42.7 174z"/><path fill="#011622" d="m22.1 289.6 229.7-101.7L289.6 365z"/><path fill="#feffff" d="m71.4 434 8.2-142.8-26.3 69z"/><path fill="#d2dce2" d="M122.2-25.4-.8 391.3 4-19z"/><path fill="#d6e0e1" d="M176.4 156.7 325.7 27v213.3z"/><path fill="#0d161a" d="m27 260 224.8 185.4-119.7-288.7z"/><path fill="#f7fcfd" d="m233.8 404.4 13.1-50.8-21.3-60.7z"/><path fill="#aab0b9" d="m291.2-25.4 34.5 103.3-351.1-57.4z"/><path d="m196 86.1-23-36-50.8 8.1z"/><path fill="#c1ccd2" d="m286.3 219-13.1 210 52.5-19.7z"/><path fill="#121b1f" d="m186.2 153.4 54.2 292L55 443.8z"/><path fill="#ecf4fd" d="m-25.4 399.5 41-80.4L45 445.4z"/><path fill="#121416" d="M61.5 199.3 60 376.5l-41-26.2z"/><path fill="#edb49d" d="m94.3 123.9 70.6 82-6.6-131.3z"/><path fill="#0d0f0f" d="m176.4 156.7 95.1 216.5L260 222.3z"/><path fill="#dadbdb" d="M63.2 151.8-9 186.2-.8 411z"/><path fill="#b7b8b9" d="m155 .8 170.7-8.2L296 299.4z"/><path fill="#e9f5ff" d="m69.7 381.4-3.3-82L83 325.7z"/><path fill="#0f0200" d="m122.2 66.4 36.1-19.6-39.4 54.1z"/><path fill="#131312" d="m55 205.9 80.4-44.3L22 315.8z"/><path fill="#ccd4d6" d="m117.3 156.7 6.6-177.2-90.3 241.2z"/><path fill="#b7b7b9" d="M-14 146.8 209.3 7.4 4-25.4z"/><path fill="#260a00" d="m192.8 74.6-26.3-18 24.6 67.3z"/><path fill="#070000" d="m237 322.4 5 50.8 9.8-54.1z"/><path fill="#252526" d="M251.8 215.7 94.3 183 69.7 445.4z"/><path fill="#e48865" d="m63.2 445.4-3.3-83.6-36.1 8.2z"/><path fill="#d0d1ce" d="M181.3 163.2 283 210.8 201 94.3z"/><path fill="#efc7b1" d="m120.6 158.3 57.4 11.5-14.8 26.3z"/><path fill="#eeedec" d="m238.7 317.5-6.6 31.1-4.9-52.5z"/><path fill="#a66249" d="m230.5 411 44.3-52.5-26.2 87z"/><path fill="#1d1e1e" d="m64.8 196 67.3-27.8-37.8 251z"/><path fill="#131514" d="m58.2 358.5-32.8-37.8v47.6z"/><path fill="#f3f5fa" d="m76.3 327.3-11.5-18 11.5-9.9z"/><path fill="#161718" d="m276.4 301-96.8-128 70.6 26.3z"/><path fill="#c47e67" d="m145.2 173 49.2-50.8-83.7-29.5z"/><path fill="#b1b3b3" d="m299.4 276.4-44.3 151 64-39.4z"/><path fill="#e5a388" d="m130.4 153.4 46-73.8-41-5z"/><path fill="#c0c0be" d="m227.2 81.2 60.7 256 37.8-197z"/><path fill="#cccccf" d="m33.6 402.8-59-13.2L4 248.6z"/><path fill="#cf9f8c" d="m268.2 368.3-34.4-18-1.7 64z"/><path fill="#754536" d="m64.8 422.5-5-59.1-8.1 34.5z"/><path fill="#cdd2d6" d="m76.3 345.4-5 77-11.4-54z"/><path fill="#f4f9ff" d="m69.7 350.3-1.6-23h-8.2z"/><path fill="#221202" d="M130.4 63.2 124 109l-6.6-23z"/><path fill="#252524" d="M171.4 238.7 56.6 207.5l-36 124.7z"/><path fill="#b2b3b6" d="m278-25.4 47.7 109.9L-25.4 7.4z"/><path d="m273.2 366.7 8.2-57.4-13.2 18z"/><path fill="#111211" d="m224 283-85.4 162.4H229z"/><path fill="#734d34" d="m189.5 166.5-14.8-16.4-34.4 9.9z"/><path fill="#301b0a" d="m160 48.4 26.2 19.7-67.3 8.2z"/><path fill="#d4dada" d="m125.5 128.8-95.1 80.4 95.1-44.3z"/><path fill="#d2d1d2" d="M40.2 256.8 7.4 347l11.5-178.8z"/><path fill="#252524" d="m127.1 160 98.5 190.3-160.8 95.1z"/><path fill="#1a1a19" d="m237 348.6 41 14.8-31-116.5z"/><path fill="#111416" d="m153.4 222.3 27.9-54.1 59 24.6z"/><path fill="#c1c2c1" d="m171.4 32 119.8 254.3-36-215z"/><path fill="#924f3e" d="m194.4 112.4-11.5 23-8.2-55.8z"/><path fill="#bdbdbe" d="M155 15.6-25.4 28.7 73 140.3z"/><path fill="#b5ccd4" d="m227.2 376.5 11.5-21.3-3.3 52.5z"/><path fill="#cbd8dc" d="m250.2 415.9-5 29.5 28-31.1z"/><path fill="#1e2020" d="m35.3 368.3-9.9-72.2 39.4 54.2z"/><path fill="#cac9c7" d="m-25.4 86.1 147.6-16.4-77 155.9z"/><path fill="#e9aa90" d="m32 373.2 21.3-11.4v83.6z"/><path fill="#aeadae" d="m256.8 440.5 59-260.9 9.9 231.4z"/><path fill="#d7d8dc" d="m59.9 358.5 6.5 29.5 13.2-68.9z"/><path fill="#b57c6a" d="m112.4 115.7 21.3-37.8 21.3 34.5z"/><path fill="#262625" d="M76.3 358.5 97.6 219l133 41z"/><path fill="#cac9c8" d="M233.8 189.5 201 76.3l-16.4 87z"/><path fill="#1f2020" d="m227.2 186.2 31.2 31.2-136.2-5z"/><path fill="#212020" d="m255.1 210.8 16.4 62.4L76.3 196z"/><path fill="#ab846c" d="m181.3 168.2-8.2 18-50.9-47.6z"/><path fill="#dfbfad" d="m161.6 199.3-49.2-52.5 44.3 21.4z"/><path fill="#a76852" d="m237 411 14.8-1.7-6.5-50.8z"/><path fill="#d0d0d2" d="m78 315.8-18.1 16.4 18 8.2z"/><path fill="#191a19" d="m28.7 289.6-5 52.5 95.2-85.3z"/><path fill="#d0d2d4" d="m25.4 304.3-3.3 18-47.5-42.6z"/><path fill="#f2aa92" d="m173 142 10-28-14.8 8.2z"/><path fill="#b3b3b6" d="m94.3 17.2 195.3-42.6 36 144.3z"/><path fill="#212121" d="M20.5 329 60 368.2 42 258.3z"/><path fill="#452f1f" d="m128.8 59.9 16.4-9.9 27.9 24.6z"/><path fill="#d98e6f" d="m245.3 358.5 24.6 3.3-19.7 45.9z"/><path fill="#0b0b04" d="M191.1 79.6 176.4 73l16.4 29.5z"/><path fill="#1b1f21" d="M100.9 440.5v-60.7l146 34.5z"/><path fill="#000001" d="M56.6 355.2 55 330.6l8.2 11.5z"/><path fill="#f4e7ea" d="M63.2 445.4h18L68.1 411z"/><path fill="#c9ccce" d="M228.9 319.1v62.3l9.8-29.5z"/><path fill="#e6a687" d="m127.1 96 24.7-23 31.1 24.6z"/><path fill="#131210" d="m201 329 26.2 16.4v80.3z"/><path fill="#171413" d="m117.3 186.2 21.3 16.4-9.8-42.6z"/><path fill="#dfa08e" d="m156.7 158.3-46-42.6 46-3.3z"/><path fill="#945b47" d="m161.6 114 18 41-16.4 19.7z"/><path fill="#040404" d="m224 269.9 13-34.5 3.4 82z"/><path fill="#c3c2c2" d="m228.9 291.2-3.3 37.7 9.8-4.9z"/><path fill="#cbccce" d="m10.7 237 19.7 187.1-55.8 6.6z"/><path fill="#dcaa94" d="m173 158.3 6.6 8.2L160 188z"/><path fill="#c7c6c2" d="m260 217.4-68.9-116.5 55.8 1.6z"/><path fill="#222223" d="m48.4 247 19.7 77-34.5-42.6z"/><path fill="#cccdcc" d="M112.4 89.4-25.4 229l151-62.4z"/><path fill="#b3b8bc" d="m240.4 386.4-6.6 26.2-5-26.2z"/><path fill="#b8b8ba" d="M227.2 35.3 9-25.4-12.3 77.9z"/><path fill="#c6c6c6" d="M237 322.4h-9.8l-1.6-32.8z"/><path fill="#171614" d="m263.3 358.5-26.2-60.7 3.3 55.8z"/><path fill="#b1b1b1" d="m325.7 417.5-52.5-128L301 150.2z"/><path fill="#0a0703" d="m191.1 178-8.2-16.4-3.3 26.3z"/><path fill="#191919" d="m281.4 332.2-36.1 11.5 18-101.7z"/><path fill="#925b49" d="m171.4 109.1 23 16.4L178 81.2z"/><path fill="#bebebf" d="m181.3 32 18 73.8 88.6-8.2z"/><path fill="#8c6153" d="m130.4 97.6 16.4 16.4 1.7-14.7z"/><path fill="#a06654" d="m53.3 414.3 23 31.1L55 375z"/><path fill="#a9a9ae" d="M292.9-25.4 219 4l106.7 83.7z"/><path fill="#7d4d39" d="m258.4 384.7 13.1-19.7-13.1 44.3z"/><path fill="#936556" d="M160 192.8 137 178l23 26.3z"/><path fill="#212120" d="m63.2 199.3 64-32.8-98.5 172.3z"/><path fill="#252525" d="M125.5 445.4 247 201 79.6 212.5z"/><path fill="#8b443f" d="m181.3 120.6 11.5-13.1-1.7 18z"/><path fill="#070708" d="m232.1 306 18.1 16.4-23-47.6z"/><path fill="#1e2020" d="m68 445.4 44.4-31.1-23-141.1z"/><path fill="#d0d0d0" d="m35.3 215.7 3.3 49.3L.8 320.7z"/><path fill="#adadac" d="M325.7 250.2 306 427.4 276.4 342z"/><path fill="#62432d" d="m153.4 164.9 23-18 1.6 8.1z"/><path fill="#c8c7c5" d="m189.5 168.2 83.7 36-75.5-116.4z"/><path fill="#1a1a19" d="m235.4 333.9 36.1-42.7 6.6 64z"/><path fill="#2e2b29" d="M30.4 330.6 28.7 370l27.9-24.6z"/><path fill="#1f1f1e" d="m64.8 197.7 47.6-24.6 87 49.2z"/><path fill="#040504" d="m89.4 278-9.8-36-3.3 54.1z"/><path fill="#191918" d="m186.2 169.8 75.5 65.6-18-39.3z"/><path fill="#161411" d="m199.3 445.4 36.1-26.2-16.4-59z"/><path fill="#bfbfc1" d="m112.4 41.8 8.2 62.4-146-13.1z"/><path fill="#b97758" d="m181.3 94.3-23-21.3 14.8 5z"/><path fill="#c89278" d="m133.7 153.4 44.3-14.8-19.7 18z"/><path fill="#babab8" d="m304.3 96-45.9 114.8 23 98.5z"/><path fill="#cdcdcd" d="M-25.4 174.7 22 324l16.5-157.5z"/><path fill="#221b11" d="m163.2 50 21.4 14.8 9.8 23z"/><path fill="#bebebe" d="m227.2 306 8.2 11.5 3.3-5z"/><path fill="#856648" d="m135.4 155-5-11.4 28 19.6z"/><path fill="#d0cfcf" d="M81.2 151.8 19 217.4l24.6 13.1z"/><path fill="#252525" d="m122.2 445.4-46-83.6L229 207.5z"/><path fill="#eab69d" d="m127.1 135.4 3.3-28 11.5 24.7z"/><path fill="#a0614b" d="m145.2 135.4-9.8-3.3 16.4 11.5z"/><path fill="#a4a5aa" d="m232.1 419.2 6.6-21.3-6.6 6.5z"/><path fill="#121213" d="M281.4 327.3 278 306l-39.4 4.9z"/><path fill="#954d43" d="m160 107.5 8.2 1.6-8.2 23z"/><path fill="#262627" d="m79.6 202.6-23 83.7L43.5 242z"/><path fill="#1d1d1c" d="m271.5 279.7-34.4 32.8L250.2 206z"/><path fill="#cccbc9" d="m245.3 194.4-60.7-62.3 1.6 27.9z"/><path fill="#c4876e" d="m266.6 365-5 24.6-18 16.5z"/><path fill="#110f0d" d="m199.3 176.4-18-5-26.3 41z"/><path fill="#d49680" d="M40.2 435.6 50 365l14.8 80.4z"/><path fill="#1a1a19" d="m181.3 327.3 42.6-70.5 3.3 139.4z"/><path fill="#7b574a" d="m51.7 360.1 9.8 19.7-1.6-18z"/><path fill="#e9b4a3" d="m153.4 105.8-13.1-1.6 27.9-8.2z"/><path fill="#392317" d="M122.2 96 119 79.6l26.3-23z"/><path fill="#292827" d="M32 368.3 51.7 334 22 338.8z"/><path fill="#ccccce" d="m76.3 370-6.6 45.9-8.2-62.3z"/><path fill="#272727" d="m194.4 402.8-96.8-210L84.5 283z"/><path fill="#cd8f7c" d="M125.5 130.4 114 115.7l26.3-14.8z"/><path fill="#bebfc0" d="m117.3 82.9-8.2-21.4 24.6-34.4z"/><path fill="#212120" d="m247 343.7 9.8-91.9 18 113.2z"/><path fill="#c9c9cc" d="m68 384.7-4.8-57.4 13 18z"/><path fill="#b0afb0" d="m294.5 291.2 31.2 95.2-67.3 36z"/><path fill="#c8cbca" d="m132 155-22.9 19.7-8.2-88.6z"/><path fill="#e2ae95" d="m32 370 16.4-5-1.6 50.9z"/><path fill="#cac9cc" d="m15.6 330.6 24.6 88.6-65.6-14.8z"/><path fill="#5b3b33" d="m181.3 110.7-11.5-4.9v5z"/><path fill="#442719" d="M178 76.3 138.6 55l-8.2 13z"/><path fill="#7d5249" d="m132 109.1 16.5-5v6.6z"/><path fill="#bbbcbd" d="m222.3 91 52.5-39.3-118.1-16.4z"/><path fill="#171716" d="m45.1 363.4 6.6-52.5 9.8 42.7z"/><path fill="#1e1d1c" d="m151.8 291.2 6.5-82-31.2-44.3z"/><path fill="#cececf" d="M76.3 353.6 64.8 337l9.8-37.7z"/><path fill="#c18569" d="m138.6 73 26.3 3.3-36.1 8.2z"/><path fill="#ebbb9c" d="m128.8 132 18 16.5-8.2-26.3z"/><path fill="#090807" d="m51.7 294.5 16.4 8.2 9.8-14.8z"/><path fill="#eabfa7" d="m128.8 153.4 31.2 29.5h-18z"/><path fill="#191b1c" d="M43.5 325.7h23l-8.3-52.5z"/><path fill="#9c7667" d="m240.4 353.6 9.8 37.7-11.5 8.2z"/><path fill="#e1b8a3" d="m132 171.4-3.2-19.6 27.9 37.7z"/><path fill="#de9d87" d="m179.6 133.7-13-27.9 4.8 37.8z"/><path fill="#080806" d="m220.7 422.5 11.4-13.2-6.5-21.3z"/><path fill="#d8dbd7" d="m215.7 445.4 37.8-29.5 23 18z"/><path fill="#d89d83" d="m265 360.1-14.8-1.6 1.6 27.9z"/><path fill="#b98469" d="M178 168.2v-14.8l-3.3 5z"/><path fill="#7e4539" d="m181.3 125.5 6.6-9.8 1.6 13z"/><path fill="#222221" d="m205.9 179.6 46 28-64 129.5z"/><path fill="#6f5342" d="m260 401.1-8.2 8.2 8.2 5z"/><path fill="#bfc0c1" d="m240.4 355.2-6.6 29.5-5-50.8z"/><path fill="#d9dbdb" d="M59.9 335.5v-5l6.5-3.2z"/><path fill="#2a2012" d="m187.9 110.7 1.6-13-3.3 3.2z"/><path fill="#cdcdcd" d="M66.4 156.7 19 317.5l-44.3-55.8z"/><path fill="#1a1314" d="m242 412.6 19.7 26.3-14.8 3.2z"/><path fill="#a7a7a7" d="M230.5 299.4 224 306l3.3-19.7z"/><path fill="#b87f69" d="m35.3 393 29.5 52.4-21.3-14.7z"/><path fill="#09090a" d="M224 306v-23l-11.5 24.6z"/><path fill="#b4b4b6" d="M-25.4 48.4-14-18.9l246 23z"/><path fill="#6e2d22" d="M164.9 137v5l8.2-6.6z"/><path fill="#221106" d="m120.6 81.2 13.1-8.2L119 92.7z"/><path fill="#0f100f" d="m240.4 352 13-26.3-14.7-42.7z"/><path fill="#151312" d="m179.6 199.3 13.2-19.7-11.5-19.6z"/><path fill="#b79188" d="m160 202.6-1.7-9.8 3.3 6.5z"/><path fill="#1c1d1d" d="m114 333.9-36-23 6.5-27.9z"/><path fill="#c09788" d="m171.4 174.7-11.4 28 3.2-31.3z"/><path fill="#e5aa96" d="m130.4 148.5 13.2-6.6 19.6 5z"/><path fill="#ccccc9" d="m181.3 146.8 6.6 19.7 37.7 16.4z"/><path fill="#ababab" d="m322.4 312.5 3.3 108.3-67.3-4.9z"/><path fill="#997763" d="m178 145.2 1.6-26.3 5 21.4z"/><path fill="#d18574" d="m158.3 137-6.5-24.6-13.2 19.7z"/><path fill="#c5c4c1" d="m263.3 122.2 1.7 108.3L215.7 119z"/><path fill="#090909" d="m230.5 292.9 5 18 4.9-29.5z"/><path fill="#242522" d="m73 191.1-8.2 19.7 26.3-24.6z"/><path fill="#955e49" d="M59.9 386.4 56.6 360l-5 19.7z"/><path fill="#222" d="m168.2 332.2 41 9.9 14.7-155.9z"/><path fill="#161616" d="m256.8 235.4-23-44.3 16.4 13.2z"/><path fill="#242421" d="m278 335.5-37.6-3.3 14.7 26.3z"/><path fill="#543b31" d="M120.6 104.2V96l6.5 16.4z"/><path fill="#352414" d="M181.3 69.7 161.6 50l-21.3 5z"/><path fill="#c88f7c" d="m125.5 109.1 6.6 34.5-16.4-31.2z"/><path fill="#262626" d="m51.7 222.3 18 60.7-31.1-21.3z"/><path fill="#c3c3c3" d="m199.3 146.8-4.9-87 31.2 24.7z"/><path fill="#272727" d="m140.3 183 6.5 109.9L86.1 278z"/><path fill="#d39e8b" d="m181.3 105.8-13.1-1.6 6.5-1.7z"/><path fill="#181919" d="m251.8 335.5 26.3-31.2-42.7-29.5z"/><path fill="#1c1c1c" d="m66.4 301-31.1 36.1-14.8-9.8z"/><path fill="#503f30" d="m125.5 63.2 11.5-9.9-6.6 21.3z"/><path fill="#3b281a" d="m171.4 53.3-23-3.3L119 79.6z"/><path fill="#6a4938" d="m58.2 402.8 1.7-9.9 1.6 13.2z"/><path fill="#b1b1b1" d="m296.1 247 29.6 98.4-60.7 75.4z"/><path fill="#c7c6c5" d="M-25.4 142 114 130.3l3.3-49.2z"/><path fill="#121314" d="m63.2 345.4-11.5-23 3.3 36z"/><path fill="#20201f" d="m78 353.6 45.9-18-39.4-24.7z"/><path fill="#bababb" d="M122.2 7.4 137 46.8l77.1 4.9z"/><path fill="#744836" d="m184.6 99.3-13.2 1.6 16.5 6.6z"/><path fill="#210604" d="m238.7 411-5 4.9H247z"/><path fill="#dca08b" d="m145.2 120.6-19.7-6.6v-11.5z"/><path fill="#cfced0" d="m64.8 379.8-5-21.3 16.5 8.2z"/><path fill="#cdcbc8" d="m184.6 135.4 13.1-16.5 14.8 50.9z"/><path fill="#bcbcbd" d="M232.1 309.3 229 324l9.8-8.2z"/><path fill="#efcdb7" d="M163.2 140.3h-14.7l4.9-3.3z"/><path fill="#cdcecb" d="m128.8 151.8-41 32.8 36-57.5z"/><path fill="#252526" d="m169.8 394.6-5-108.3-90.2 93.5z"/><path fill="#212121" d="m25.4 297.8 54.2-23-3.3-46z"/><path fill="#1d1e1d" d="m268.2 273.2-29.5 42.6 19.7-90.2z"/><path fill="#7b584a" d="m271.5 373.2-4.9-11.4-3.3 32.8z"/><path fill="#2b2a28" d="m56.6 360.1-27.9 1.7-5-29.6z"/><path fill="#d3d4d7" d="m73 301-6.6 9.9 5 9.8z"/><path fill="#131313" d="m271.5 360.1-8.2-67.2 18 24.6z"/><path fill="#bbbab9" d="m235.4 402.8 3.3-49.2-9.8 24.6z"/><path fill="#614632" d="M153.4 160h16.4l-5 3.2z"/><path fill="#070b0e" d="M66.4 325.7H50l14.8-9.9z"/><path fill="#ababab" d="m297.8 434-26.3-64 52.5-82z"/><path fill="#392418" d="M135.4 66.4 150 50l-1.6 21.4z"/><path fill="#8e6a52" d="m176.4 158.3 4.9 9.9-3.3-23z"/><path fill="#cecccb" d="m125.5 142-73.8 63.9-77.1-42.7z"/><path fill="#1d1b1b" d="m173 230.5-60.6-50.9 19.7-8.2z"/><path fill="#1e1e1e" d="m240.4 196 31.1 115-36-29.5z"/><path fill="#836056" d="M238.7 401.1v9.9l5-18z"/><path fill="#efb3a1" d="M153.4 91v23l8.2-14.7z"/><path fill="#d99f84" d="m130.4 87.8 23-11.5-27.9 27.9z"/><path fill="#242424" d="m132 330.6 93.6-144.4 1.6 77.1z"/><path fill="#b8b9bb" d="M273.2 261.7V283l16.4 5z"/><path fill="#c8c9ca" d="m73 325.7-11.5 6.5-3.3-3.3z"/><path fill="#be7669" d="m153.4 133.7 11.5 5 1.6-11.6z"/><path fill="#1f1e1d" d="m225.6 376.5-44.3 69-31.2-42.7z"/><path fill="#fdb3a8" d="m135.4 132 8.2-13-9.9 1.6z"/><path fill="#c8c7c5" d="m243.6 192.8-64-37.8 24.7-54.1z"/><path fill="#734b3b" d="m61.5 396.2-3.3-16.4-1.6 11.5z"/><path fill="#bbbbb9" d="m255.1 186.2 16.4 85.3 54.2-182z"/><path fill="#232322" d="m105.8 178 49.2 41-103.3-6.5z"/><path fill="#0c0d0c" d="m122.2 168.2 5 26.2-6.6-13.1z"/><path fill="#e6bda7" d="m150.1 181.3 9.9-14.8-28-1.6z"/><path fill="#6b4c42" d="m59.9 407.7 1.6-5 5 14.8z"/><path fill="#935d46" d="m137 100.9 1.6-3.3 11.5 1.7z"/><path fill="#cbcbcd" d="M27 376.5-25.3 352l46-19.7z"/><path fill="#b39376" d="m146.8 151.8-19.7-13.2 5 13.2z"/><path fill="#cdcdcd" d="M-10.7 243.6 23.8 288l32.8-88.6z"/><path fill="#b87a62" d="m253.5 411 3.3-14.8-13.2 14.8z"/><path fill="#191917" d="m164.9 207.5 52.5-21.3-34.5-19.7z"/><path fill="#131311" d="m227.2 384.7-13.1-36 11.5-21.4z"/><path fill="#b2b2b6" d="M127.1-25.4 242 5.7l83.7 85.4z"/><path fill="#232323" d="m53.3 242-19.7 41L60 324z"/><path fill="#e19d89" d="m173 137 8.3-6.6-9.9-16.4z"/><path fill="#c9c9cb" d="m69.7 415.9 5-42.7-13.2 16.4z"/><path fill="#b3775b" d="m260 371.6 6.6-9.8-1.6 16.4z"/><path fill="#0c0c0c" d="m82.9 240.4 3.2 26.2-13-29.5z"/><path fill="#0f0f0f" d="m238.7 286.3-1.6 54.1 11.5-13.1z"/><path fill="#a6534d" d="m163.2 143.6-8.2-1.7 19.7-5z"/><path fill="#bebdbf" d="m120.6 41.8 1.6 18 36.1-26.2z"/><path fill="#c7c6c4" d="m214.1 181.3 41-52.5-44.3-21.3z"/><path fill="#c17f68" d="m59.9 420.8-5-57.4-6.5 26.2z"/><path fill="#a5675f" d="m168.2 119 1.6-18.1-6.6-1.6z"/><path fill="#dba38b" d="m40.2 399.5 9.8-23-1.6 47.6z"/><path fill="#6c483b" d="m158.3 194.4 3.3 11.5-19.7-19.7z"/><path d="m230.5 281.4-9.8 1.6 8.2-11.5z"/><path fill="#cdccce" d="m-7.4 302.7 29.5 32.8-47.5 42.7z"/><path fill="#272726" d="m191.1 337.1-34.4 6.6-3.3-121.4z"/></g></svg>