<svg xmlns="http://www.w3.org/2000/svg" viewBox="0 0 300 420"><rect width="100%" height="100%" fill="#4c5a42"/><g fill-opacity=".5"><path fill="#fff" d="M325.7 22.1 22 445.4-25.4-25.4z"/><path fill="#e8e6e7" d="m297.8-25.4 27.9 447.9L64.8 401z"/><path fill="#e1daec" d="m151.8-22.1 173.9 434.7-9.9-433.1z"/><path fill="#62624a" d="m263.3 325.7-78.7 119.7-19.7-424.9z"/><path fill="#d8d3e1" d="M4.1 445.4-25.4-25.4h160.8z"/><path d="m153.4 35.3-50.9 26.2 88.6 1.7zM237 388l-124.6 52.5 123 1.6z"/><path fill="#9ba98c" d="M276.4 196 27.1 183l9.8 254.2z"/><path fill="#dfd9e4" d="m271.5 183 54.2 234.5-67.3 28z"/><path fill="#ffb99a" d="m114 59.9 72.2 47.6-54.1 96.8z"/><path fill="#380000" d="m102.5 122.2 24.6 49.2-16.4-90.2z"/><path fill="#320000" d="M194.4 102.5 183 161.6 171.4 41.8z"/><path fill="#ffcdc5" d="M-25.4 394.6 55 342l6.5 103.3z"/><path fill="#bebdc3" d="M196 225.6 325.8 13.9 191-25.4z"/><path fill="#110200" d="m176.4 133.7 11.5 50.9 21.3-1.7z"/><path d="m58.2 397.9-1.6 47.5 87-26.2z"/><path fill="#90a58e" d="M209.2 169.8 13.9 335.5l187 67.3z"/><path fill="#424332" d="m205.9 347 36 98.4L227.3 242z"/><path fill="#2d0100" d="m169.8 45.1-42.7-3.3-23 34.5z"/><path fill="#cfccd1" d="M-25.4 224 110.7 5.6l-6.5 164.1z"/><path fill="#c7c3ce" d="M317.5-14 201 50 25.4 9z"/><path fill="#ffc8ae" d="M115.7 61.5 127 179.6l39.4-118z"/><path fill="#ffa282" d="m230.5 348.6 29.5 1.7-11.4 95.1z"/><path fill="#635340" d="m74.6 302.7-21.3 27.9 13.1 64z"/><path fill="#798671" d="m205.9 169.8 52.5 213.3 6.6-149.3z"/><path fill="#b7bac3" d="m2.5 181.3-28 233 65.7 18z"/><path fill="#d0cfd4" d="M189.5 150.1 325.7 270 207.5 32z"/><path fill="#9aaa93" d="m163.2 424.1-105-36 162.5-208.5z"/><path d="m238.7 445.4-5-46-168.9 46z"/><path fill="#db8d6f" d="m186.2 115.7-29.5 91.8L158.3 60z"/><path fill="#ffc9a7" d="m28.7 343.7 36.1 11.5-11.5 90.2z"/><path fill="#8e9f89" d="M151.8 425.7 127 176.4l105 14.7z"/><path fill="#2f1100" d="m115.7 86.1-3.3-24.6-9.9 50.9z"/><path fill="#5a3d13" d="m99.3 179.6 23-42.6 1.6 21.3z"/><path fill="#c0bfc4" d="m123.9-25.4 150.9 211.6 50.9-187z"/><path fill="#ffcaae" d="m173 179.6-41-4.9L109.2 96z"/><path fill="#240c00" d="m119 50 67.2 21.4-23-31.2z"/><path fill="#7c8c76" d="m232.1 396.2-32.8 8.2 14.8-103.3z"/><path fill="#1e0400" d="m174.7 155 6.6-21.3 21.3 44.3z"/><path fill="#c7c8c9" d="m317.5 192.8 8.2 251-69-129.6z"/><path fill="#311801" d="m112.4 81.2 3.3 59-9.9-29.5z"/><path fill="#ffe3d3" d="M166.5 76.3 124 68l21.3 39.4z"/><path fill="#93a48b" d="m53.3 356.8 59-201.8L32 232.1z"/><path fill="#c9c8cc" d="m288 361.8-62.4-292 100 41z"/><path fill="#d4d0d5" d="m74.6 184.6 29.6-85.3 4.9 47.5z"/><path fill="#c4c2ca" d="M202.6-18.9 35.3 120.6l-60.7-64z"/><path fill="#7f5348" d="M181.3 87.8 151.8 96l13 9.8z"/><path fill="#5b6652" d="m194.4 192.8-49.2-1.7 55.8-13z"/><path fill="#a6b7a2" d="m87.8 186.2 65.6 31.2-87 180.5z"/><path fill="#f6c3af" d="m233.8 437.2 11.5-70.5L255 424z"/><path d="m191.1 99.3-9.8-3.3V64.8z"/><path fill="#a24e32" d="m251.8 412.6 11.5 28-4.9-59.2z"/><path fill="#c3c2c5" d="m56.6 125.5-82-52.5 23 318.3z"/><path fill="#8f9e8b" d="m250.2 196-41-18 39.4 128z"/><path fill="#637058" d="m253.5 214.1 13.1 72.2-19.7-24.6z"/><path fill="#545847" d="M233.8 397.9 201 304.3l32.8-27.9z"/><path fill="#ffd8c3" d="m155 104.2 14.8 1.6 1.6 39.4z"/><path fill="#f5b591" d="m122.2 81.2 1.7 65.6-11.5-36z"/><path fill="#936d5e" d="m133.7 107.5 1.7-13.2L114 96z"/><path fill="#d2d0d5" d="m196 105.8 49.3 87-47.6-26.3z"/><path fill="#060008" d="m104.2 414.3-41-14.8-6.6 46z"/><path fill="#bdbcc1" d="m-25.4 9 315 52.5 36-87z"/><path fill="#c6795b" d="m173 59.9-44.2 1.6 46 21.4z"/><path fill="#c46357" d="M161.6 133.7h-13.1v-36z"/><path fill="#987258" d="m171.4 145.2-23 16.4 44.4 14.8z"/><path fill="#5e6f5f" d="m61.5 320.7 14.8 6.6-1.7-60.7z"/><path fill="#84927c" d="m222.3 402.8-91.9 3.3 28-52.5z"/><path fill="#adadb0" d="M41.8 445.4 28.8 324l-54.2 82z"/><path fill="#97a690" d="m133.7 388 73.8-134.5-90.2-95.2z"/><path fill="#060208" d="m191.1 402.8 39.4 14.7L160 434z"/><path fill="#231708" d="m123.9 46.8 41-3.3-19.7 21.3z"/><path fill="#74836f" d="m214.1 347-16.4-93.5 27.9-34.5z"/><path fill="#cbcacf" d="M189.5 123.9 301 173l-108.3-16.4z"/><path fill="#ffd2bd" d="m143.6 114-23-47.6 42.6 1.7z"/><path fill="#93a38f" d="m107.5 406 90.2-3.2-44.3 14.7z"/><path fill="#50493a" d="m261.7 337.1-8.2-29.5v49.2z"/><path fill="#ffd3b8" d="m43.5 438.9-6.6-93.5 23 11.4z"/><path fill="#182315" d="m153.4 406-5 23-19.6 16.4z"/><path fill="#fddec8" d="m143.6 181.3 26.2-13.1-44.3-8.2z"/><path fill="#9cac98" d="M71.4 179.6 73 309.3 28.7 301z"/><path fill="#5c3f25" d="M130.4 59.9 114 53.3l-4.9 16.4z"/><path fill="#c5c4c9" d="m296.1 87.8-75.4 93.5-46-147.7z"/><path fill="#523c2c" d="m66.4 368.3 5 39.4-8.2-16.4z"/><path fill="#9faf9b" d="m122.2 409.3-57.4-14.7 77.1-154.2z"/><path fill="#4c5948" d="m235.4 289.6-4.9-55.8-9.8 26.2z"/><path fill="#422106" d="m112.4 125.5 13.1 27.9-11.5-1.6z"/><path fill="#22372d" d="m73 317.5-3.3 26.2-3.3-11.5z"/><path fill="#acb9a8" d="m71.4 401.1 18 3.3-13.1-67.3z"/><path fill="#889781" d="m69.7 347-46-6.6L58.3 293z"/><path fill="#8c9a87" d="m251.8 210.8-21.3 88.6 29.5 1.7z"/><path fill="#2e3628" d="m224 288-6.6 18 11.5 29.5z"/><path fill="#f7bca0" d="m242 350.3 11.5 1.6-13.1 39.4z"/><path fill="#a0ae9b" d="m160 260 24.6 75.5 9.8-149.3z"/><path fill="#818f79" d="m173 258.4-16.3 59V209.3z"/><path fill="#110b15" d="m-7.4 435.6 119.8-27.9 64 34.4z"/><path fill="#3f2619" d="m225.6 360.1 8.2 8.2-5-34.4z"/><path fill="#51533e" d="m191.1 169.8 23 8.2-37.7 6.6z"/><path fill="#090406" d="m196 422.5 39.4-26.3-3.3 49.2z"/><path fill="#d8967d" d="M56.6 425.7 50 398l14.8-24.7z"/><path fill="#707a66" d="M212.5 266.6 232 396.2l-37.7-64z"/><path fill="#504838" d="m68 345.4-6.5-11.5 5 27.9z"/><path fill="#a55e46" d="m256.8 352-5 32.7 9.9 1.7z"/><path fill="#c5c5c6" d="m315.8 394.6-57.4-77.1 36-124.7z"/><path fill="#c59a72" d="m110.7 137-21.3 52.5 26.3-34.5z"/><path fill="#909d8a" d="M245.3 191.1V270l-50.9-95.2z"/><path fill="#18130e" d="m110.7 79.6 1.7 26.2-6.6-4.9z"/><path fill="#697660" d="m251.8 228.9-18-26.3 14.8 44.3z"/><path fill="#2b1a0e" d="m119 48.4 65.6 16.4-42.7-24.6z"/><path fill="#f2a595" d="m161.6 153.4-8.2-26.3L114 124z"/><path fill="#c3c2c7" d="m191.1 22.1-55.7-23-83.7 70.6z"/><path fill="#c5c2c6" d="m304.3 273.2-41 170.6-3.3-93.5z"/><path fill="#ffe6d6" d="m119 109.1 4.9 19.7 14.7-16.4z"/><path fill="#121012" d="m123.9 422.5 160.7 23L219 411z"/><path fill="#321e0a" d="m194.4 164.9-18-3.3 8.2-36z"/><path fill="#956046" d="m174.7 79.6 3.3 64 11.5-32.9z"/><path fill="#382018" d="m28.7 340.4 6.6 1.7-1.7 1.6z"/><path fill="#bfbdbe" d="m.8 201 34.5 111.5-46 98.5z"/><path fill="#5a6553" d="m156.7 360.1-1.7 21.3 8.2 8.2z"/><path fill="#c5c5c7" d="m18.9 99.3 4.9 124.6L137 10.7z"/><path fill="#9daa95" d="m163.2 199.3-1.6 100.1L201 186.2z"/><path fill="#130f11" d="m100.9 424.1-41 19.7 3.3-47.6z"/><path fill="#9faf99" d="m151.8 409.3 19.6-50.8-1.6 54.1z"/><path fill="#ffd8bf" d="m41.8 345.4 14.8 44.2-11.5 41z"/><path fill="#2a1708" d="m176.4 81.2 4.9-21.3 13.1 52.5z"/><path fill="#a0ae9b" d="m248.6 283-5-72.2-9.8 42.7z"/><path fill="#caa990" d="m138.6 158.3 29.6 5 13 23z"/><path fill="#5b3122" d="m228.9 386.4 1.6-26.3 9.9 44.3z"/><path fill="#ffeedf" d="m122.2 78 8.2 16.3 19.7-18z"/><path fill="#eeb390" d="M122.2 105.8 114 76.3l13.1-11.5z"/><path fill="#c9c8cc" d="m325.7 178-105-75.5 50.8 164.1z"/><path fill="#7a8574" d="m181.3 404.4 44.3-3.3-32.8-29.5z"/><path fill="#bfbec3" d="m325.7 109.1-3.3-95.2-183.8 16.5z"/><path fill="#88685e" d="m137 104.2-1.6-8.2-14.8 9.8z"/><path fill="#94aa96" d="m238.7 327.3 16.4 6.6-13.1 11.5z"/><path fill="#351e07" d="m210.8 178-21.3-16.4 5 11.5z"/><path fill="#a2b2a0" d="m48.4 197.7 8.2 147.7-31.2-75.5z"/><path fill="#657062" d="m266.6 284.6-9.8 31.2-11.5 1.7z"/><path fill="#909e8a" d="m109.1 204.3-41-18 11.5 44.2z"/><path fill="#c7c7c9" d="m22.1 214.1 85.4-59-6.6-113.3z"/><path fill="#707d6a" d="m179.6 158.3-4.9 14.8 19.7 13.1z"/><path fill="#76856f" d="m164.9 330.6-11.5-5 3.3 26.3z"/><path fill="#583a1d" d="m117.3 166.5-8.2-6.5-1.6 13z"/><path fill="#afbea7" d="m133.7 197.7-18-27.9-31.2 23z"/><path fill="#747e6a" d="m263.3 258.4-8.2-36.1-13.1 44.3z"/><path fill="#848974" d="m122.2 166.5 34.5 24.6-11.5 5z"/><path fill="#e3a187" d="m164.9 68 4.9 29.6h-8.2z"/><path fill="#624634" d="m107.5 76.3 8.2-18-3.3 41z"/><path fill="#291d11" d="m155 45.1 21.4 5 6.5 24.5z"/><path fill="#6d715d" d="m207.5 406 24.6-14.7-6.5-29.5z"/><path fill="#f5c4ac" d="M133.7 99.3 114 96l5 4.9z"/><path fill="#fbc4ac" d="m168.2 138.6-47.6 13.2 29.5 4.9z"/><path fill="#273022" d="M224 240.4v13l6.5 1.7z"/><path fill="#8a6458" d="m146.8 104.2 8.2-9.9 11.5 6.6z"/><path fill="#9aaa96" d="m140.3 187.9 37.7-3.3 6.6-13.2z"/><path fill="#d39376" d="m53.3 347 5 36 8.1-19.6z"/><path fill="#cf8c76" d="m135.4 122.2-9.9 9.9 13.1 4.9z"/><path fill="#788572" d="m225.6 269.9-9.9-59-9.8 82z"/><path fill="#899884" d="m166.5 415.9 26.3-19.7-36.1 8.2z"/><path fill="#160800" d="m186.2 168.2 18 6.5-21.3-16.4z"/><path fill="#71816f" d="m235.4 356.8 13.2-57.4L232 293z"/><path fill="#96a792" d="M92.7 360.1 76.3 398l72.2 18z"/><path fill="#8e9c89" d="m212.5 205.9 1.6 73.8-27.9-6.5z"/><path fill="#171715" d="m184.6 432.3 4.9-34.4 62.3 41z"/><path fill="#818e7b" d="m197.7 406 27.9-6.5-60.7-13.1z"/><path fill="#666e5e" d="m238.7 201-3.3 21.3-6.5-3.3z"/><path fill="#100000" d="m183 97.6 3.2-3.3 1.7 13.2z"/><path fill="#aab7a7" d="m91 340.4-9.8-59-13.1 87z"/><path fill="#919f8a" d="m66.4 253.5 6.6 55.8-29.5 19.6z"/><path fill="#8b4d39" d="m243.6 343.7 13.2 1.7 1.6 8.2z"/><path fill="#5c6e59" d="m74.6 261.7 3.3-14.8-4.9 5z"/><path fill="#ca9272" d="m120.6 91-6.6 18.1V74.6z"/><path fill="#67755e" d="m156.7 314.2 6.5-14.8-6.5-19.7z"/><path fill="#7e8d78" d="m66.4 307.6 1.7 18-37.7-3.2z"/><path fill="#9fae97" d="m146.8 209.2-31.1-52.5 18 90.2z"/><path fill="#161517" d="M92.7 406 9 445.5l156-21.4z"/><path fill="#445138" d="m153.4 393-1.6-3.4 3.2-4.9z"/><path fill="#ffddca" d="m156.7 181.3-28-19.7 32.9 9.8z"/><path fill="#cccbcf" d="m204.3 119 64 80.3-67.3-29.5z"/><path fill="#5d2610" d="m173 169.8 5 3.3-1.6-6.6z"/><path fill="#596958" d="m104.2 407.7-23-8.2h11.5z"/><path fill="#94a28f" d="m158.3 384.7 42.7-46-41-78.7z"/><path fill="#5e6c5b" d="M166.5 194.4 183 188l-37.7 1.6z"/><path fill="#6c7261" d="m196 176.4-3.2 26.2-9.9-26.2z"/><path fill="#a0b09a" d="m145.2 186.2-57.4-6.6L81.2 375z"/><path fill="#efc3ac" d="m240.4 424.1 4.9-32.8 9.8 21.3z"/><path fill="#876760" d="m233.8 406 6.6 13.2v-23z"/><path fill="#ffd7c6" d="m151.8 112.4 18 14.7-5-13z"/><path fill="#515844" d="M260 263.3V283l5-5z"/><path fill="#9daa98" d="m164.9 191.1 57.4 1.7-27.9 8.2z"/><path fill="#6f4d3e" d="m68 350.3-1.6 24.6-4.9-19.7z"/><path fill="#9fad97" d="m133.7 343.7 21.3 11.5-4.9 50.9z"/><path fill="#fbb695" d="m132 64.8 23 6.6-45.9 1.6z"/><path fill="#a45a4d" d="m150.1 142 5-11.6 6.5 1.7z"/><path fill="#bf9683" d="m33.6 350.3-3.2 16.4 6.5 16.4z"/><path fill="#a2b29d" d="m53.3 187.9-19.7 34.4 54.2-6.6z"/><path fill="#e5af96" d="m237 352 13.2 45.9 5-36.1z"/><path fill="#798874" d="m155 225.6 8.2-13.1-8.2-24.6z"/><path fill="#bbc6bb" d="m255.1 281.4-3.3-3.3 5-6.6z"/><path fill="#fdbaad" d="m155 153.4-9.8-44.3-9.8 18z"/><path fill="#b0bdac" d="m202.6 386.4 3.3-6.6 1.6 9.8z"/><path fill="#596850" d="m253.5 283-3.3-19.7-1.6 16.4z"/><path fill="#6a785c" d="m153.4 245.3 6.6 3.3-1.7-21.4z"/><path fill="#6a735e" d="M214.1 320.7 194.4 283l26.3 14.8z"/><path fill="#100d0c" d="m237 393-36 34.4 26.2 18z"/><path fill="#56614f" d="m76.3 281.4-1.7-18-3.2 9.8z"/><path fill="#58624e" d="m258.4 281.4 5-16.4-5-18z"/><path fill="#95a293" d="m250.2 317.5-6.6-21.4-3.2 23z"/><path fill="#384033" d="m114 151.8 9.9 3.2-1.7 6.6z"/><path fill="#98a693" d="M35.3 276.4 66.4 324l-36-29.5z"/><path fill="#b8c1b8" d="m184.6 274.8 14.7 5-9.8 4.8z"/><path fill="#abb9a7" d="M30.4 278 45 301l31.2 8.3z"/><path fill="#1f2514" d="m168.2 192.8-1.7-1.7 1.7-4.9z"/><path fill="#bbb8bf" d="M84.5-25.4.8 92.7-5.7-20.5z"/><path fill="#20150c" d="m151.8 40.2 14.7 16.4-27.9-16.4z"/><path fill="#b1beac" d="m138.6 307.6 29.6 13.1-26.3-1.6z"/><path fill="#a8b6a4" d="m35.3 220.7 47.6 37.7-46-8.2z"/><path fill="#919882" d="m61.5 225.6 6.6-32.8L96 173z"/><path fill="#75846d" d="m207.5 209.2-6.5-18-1.7 8.1z"/><path fill="#a1b196" d="m153.4 191.1 5 88.6-16.5-49.2z"/><path fill="#b7b6ba" d="M33.6 342 22.1 445.5l-36-103.3z"/><path fill="#291404" d="m178 150.1 8.2-26.2 3.3 47.5z"/><path fill="#a4b29f" d="m220.7 194.4-3.3 26.3 23-29.6z"/><path fill="#cecdd0" d="M258.4 312.5 265 329l6.5-42.6z"/><path fill="#65775f" d="m127.1 276.4 9.9 5-6.6-6.6z"/><path fill="#cccbcf" d="M205.9 102.5 189.5 137l6.6 24.6z"/><path fill="#3c2815" d="m127.1 46.8-14.7 16.4 3.3-9.9z"/><path fill="#d1cace" d="m86.1 179.6 18-21.3-14.7 3.3z"/><path fill="#73553d" d="m51.7 347 16.4 8.2-11.5-13.1z"/><path fill="#301505" d="m122.2 146.8-11.5 5 6.6-8.2z"/><path fill="#9fac98" d="m151.8 406 21.3 5-18 6.5z"/><path fill="#935d46" d="m160 92.7 19.6-3.3L178 96z"/><path fill="#c1c0c3" d="m258.4 348.6 18 64 49.3-137.8z"/><path fill="#b5c3b1" d="m117.3 383 6.6-16.3 4.9 24.6z"/><path fill="#a57058" d="m166.5 151.8 8.2 23v-28z"/><path fill="#82927d" d="m138.6 347-9.8 46 13.1-21.4z"/><path fill="#7e8e78" d="m253.5 205.9-28 1.6 5-9.8z"/><path fill="#a1aa9d" d="m183 388 3.2-14.8-9.8-18z"/><path fill="#5c6456" d="M263.3 330.6 260 342l-11.4-32.8z"/><path fill="#855c49" d="m133.7 59.9 3.3-5 11.5 13.2z"/><path fill="#ffd5c1" d="M123.9 71.4 120.6 91l31.2 8.2z"/><path fill="#495445" d="m235.4 291.2-13.1 1.7 6.6-23z"/><path fill="#8b7260" d="m110.7 140.3-3.2-9.9v13.2z"/><path fill="#6e7d68" d="m181.3 317.5 36 19.6 6.6-9.8z"/><path fill="#8e5c45" d="m58.2 442.1 3.3-39.3-16.4 42.6z"/><path fill="#7f8f79" d="m102.5 250.2 8.2-14.8-1.6-13.1z"/><path fill="#adb4a3" d="m151.8 179.6 13 9.9-26.2-3.3z"/><path fill="#e3f6df" d="m166.5 268.2 1.7 3.3-1.7 5z"/><path fill="#172213" d="m150.1 409.3 1.7 16.4-6.6 11.5z"/><path fill="#8a9c86" d="M120.6 299.4 82.9 288l18-3.3z"/><path fill="#c7c8ca" d="m325.7 158.3-55.8 131.3-13.1-83.7z"/><path fill="#bbc6b8" d="m115.7 332.2 6.5-4.9 3.3 18z"/><path fill="#7b8d75" d="m109.1 317.5-5 3.2-14.7-8.2z"/><path fill="#c1c1c3" d="M43.5 120.6 23.8 294.5l-34.5-159.1z"/><path fill="#a8b8a4" d="m107.5 258.4-29.6 62.3-1.6-59z"/><path fill="#b3c5b0" d="m164.9 265-1.7-14.8 9.9 13.1z"/><path fill="#ffcfb6" d="m40.2 342 16.4 18.1-13.1 57.4z"/><path fill="#495843" d="m184.6 363.4 18 5-8.2-5z"/><path fill="#738171" d="m37 258.4-3.4 8.2-4.9 1.6z"/><path fill="#beb3b0" d="m189.5 146.8 5 13.2v-13.2z"/><path fill="#879584" d="m66.4 352-1.6-8.3 3.3-8.2z"/><path fill="#a2b09e" d="M247 261.7V255l11.4 6.6z"/><path fill="#ffc7b2" d="m138.6 68 23 6.6 1.6 16.5z"/><path fill="#090708" d="m187.9 407.7-34.5 32.8 65.6-34.4z"/><path fill="#83937f" d="m104.2 373.2 23 5-5 4.9z"/><path fill="#a6b7a2" d="m212.5 210.8 1.6 21.3-9.8-6.5z"/><path fill="#404d3e" d="m66.4 324 3.3 16.4 6.6-36z"/><path fill="#727e6b" d="m222.3 294.5-31.2-21.3 23 4.9z"/><path fill="#899785" d="m210.8 365-34.4-29.5-3.3 26.3z"/><path fill="#b08e67" d="M99.3 181.3 91 178l21.3-21.3z"/><path fill="#6a7e64" d="m163.2 409.3-16.4-3.2 13.2-1.7z"/><path fill="#a4664c" d="m169.8 94.3 9.8 1.7-8.2-26.3z"/><path fill="#788872" d="m99.3 338.8 19.6-8.2h-9.8z"/><path fill="#7d8e7a" d="m94.3 237-9.8 1.7-14.8-13.1z"/><path fill="#84947e" d="m137 307.6 14.8 3.3-32.9 9.8z"/><path fill="#6b7767" d="m228.9 319.1 16.4-5-19.7-19.6z"/><path fill="#768271" d="m55 319.1 13 18-1.6-11.4z"/><path fill="#bcc8b8" d="m107.5 291.2 18-3.3-5 8.2z"/><path fill="#a6735b" d="m166.5 125.5 23-13.1-3.3 8.2z"/><path fill="#829277" d="m171.4 274.8-21.3-27.9 3.3 14.8z"/><path fill="#5c6e53" d="m253.5 219-13.1 6.6-3.3-3.3z"/><path fill="#83937d" d="m110.7 329-6.5-9.9 3.3 29.5z"/><path fill="#bac8b5" d="m55 205.9 6.5-21.3 8.2 9.8z"/><path fill="#e5f0de" d="M120.6 360.1h6.5l-6.5 3.3z"/><path fill="#e8a581" d="m174.7 138.6-3.3-14.7h-13z"/><path fill="#c7c6cb" d="m286.3 169.8-34.5 55.8 11.5-83.7z"/><path fill="#a6b29f" d="m171.4 325.7-8.2-13.2L206 329z"/><path fill="#9eac9c" d="m178 289.6 27.9 27.9-18-32.9z"/><path fill="#667662" d="m194.4 329-3.3 6.5 1.7 9.9z"/><path fill="#c2c1c6" d="m181.3 58.2 144.4 85.4L181.3-20.5z"/><path fill="#a9b6a5" d="M235.4 235.4v-19.7l11.5 34.5z"/><path fill="#abb8a6" d="m81.2 404.4-13.1-26.2 14.8-8.2z"/><path fill="#788f72" d="m166.5 302.7 8.2-1.6v-19.7z"/><path fill="#b3c1ad" d="M133.7 348.6 142 370l-8.2-8.2z"/><path fill="#73876b" d="m181.3 260-6.6-8.2 1.7-13z"/><path fill="#86967e" d="m127.1 227.2 11.5 19.7-21.3-14.8z"/><path fill="#c6d3c4" d="m123.9 255.1-9.9-4.9-4.9-11.5z"/><path fill="#4d3626" d="m186.2 79.6-9.8-21.4h-13.2z"/><path fill="#a0b09b" d="m32 224 41 49.2 3.3-46z"/><path fill="#cddacc" d="M161.6 342v-6.5l3.3 1.6z"/><path fill="#58664d" d="m161.6 184.6-16.4 6.5h8.2z"/></g></svg>