<svg xmlns="http://www.w3.org/2000/svg" viewBox="0 0 300 420">
  <rect width="100%" height="100%" fill="#4c5a42" />
  <g fill-opacity=".5" transform="translate(.8 .8) scale(1.64063)">
    <circle cx="91" cy="86" r="194" fill="#fffbff" />
    <circle r="1" fill="#495238" transform="matrix(16.89401 -86.06057 21.77837 4.27518 130.8 210.6)" />
    <circle r="1" fill="#ded8ea" transform="rotate(159.4 73.6 44.1) scale(38.31363 172.08518)" />
    <path d="M35 248h110v8H35z" />
    <path fill="#3c0000" d="m116.6 48.9-15.4-25.5-25.3 5.5 41.9 45.9z" />
    <circle r="1" fill="#dbd6e5" transform="matrix(-40.4161 -12.66564 48.41563 -154.49448 18.8 53.3)" />
    <path fill="#3c0f00" d="m102.7 107.6 33.4 5.8-19.2-13.4-5.6-62.7z" />
    <ellipse cx="90" cy="74" fill="#ffc09e" rx="18" ry="37" />
    <ellipse cx="90" cy="33" fill="#140000" rx="20" ry="8" />
    <ellipse cx="67" cy="73" fill="#471400" rx="3" ry="40" />
    <path d="m73 249.2-3.7 18.7-36.3-7.1 3.7-18.7z" />
    <circle r="1" fill="#889f82" transform="matrix(26.44808 -109.50058 17.16769 4.14658 99.7 215.9)" />
    <circle r="1" fill="#d8d3de" transform="rotate(179.8 86.2 112) scale(14.27246 74.39389)" />
    <path fill="#ffcbba" d="m38 216-44-15 40 70z" />
    <path d="M137.6 243.5 39.8 271h99.9l7.3-33.2z" />
    <path fill="#f59475" d="M144 212h14v44h-14z" />
    <path fill="#90a486" d="m37 246 119-132-140 4z" />
    <path fill="#ffbea8" d="M71 38h30v42H71z" />
    <path fill="#3e1300" d="M69 80h6v19h-6z" />
    <ellipse cx="137" cy="189" fill="#3d4130" rx="5" ry="43" />
    <circle r="1" fill="#d5d1d3" transform="matrix(-19.91827 -14.51798 11.633 -15.96016 45.4 86)" />
    <path fill="#d7d1e2" d="m75.6-23.4 32.8 3-4 45.8-32.8-3z" />
    <circle r="1" fill="#899582" transform="rotate(175.6 73.2 88.6) scale(8.54663 50.89362)" />
    <path fill="#321703" d="M114.7 74.1 98.5 97l24.8 9.8-8.7-13.7z" />
    <path fill="#5f4f3d" d="M37 188h6v56h-6z" />
    <path fill="#d9d6de" d="m120 55-5 39 51 34z" />
    <ellipse cx="6" cy="187" fill="#bebec6" rx="13" ry="255" />
    <path fill="#311907" d="m67.8 43.5 29.1-18.1-14.2-.5-17.3 11.3z" />
    <ellipse cx="100" cy="71" fill="#c9856c" rx="10" ry="31" />
    <circle r="1" fill="#91a28c" transform="matrix(-12.85518 -29.00936 30.93087 -13.70667 95.3 222.6)" />
    <path fill="#6c4a37" d="M154 193h4v63h-4z" />
    <path fill="#515d46" d="m95.1 118.3-10.1-1 39.6-11.9-5.1 11.6z" />
    <path fill="#ffd0b3" d="m68.6 65.6 2 12.4 12.3 29.7 20.3 3.1z" />
    <path d="m105.2 36 2.8-.8 8.8 28.7-2.8.9z" />
    <path fill="#080104" d="M76.7 252.6 33 243.4l11.5 12.9 68.2 3.6z" />
    <path fill="#f1beaa" d="m148.8 260.4-6.9-43 32-10.9-18.9 7.8z" />
    <path fill="#ffedda" d="M74 43h23v15H74z" />
    <ellipse cx="29" cy="231" fill="#ffcca8" rx="9" ry="20" />
    <path fill="#2c0c00" d="m66 58 8 36-9-16z" />
    <path fill="#a7b7a0" d="M53 105h23v93H53z" />
    <path fill="#505c4d" d="M43 156h3v49h-3z" />
    <path fill="#bebcc2" d="M114 34.8 198 .9l-214-12L61.2 2.6z" />
    <path fill="#c9c8cd" d="m98.5.3 17.7 56.2 6.4 47.8 75.4 39.3z" />
    <path fill="#94a491" d="m152 120-21-13 18 80z" />
    <path fill="#160900" d="m108 94 12 14-7-29z" />
    <path fill="#9cb098" d="m74 250-34.6-5.4 4.6-28.7 34.6 5.5z" />
    <ellipse cx="35" cy="73" fill="#c8c8cb" rx="29" ry="43" />
    <path fill="#c4c4c7" d="M76 17 19 138l-35-79z" />
    <circle r="1" fill="#ccccce" transform="rotate(-146.2 112.8 67.2) scale(9.37993 16.94783)" />
    <path fill="#4b2f22" d="m136.3 181.5 7.9 55.6.9 14.8-7-24.3z" />
    <path fill="#1c1404" d="m101.9 28.8-12.7-4.9-15 9.4 39.1 5.9z" />
    <path fill="#465038" d="M158 153h3v26h-3z" />
    <path fill="#8d6356" d="m94 55.8 16.9 1.5-.8 9-17-1.6z" />
    <circle cx="98" cy="69" r="6" fill="#ffd9cb" />
    <path fill="#a2826a" d="m94.8 95-11 5.6 30.1 2.9-10-16.8z" />
    <path fill="#896960" d="m84 65-4-10-5 8z" />
    <path fill="#84937a" d="m45 173-8 40-27-8z" />
    <path fill="#090509" d="m118.4 245.7 44.3 16-34.5 4.7-34.1-7.6z" />
    <circle r="1" fill="#57634e" transform="matrix(4.53378 -35.3655 .99188 .12716 93 242.7)" />
    <path fill="#9a8b64" d="m30.8 131.3 35.3-33.5.7-23.9 4.9 28.5z" />
    <path fill="#65715c" d="M95 113h2v123h-2z" />
    <path fill="#69755e" d="m160 161-3-23-13-6z" />
    <path fill="#413c2c" d="m38.5 239.3-1-.1 8-56.5 1 .1z" />
    <path fill="#170800" d="M64 56h4v17h-4z" />
    <path fill="#b9c6b6" d="M44 199h5v38h-5z" />
    <path fill="#f6ad82" d="M69 43h5v33h-5z" />
    <path fill="#ffc2ad" d="M100.3 87.1 81.4 106l-7.3-21.2-2.4-17.7z" />
    <path fill="#c0bfc2" d="m20 193-25 47 15-119z" />
    <ellipse cx="27" cy="246" fill="#ffd8bd" rx="5" ry="36" />
    <path fill="#8e573c" d="m102.2 35 3.9 26.7-.7 22.2 11.6-9.2z" />
    <ellipse cx="30" cy="159" fill="#9eb19a" rx="14" ry="37" />
    <path fill="#99a695" d="m112 217 23-106-38 22z" />
    <path fill="#c8c8c8" d="m156 137.2 30.5-5.4 11.5 65-30.5 5.4z" />
    <path fill="#83917d" d="M117 142h19v33h-19z" />
    <path fill="#aa7c63" d="m37.6 181.7-.6 72.2-6.4 17.1 3.2-24.6z" />
    <path fill="#0c080b" d="m36 271 40-7-39-23z" />
    <path fill="#98987d" d="M103 102h8v14h-8z" />
    <path fill="#66735d" d="M124 177h10v54h-10z" />
    <circle r="1" fill="#c46f61" transform="rotate(-26 212 -165.6) scale(2.53386 9.50542)" />
    <path fill="#422818" d="M66 42h4v16h-4z" />
    <path fill="#565d4e" d="m160 204-8 11 3-28z" />
    <circle r="1" fill="#bebcc2" transform="rotate(-96.4 86.6 -69) scale(31.53055 67.98475)" />
    <circle r="1" fill="#b4b0b6" transform="matrix(-14.0902 1.47777 -4.64043 -44.24542 7.8 237.5)" />
    <circle r="1" fill="#c9c7cc" transform="rotate(139.8 56 63.6) scale(28.95154 19.38967)" />
    <path fill="#0e0b0c" d="m117.8 245.1 27.6 25.9-3.3-28.5L88.4 271z" />
    <path fill="#a3b19c" d="M70 248h41v3H70z" />
    <path fill="#fecbb6" d="M88.9 50.8 70.4 82l33.3-33.9-26.2-9.6z" />
    <path fill="#c9c7ca" d="m155.6 193.2 24.5 32.6-23.4-4.7 14.5-66.5z" />
    <path fill="#351f12" d="m107.8 82.7 8.9-7.8.1-10-8.8 31.9z" />
    <path fill="#151616" d="m8.3 268.5 126.3-10.6-49.9-2.9-28.4-8.3z" />
    <path fill="#7c8b78" d="m132.3 246.3-19 1.3-1.6-24 19-1.2z" />
    <circle r="1" fill="#9eae99" transform="matrix(-12.48988 23.18848 -16.47832 -8.87562 61.7 213.2)" />
    <circle cx="53" cy="234" r="13" fill="#99a893" />
    <path fill="#687561" d="m130.6 126.6 1.1-13.8.4 33.1-2.9 64.1z" />
    <path fill="#5b6352" d="m99.8 119.9 26.5-13.4-7.7.3-17.8 9.8z" />
    <path fill="#ffe0ca" d="M88.9 109.2 75.8 98.7l29.3 8.3-4.2 1.1z" />
    <ellipse cx="86" cy="37" fill="#744a30" rx="19" ry="2" />
    <path fill="#231504" d="m105 46 13 18-6-16z" />
    <path fill="#acbcaa" d="m45.9 182.7-1.3 45.4L54.7 183l-7-33.7z" />
    <path fill="#f0bfa4" d="M148 215h5v41h-5z" />
  </g>
</svg>