<svg xmlns="http://www.w3.org/2000/svg" viewBox="0 0 300 420"><rect width="100%" height="100%" fill="#453125"/><g fill-opacity=".5"><path fill="#fff" d="M325.7 14-25.4 365 2.5-25.4z"/><path fill="#fff" d="M325.7.8 168.2-25.4l126.3 470.8z"/><path fill="#001" d="M268.2 187.9 32 445.4l29.5-282.2z"/><path fill="#fff" d="M-25.4 396.2 27 130.4l21.3 315z"/><path fill="#e5eef4" d="M-.8 333.9-25.4-7.4l187-18z"/><path fill="#e3eff6" d="m247 445.4 78.7-50.8-54.2-282.2z"/><path fill="#00011c" d="m56.6 181.3 198.5 11.5-8.2 252.6z"/><path fill="#dee6e8" d="M320.7 28.7 178 143.6l124.7 80.3z"/><path fill="#000b23" d="m35.3 386.4 23-206.8L237 411z"/><path fill="#d2e1ed" d="m-22.1 391.3 196.8 27.9-200.1 26.2z"/><path fill="#090000" d="m150.1 38.6 44.3 32.8-75.5-6.6z"/><path fill="#e8eff5" d="m32 432.3 11.5-208.4-67.3 198.6z"/><path d="m123.9 153.4 50.8 60.7L73 176.4z"/><path fill="#b4b6b8" d="M299.4 383 184.6-25.3 325.6 4z"/><path fill="#ddd7d4" d="m-18.9 255.1 26.3-164L160 105.8z"/><path fill="#00000c" d="M243.6 181.3 258.4 301l-75.5-146z"/><path fill="#c8e0ed" d="m217.4 402.8-62.4 18 85.4 24.6z"/><path fill="#bdbebf" d="m269.9 256.8-28 188.6 83.8-11.5z"/><path fill="#2e0000" d="m164.9 43.5 26.2 75.4-1.6-47.5z"/><path fill="#eba990" d="m137 61.5 100 96.8-127.9-4.9z"/><path fill="#b4b7bb" d="m286.3-25.4 39.4 96.8-351.1-57.5z"/><path fill="#141a27" d="M71.4 176.4H237l-106.7 269z"/><path fill="#0c1526" d="m37 340.4 160.7 72.2-154.2-4.9z"/><path fill="#cacbcb" d="m100.9 79.6-126.3 9.8L4 365z"/><path fill="#cbd2d2" d="m217.4 40.2-37.8 106.6L281.4 201z"/><path fill="#0a0b17" d="m58.2 205.9 113.2-32.8L40.2 304.3z"/><path fill="#b86f57" d="m122.2 94.3 59 73.9 1.7-75.5z"/><path fill="#421a02" d="M120.6 66.4 118.9 96l28-49.2z"/><path fill="#cbcbcb" d="m289.6 183-39.4-6.6 8.2 129.6z"/><path fill="#d9e5e8" d="m110.7 91 19.7 57.5-55.8 21.3z"/><path fill="#ffe5bc" d="m153.4 174.7-26.3-21.3 54.2 11.5z"/><path fill="#c3c2c0" d="M325.7 143.6 278 258.4 141.9-25.4z"/><path fill="#001" d="m64.8 178 67.3-3.3-5-23z"/><path fill="#060e1c" d="m142 415.9 96.7-234.6 18 128z"/><path fill="#ffc7a6" d="m127.1 76.3 39.4-11.5-11.5 41z"/><path fill="#abb0b1" d="M37 445.4h142.6l-111.5-46z"/><path fill="#b6b6b6" d="m255.1 238.7 70.6 164-72.2 42.7z"/><path fill="#050f1e" d="m251.8 384.7 5-50.8H191z"/><path fill="#cacbc8" d="m74.6 319.1 6.6-13.1 1.7 11.5z"/><path fill="#171925" d="M251.8 232.1 46.8 416l139.4-262.5z"/><path fill="#d0d0d1" d="m-25.4 183 91.8-39.4-52.5 292z"/><path fill="#969ea3" d="m212.5 409.3 64 36.1-154.3-27.9z"/><path fill="#e5e7e0" d="m217.4 327.3 1.6-9.8-3.3-3.3z"/><path fill="#6d7579" d="m210.8 394.6 14.8-13.2-9.9-24.6z"/><path fill="#231504" d="m130.4 53.3 44.3-4.9L188 68.1z"/><path fill="#b8b8ba" d="m309.3 105.8-9.9-131.2L50-2.4z"/><path fill="#815f46" d="m146.8 153.4 32.8-19.7 5 18z"/><path fill="#cececf" d="M41.8 430.7 22.1 212.5l-47.5 221.4z"/><path fill="#151723" d="m40.2 394.6 113.2 21.3L38.6 324z"/><path fill="#cdd0cf" d="M240.4 168.2 187.9 59.9l14.7 101.7z"/><path fill="#0f111c" d="m184.6 153.4 50.8 24.6 19.7 87z"/><path fill="#b7b7b7" d="m325.7 445.4-82-6.5 49.2-303.5z"/><path fill="#5d2811" d="m181.3 117.3 3.3-42.7 9.8 26.3z"/><path fill="#d5825d" d="m176.4 68 9.8 42.7-36-44.3z"/><path fill="#090c19" d="m151.8 414.3 72.1-11.5-31.1-55.8z"/><path fill="#080e19" d="m250.2 402.8-29.5 3.3-1.7-113.2z"/><path fill="#d0d0cf" d="m76.3 161.6-101.7-9.8 62.3 100z"/><path fill="#dfa28b" d="M133.7 166.5 114 97.6l73.9 18z"/><path fill="#0d0c17" d="M81.2 379.8 50 415.9l-9.8-26.3z"/><path fill="#bcbdbf" d="M-23.8-9-9 71.4 261.7 22z"/><path fill="#12141f" d="m107.5 161.6 144.3 54.1 5 95.2z"/><path fill="#f9c4a8" d="m148.5 174.7 31.1-11.5-52.5-16.4z"/><path fill="#c7c7c6" d="m-18.9 119 144.4-77.2-16.4 82z"/><path fill="#cac9c8" d="m192.8 156.7 1.6-73.8 78.8 105z"/><path fill="#151724" d="m40.2 310.9 11.5-75.5L201 161.6z"/><path fill="#0a0800" d="m174.7 53.3 14.8 41-1.6-24.6z"/><path fill="#c7c8c8" d="m258.4 266.6-11.5-119.8 24.6 50.9z"/><path fill="#939597" d="M69.7 406-9 445.5 145.2 416z"/><path fill="#171926" d="m192.8 360.1-134.6 41 67.3-249.3z"/><path fill="#a06050" d="m164.9 92.7 3.3 47.6-13.2-32.8z"/><path fill="#cac9cb" d="m35.3 378.2 13.1 44.3-73.8-9.9z"/><path fill="#fbc3ae" d="m130.4 89.4 16.4-23 26.3 26.3z"/><path fill="#a0a0a1" d="m217.4 371.6 3.3 24.6-6.6-6.6z"/><path fill="#423022" d="m120.6 81.2 24.6-34.4-18 6.5z"/><path fill="#9a6151" d="m194.4 107.5-13.1 13-6.6-34.4z"/><path fill="#0b0b12" d="m219 394.6-24.6 14.7 11.5-37.7z"/><path fill="#d2d0cc" d="m61.5 174.7 64-23 14.8-42.6z"/><path fill="#f9bca3" d="m173 133.7-11.4-29.5 14.8 1.6z"/><path fill="#b2b2b2" d="m245.3 420.8 80.4 23-18-198.5z"/><path fill="#a3a5a1" d="m212.5 309.3 3.2-3.3 5 9.8z"/><path fill="#e4c6ab" d="m130.4 163.2-3.3-26.2 28 36z"/><path fill="#141421" d="M210.8 219 66.4 188l50.9-31.2z"/><path fill="#c69a80" d="m184.6 156.7-18 1.6 4.8 13.1z"/><path fill="#d0d1d2" d="M63.2 160 38.6 301l-50.9-26.2z"/><path fill="#161723" d="m48.4 342 13.1-142.7 69-50.8z"/><path fill="#472b1a" d="m163.2 45.1-31.1 19.7 42.6 1.6z"/><path fill="#aeaeb2" d="m314.2 59.9-192-85.3L311-20.5z"/><path fill="#cdcdcc" d="m2.5 261.7-28-147.7 133 18z"/><path fill="#0f101b" d="m212.5 238.7 3.2 155.9-82-11.5z"/><path fill="#825646" d="m179.6 87.8 8.3 13.1-32.9-1.6z"/><path fill="#10101a" d="m184.6 153.4 57.4 31.2-55.8 9.8z"/><path fill="#c0c0bf" d="m256.8 399.5 57.4-200.2-57.4-157.5z"/><path fill="#121725" d="M255.1 312.5 235.4 224 219 398z"/><path fill="#c2c1c1" d="m148.5 33.6-41 41L50 60z"/><path fill="#da9679" d="m130.4 71.4-6.5 18 27.9-21.3z"/><path fill="#cacdcc" d="m179.6 146.8 41 18L201 91.2z"/><path fill="#020002" d="m220.7 232.1-11.5 46 16.4 39.4z"/><path fill="#171926" d="m110.7 176.4 133 13L66.3 396.3z"/><path fill="#c8c8c5" d="M271.5 91 260 202.7l-72.1-82z"/><path fill="#a96148" d="m123.9 89.4 1.6 26.3-6.6-16.4z"/><path fill="#9f564b" d="m137 120.6 13.1 8.2-4.9 3.3z"/><path fill="#c3c3c2" d="m265 97.6 3.2 108.3-111.5-192z"/><path fill="#181b28" d="m59.9 201 59 29.5L73 176.4z"/><path fill="#cecfd0" d="m17.2 389.6-6.5-70.5 29.5-3.3z"/><path fill="#e4e2e5" d="m81.2 309.3-5 9.8v-5z"/><path fill="#83574a" d="m145.2 102.5-13.1-1.6 14.7-6.6z"/><path fill="#080a0e" d="M210.8 397.9 199.3 342l16.4 23z"/><path fill="#bbbbbd" d="m174.7-25.4 98.5 87-298.6-49.3z"/><path fill="#e8aa8d" d="m115.7 96 14.7 41 21.4 5z"/><path fill="#080607" d="m82.9 269.9-23 47.6 11.5 26.2z"/><path fill="#8b8f92" d="m210.8 445.4 5-36-124.7 13z"/><path fill="#191b29" d="m69.7 315.8-31.1 9.9 9.8 88.6z"/><path fill="#a87f5e" d="m133.7 140.3 24.6 13.1h-14.7z"/><path fill="#121522" d="m46.8 381.4 169 9.9L114 412.6z"/><path fill="#797876" d="m220.7 329-5 6.5v-16.4z"/><path fill="#11131e" d="m251.8 358.5-54.1-18 54.1-24.7z"/><path fill="#15151f" d="m184.6 160 67.2 64-26.2-52.6z"/><path fill="#aaa" d="m325.7 417.5-49.3 8.2 21.4-105z"/><path fill="#efbaa3" d="m160 69.7 11.4 16.4-26.2 13.2z"/><path fill="#b9b9ba" d="m292.9 373.2-29.6 23-8.2-114.8z"/><path fill="#161926" d="m142 310.9-83.8-105L83 169.8z"/><path fill="#11141f" d="M217.4 289.6 232 443.8l23-110z"/><path fill="#cdcdcb" d="m127.1 150.1-16.4-65.6-52.5 90.2z"/><path fill="#11111c" d="m255.1 248.6-6.5-39.4-24.7 27.9z"/><path fill="#0f0f1a" d="m255.1 335.5-14.7 37.7 9.8 18z"/><path fill="#322117" d="m148.5 46.8 34.4 27.8-1.6-16.4z"/><path fill="#7e7f81" d="m217.4 360.1 1.6-9.8-8.2 14.7z"/><path fill="#06070d" d="M215.7 370H201l9.8-24.6z"/><path fill="#af7168" d="m186.2 102.5 8.2-6.5-3.3-3.3z"/><path fill="#13141f" d="M251.8 319.1 247 201l-64-49.2z"/><path fill="#f1c9b0" d="m148.5 174.7 8.2-19.7-23 9.9z"/><path fill="#0c0c11" d="m91 289.6-6.5-72.2-21.3 114.8z"/><path fill="#cdd2d3" d="m184.6 122.2 11.5-1.6-14.8 16.4z"/><path fill="#4c2c1b" d="m120.6 73 9.8-9.8-9.8 34.4z"/><path fill="#bcbdbd" d="m278 363.4-29.4 73.8 6.5-87z"/><path fill="#e0e1e5" d="m215.7 379.8 1.7 1.6-1.7 5z"/><path fill="#e2b79f" d="m169.8 173 8.2-22.9-27.9 18z"/><path fill="#171927" d="m56.6 317.5-18 73.8L59.9 411z"/><path fill="#cbccce" d="m-4.1 286.3 59 146-80.3-24.6z"/><path fill="#181b29" d="M38.6 306 68 338.8l-16.4-65.6z"/><path fill="#8b4d42" d="m163.2 130.4-6.5-4.9 9.8-3.3z"/><path fill="#e3a397" d="m161.6 148.5-8.2-41-9.8 37.7z"/><path fill="#865" d="M178 168.2V137l6.6 23z"/><path fill="#121421" d="m242 445.4 13-165.7-37.6 72.3z"/><path fill="#141624" d="M196 251.8v155.9l-100 1.6z"/><path fill="#b9b9b9" d="m304.3 227.2-37.7 190.3-11.5-96.8z"/><path fill="#12121c" d="m187.9 156.7 41 18-60.7 11.5z"/><path fill="#c0bfbe" d="m284.6 132 1.7-75.4-126.3-18z"/><path fill="#c7c7c6" d="m258.4 178-19.7-26.2 14.8 65.6z"/><path fill="#151520" d="M219 192.8 96 201l6.5-37.8z"/><path fill="#cacac8" d="m191.1 155 41 18 9.9-88.5z"/><path fill="#584838" d="m135.4 66.4 21.3-23L127 61.6z"/><path fill="#5c5b57" d="m71.4 368.3-1.7 16.4 3.3-6.5z"/><path fill="#cccac7" d="m94.3 94.3 23-23-9.8 88.7z"/><path fill="#0c0a0f" d="M69.7 324v74l-11.5-41z"/><path fill="#cfcfd0" d="m32 274.8 8.2 46-27.9 34.4z"/><path fill="#151722" d="m86.1 168.2-16.4 29.5L73 178z"/><path fill="#cecece" d="m82.9 163.2-57.5 67.3-50.8-103.4z"/><path fill="#e7b49a" d="m127.1 105.8 5 46 9.8-42.7z"/><path fill="#8e9091" d="m242 445.4-26.3-42.6-26.2 14.7z"/><path fill="#cfcfcf" d="M23.8 284.6-25.4 219l91.8-37.7z"/><path fill="#13131c" d="m250.2 217.4-6.6-31.2-34.4-16.4z"/><path fill="#171a28" d="m153.4 409.3-27.9-146-50.9 62.4z"/><path fill="#161825" d="m38.6 352 32.8-10-24.6 69z"/><path fill="#939799" d="m66.4 401.1-18 44.3 75.5-26.2z"/><path fill="#f7ccbd" d="M140.3 92.7h21.3l-26.2-14.8z"/><path fill="#935f4c" d="m151.8 69.7-13.2-6.5 23 1.6z"/><path fill="#82878a" d="M107.5 411 242 425.7l-108.3 19.7z"/><path fill="#0f0f16" d="m201 274.8-3.3 23 21.3 24.6z"/><path fill="#9a6e58" d="m166.5 143.6 19.7-31.2-9.8 34.4z"/><path fill="#bababc" d="M265 66.4-22.1.8 196-25.4z"/><path fill="#c69074" d="M173 96h6.6l3.3 18z"/><path fill="#d3d3d5" d="m40.2 296.1-29.5 5L50 225.6z"/><path fill="#181b2a" d="M81.2 217.4 55 214l-8.2 72.2z"/><path fill="#b6b6b6" d="M299.4 327.3 265 445.4l-14.8-49.2z"/><path fill="#bd9074" d="m174.7 150.1 1.7 8.2-28-4.9z"/><path fill="#cac9cc" d="m-25.4 383 62.3-8.1-5 70.5z"/><path fill="#12131d" d="m222.3 411-3.3-64 23 55.8z"/><path fill="#edc4b0" d="M151.8 174.7v-16.4l19.6 11.5z"/><path fill="#c7c5c3" d="m191.1 82.9 21.4 72.1-1.7-90.2z"/><path fill="#92654b" d="m156.7 151.8 23-16.4-5 16.4z"/><path fill="#e09a82" d="m43.5 429 21.3 16.4-13.1-31.1z"/><path fill="#bfbfc0" d="m96 56.6 70.5-19.7-75.4-26.2z"/><path fill="#37291d" d="m151.8 64.8-16.4-3.3 26.2-13.1z"/><path fill="#c29e7d" d="m127.1 160 6.6-19.7h9.9z"/><path fill="#161926" d="M94.3 179.6 79.6 404.4l95.1-24.6z"/><path fill="#cbcaca" d="M135.4 148.5-23.8 137 96 78z"/><path fill="#c6c5c5" d="M127.1 51.7 101 107.5l-118.1-8.2z"/><path fill="#070306" d="m220.7 329 3.2 19.6-6.5 6.6z"/><path fill="#100f17" d="m179.6 402.8 34.5-13.2-1.6-114.8z"/><path fill="#151825" d="m219 407.7 21.4-155.9 14.7 82z"/><path fill="#b96362" d="m145.2 128.8 3.3 3.3 9.8-1.7z"/><path fill="#bb7467" d="m153.4 119 9.8 1.6v-18z"/><path fill="#d7907e" d="m150.1 122.2-16.4 1.7 11.5-18z"/><path fill="#e4a194" d="m161.6 130.4 3.3 14.8-31.2-14.8z"/><path fill="#050405" d="m66.4 352 5 16.3 1.6-23z"/><path fill="#a76a55" d="m158.3 96 6.6 9.8h-11.5z"/><path fill="#12131d" d="M84.5 374.9 55 412.6l-9.9-8.2z"/><path fill="#151724" d="m138.6 286.3 46-54.2L127 160z"/><path fill="#f8c7b8" d="m137 110.7-5 9.9-9.8-6.6z"/><path fill="#e1a384" d="m168.2 68 6.5 23-21.3-23z"/><path fill="#3f3b3b" d="m217.4 335.5 4.9 8.2-6.6-1.6z"/><path fill="#c78f76" d="m132 74.6-6.5 3.3v19.7z"/><path fill="#bbbbba" d="M294.5 71.4 325.7 260l-59.1-1.6z"/><path fill="#4d301c" d="m179.6 74.6 9.9 13.2-3.3 16.4z"/><path fill="#555656" d="m74.6 365-1.6-9.8 3.3-1.6z"/><path fill="#b8896f" d="m179.6 155-1.6-13-13.1 13z"/><path fill="#2e3136" d="m79.6 299.4 6.5-1.6-4.9 6.5z"/><path fill="#cbcbcc" d="m41.8 399.5-67.2-31.2 68.9 77.1z"/><path fill="#b7785c" d="m168.2 69.7 11.4 16.4-4.9 5z"/><path fill="#131722" d="m74.6 391.3 19.7 16.4-19.7-62.3z"/><path fill="#4c3a26" d="m145.2 51.7 27.9-1.7-16.4-4.9z"/><path fill="#cbcac8" d="m224 115.7-42.7 32.8v-19.7z"/><path fill="#d0d0d1" d="m40.2 233.8-65.6 50.8 68.9-4.9z"/><path fill="#12131e" d="m224 401.1-39.4-45.9-37.8 57.4z"/><path fill="#b8b8b9" d="m288 32 37.7 73.8L143.6-12.3z"/><path fill="#d09a80" d="m122.2 115.7 11.5-9.9-8.2-13.1z"/><path fill="#141520" d="m184.6 151.8 57.4 47.5 11.5 72.2z"/><path fill="#a37262" d="M143.6 97.6v-4.9h-14.8z"/><path fill="#161722" d="m225.6 215.7 14.8-32.8-24.7-14.7z"/><path fill="#a4685b" d="m174.7 125.5 18-36-1.6 26.2z"/><path fill="#c9c7c5" d="m196 81.2-6.5 55.8 36-36.1z"/><path fill="#0a090f" d="m204.3 278 18 32.9v-87z"/><path fill="#141521" d="m245.3 194.4-75.5 18 3.3-39.3z"/><path fill="#cfcfcd" d="m104.2 119 1.6 42.6-54.1-1.6z"/><path fill="#754133" d="m174.7 68-4.9-6.5-6.6 3.3z"/><path fill="#d1a298" d="m161.6 100.9 11.5 3.3h-11.5z"/><path fill="#9c9ea2" d="m217.4 363.4-3.3 21.3 5-9.8z"/><path fill="#11121d" d="m248.6 406-28-68.9-1.6 57.5z"/><path fill="#d5ad8f" d="m128.8 163.2 1.6-24.6 11.5 11.5z"/><path fill="#bdbdbd" d="m268.2 414.3-31.1 29.5 18-49.2z"/><path fill="#cecece" d="m37 340.4-1.7-49.2-60.7 69z"/><path fill="#c1c0c1" d="m281.4 158.3 4.9 62.4-32.8 26.2z"/><path fill="#101117" d="m255.1 307.6-1.6-41-8.2 36.1z"/><path fill="#181b28" d="m61.5 340.4-16.4-55.8-6.5 70.6z"/><path fill="#b4b4b8" d="M219 383h-1.6l-1.7 5z"/><path fill="#0c0d13" d="m202.6 360.1 14.8 8.2-5-18z"/><path fill="#adadb2" d="M314.2 4.1 202.6-25.4l123 77z"/><path fill="#0a0709" d="m214.1 355.2-5-5 8.3-16.3z"/><path fill="#f1b2a1" d="m178 107.5-16.4 1.6 8.2 8.2z"/><path fill="#cf9980" d="M153.4 133.7h18l-9.8 9.9z"/><path fill="#c0bfc1" d="m205.9 84.5-52.5-59 75.5 41z"/><path fill="#d17f78" d="m115.7 97.6 4.9 13.1 1.6-8.2z"/><path fill="#171823" d="m89.4 166.5 39.4-3.3-67.3 31.2z"/><path fill="#e3bda7" d="m163.2 174.7-18-16.4 27.9 9.9z"/><path fill="#c1c1c1" d="m278 233.8-21.2 46 6.5 52.4z"/><path fill="#919293" d="m112.4 445.4-46-46 19.7 46z"/><path fill="#ebac92" d="m150.1 110.7 1.7-14.7 4.9 3.3z"/><path fill="#ccccce" d="M35.3 435.6.8 315.8l36.1 41z"/><path fill="#a6897c" d="M178 161.6v5l-11.5 6.5z"/><path fill="#07060b" d="m64.8 330.6 11.5 21.3-1.7-55.8z"/><path fill="#cccdcb" d="M189.5 151.8 219 155l-34.4-34.4z"/><path fill="#f6cab9" d="m140.3 76.3 6.5 18 5-9.8z"/><path fill="#0b0b0f" d="m207.5 379.8 6.6 5v13z"/><path fill="#190e0c" d="M181.3 69.7 178 58.2l5 3.3z"/><path fill="#191a28" d="M37 330.6 51.6 342l14.7-34.5z"/><path fill="#909497" d="m184.6 412.6 46 24.6-100.2-18z"/><path fill="#e6b097" d="M171.4 92.7 165 79.6 145.2 73z"/><path fill="#77797d" d="M73 379.8h-1.6v-3.3z"/><path fill="#040306" d="m219 292.9 3.3 39.3 5-19.7z"/><path fill="#141621" d="m97.6 365-29.5 10 18 1.6z"/><path fill="#c9c9cb" d="m37 340.4 1.6-16.4L27 309.3z"/><path fill="#15151f" d="m73 179.6 37.7 3.3 18-31.1z"/><path fill="#6f3026" d="m142 127.1 4.8-3.2h-6.5z"/><path fill="#c7c7c5" d="m240.4 81.2 8.2 111.6-55.8-105z"/><path fill="#cbcac8" d="M233.8 174.7 191 153.4v-41z"/><path fill="#10141f" d="m225.6 388 21.3 21.3-19.7 36.1z"/><path fill="#e4b8a1" d="m145.2 127.1 5-4.9 11.4 5z"/><path fill="#14131e" d="m210.8 348.6-34.4 64 9.8-101.7z"/><path fill="#989b9e" d="M148.5 445.4 48.4 416l75.5 1.6z"/><path fill="#161a28" d="m82.9 312.5-8.3 87 78.8-52.5z"/><path fill="#05060a" d="m209.2 363.4 4.9 5v8.1z"/><path fill="#c3c4c5" d="m250.2 199.3 8.2 47.6 8.2-67.3z"/><path fill="#bfc0c3" d="m215.7 320.7 5 8.2-5-3.2z"/><path fill="#29160c" d="M186.2 69.7V78l-16.4-18z"/><path fill="#d3ad99" d="m120.6 112.4 13.1 27.9-3.3-24.6z"/><path fill="#cd9383" d="m176.4 119-19.7 6.5-21.3-5z"/><path fill="#6f2216" d="m187.9 105.8-1.7 3.3v-5z"/><path fill="#151825" d="M63.2 393v-59.1l-23 62.3z"/><path fill="#141623" d="m179.6 276.4 37.8-23-8.2-54z"/><path fill="#403225" d="m133.7 50-8.2 11.5 1.6 8.2z"/><path fill="#141622" d="m219 381.4 8.2-24.6 11.5 65.7z"/><path fill="#c48f79" d="m174.7 109.1 6.6 13.1-6.6 11.5z"/><path fill="#b3b4b8" d="M217.4 388v1.6l-1.7 1.7z"/><path fill="#0d0d18" d="m219 329 8.2-23 1.7 16.4z"/><path fill="#151925" d="M97.6 329 73 383l13.1-95z"/><path fill="#bc7961" d="m145.2 99.3 3.3 6.5-9.9 1.7z"/><path fill="#131522" d="M242 210.8 222.3 283l32.8 67.3z"/><path fill="#05050a" d="m87.8 255.1-6.6 42.7-3.3-24.6z"/><path fill="#bebebf" d="m160 14-37.8 44.2-147.6-36z"/><path fill="#171928" d="m63.2 399.5-14.8-54.1-1.6 68.9z"/><path fill="#141724" d="m255.1 315.8-19.7 37.8-4.9-87z"/><path fill="#b8b8ba" d="m100.9-25.4 91.9 36-218.2-3.2z"/><path fill="#715443" d="m120.6 89.4 1.6 5 1.7-10z"/><path fill="#0c0c12" d="m64.8 373.2-1.6 23 14.7-6.6z"/><path fill="#c68d77" d="m140.3 73-3.3-5-11.5 8.3z"/><path fill="#42281a" d="M122.2 68v11.6l11.5-16.4z"/><path fill="#daad91" d="M173 155h-21.2l23 11.5z"/><path fill="#9a684f" d="m179.6 87.8-8.2-16.4 8.2 8.2z"/><path fill="#000100" d="m220.7 306-3.3 3.3 3.3 3.2z"/></g></svg>