<svg xmlns="http://www.w3.org/2000/svg" viewBox="0 0 300 420">
  <rect width="100%" height="100%" fill="#453125" />
  <g fill-opacity=".5" transform="translate(.8 .8) scale(1.64063)">
    <path fill="#fff" d="m-1-9.9 182-3.2 2 123-182 3.2z" />
    <path fill="#fff" d="M19.5 257.7-43 251l23.6-224.8L43 33z" />
    <ellipse cx="173" cy="175" fill="#fff" rx="20" ry="255" />
    <circle r="1" fill="#00011f" transform="matrix(60.05263 -1.32782 .80539 36.425 92 129)" />
    <ellipse cy="124" fill="#e1e9f0" rx="25" ry="255" />
    <circle r="1" fill="#d8dde0" transform="matrix(-21.05196 -8.93603 52.0071 -122.52104 41.2 62)" />
    <circle r="1" fill="#d4dde2" transform="rotate(-113.2 93.6 -15) scale(146.58843 20.40147)" />
    <circle cx="90" cy="190" r="67" fill="#000423" />
    <path fill="#d4e6ee" d="M16 251h120v5H16z" />
    <circle r="1" fill="#f9ae8d" transform="matrix(23.37962 -6.6491 9.09632 31.98456 91.6 75.3)" />
    <circle r="1" fill="#170000" transform="matrix(18.6838 5.27018 -1.94434 6.89305 97 36.2)" />
    <ellipse cx="180" cy="185" fill="#bbc0c3" rx="26" ry="255" />
    <circle cx="16" cy="56" r="58" fill="#c5c5c7" />
    <path fill="#0a1420" d="M42 107h108v139H42z" />
    <path fill="#c1c1c2" d="M117 0h66v99h-66z" />
    <path fill="#290000" d="M109 42h6v30h-6z" />
    <path fill="#c2c5c6" d="m162.3 107.1 23.2 113.2L147 271l6.2-38.9z" />
    <path fill="#dcdde2" d="m9 278.7-16.7-51.4 24.7-8 16.7 51.4z" />
    <ellipse cx="34" cy="209" fill="#010d1f" rx="13" ry="42" />
    <path fill="#2f1200" d="m73 52.5-1.1-5 6-17.8 11.8 6.9z" />
    <circle r="1" fill="#d9dcdb" transform="rotate(-68.3 84.7 -.2) scale(21.92432 23.23421)" />
    <path fill="#d4d6d4" d="m142.7 106.1-36.8-17.3 34.7-58.4 20.2 107.5z" />
    <path fill="#050713" d="m75.3 92.8 14 25.4-30.6 17-14-25.4z" />
    <circle r="1" fill="#ffecc6" transform="matrix(1.0355 -6.17077 14.49619 2.43258 92.8 99)" />
    <circle r="1" fill="#bec0c3" transform="matrix(-14.27608 -27.00346 86.8081 -45.89337 61.4 7.2)" />
    <path fill="#080914" d="m156 171-11-61-43-23z" />
    <path fill="#a2a9b0" d="m52.7 248.8-9.5-6.4L22 262.8l105.8 1z" />
    <path fill="#d9d9db" d="m-16 166.5 34.8 79.9 8.4-91.3 9.2-38.4z" />
    <ellipse cx="102" cy="72" fill="#bf7b61" rx="9" ry="33" />
    <path fill="#141723" d="M29 147h126v88H29z" />
    <path fill="#a7a9a8" d="M131 187h2v69h-2z" />
    <circle cx="162" r="64" fill="#b6b6b9" />
    <path fill="#171926" d="M67 107h41v146H67z" />
    <path fill="#442818" d="M72 38h5v22h-5z" />
    <circle r="1" fill="#fec0a5" transform="matrix(11.0221 -4.19918 3.34517 8.78048 93 50.5)" />
    <circle cx="65" cy="130" r="31" fill="#161824" />
    <path fill="#d4d4d2" d="m52.5 85-19.9 47-21.1-9 19.9-47z" />
    <path fill="#929ea4" d="M158.2 255.9 57.9 271l70.5-24.8 10.9 10z" />
    <path fill="#260b00" d="m108 32-15-5 25 33z" />
    <path fill="#000218" d="m118.1 229.5 24.5 28.3 7.6-7.7 1.4-2.5z" />
    <path fill="#c5c4c0" d="M118.6 25.8 198 71.5l-27 49.2-55.4-24.8z" />
    <path fill="#babcbc" d="m155.4 214.4 20.9 2.6-5.7 46.6-20.9-2.6z" />
    <path fill="#020108" d="m117 96 16 11-43 7z" />
    <ellipse cx="88" cy="3" fill="#b9b9bd" rx="182" ry="24" />
    <path fill="#161925" d="M146.9 111.3 32.8 131.1l-9.1 56.7 128.1-62.6z" />
    <path fill="#f9f9fb" d="m46.6 193.8-.8-.6 5.6-7 .8.6z" />
    <ellipse cx="55" cy="83" fill="#cfd0cd" rx="28" ry="14" />
    <path fill="#0a0b14" d="M121 203h35v12h-35z" />
    <path fill="#cbccce" d="m29.5 145.9-11.1 84 11.9 26.6-46.3.9z" />
    <circle r="1" fill="#c6c4c3" transform="matrix(53.5944 -35.74302 20.03142 30.03585 16 63.5)" />
    <circle r="1" fill="#c3c3c2" transform="matrix(9.43579 -.58528 3.16617 51.04424 162.6 135.3)" />
    <path fill="#121628" d="m42.4 238.8-13.2 16.4-6.9-28.1.4-30.1z" />
    <path fill="#9a6454" d="M72 57h34v6H72z" />
    <path fill="#969899" d="m45 246 51 9-106 16z" />
    <path fill="#ad836a" d="m115.5 71.7-6-9.2 1.4 38.6-23.2-8z" />
    <path fill="#b4b3b3" d="m198 7-43-23 24 172z" />
    <path fill="#f5d0b8" d="m97 107-13-5 27-8z" />
    <path fill="#35220a" d="m87.5 41-3.6-11.4 8.6-2.7 3.6 11.5z" />
    <path fill="#c9cac9" d="m154.3 71.8 4.5 114.8-7.6-69L111 73.2z" />
    <path fill="#0c0c17" d="m109 178 47 12-4-56z" />
    <path fill="#c3c4c4" d="M108.7 32.6 69.1 13.4l31.4-12.1 46 96.6z" />
    <path fill="#d0d0d0" d="m37 103-17 98-36-86z" />
    <ellipse cx="93" cy="243" fill="#0e121f" rx="35" ry="9" />
    <path fill="#050a19" d="m148 260-19-53 24 17z" />
    <path fill="#e5a68e" d="M108.2 42.1 79.9 79.7l-3-29.7-4.5 25.6z" />
    <path fill="#161927" d="M91.5 251.8 77.6 89.4 50 169.5l-.4 78.8z" />
    <path fill="#151622" d="m106 250 30-145-48 2z" />
    <ellipse cx="68" cy="131" fill="#151723" rx="34" ry="31" />
    <path fill="#89513a" d="m117.1 62.5.6 3.9-17.8-5.6L110 48.9z" />
    <path fill="#161825" d="m151 124.9-81.9-1.7L34.8 243l31.8 8.5z" />
    <path fill="#160f02" d="m112.1 40.4 4.7 16.4-2.9.8-4.7-16.4z" />
    <path fill="#070306" d="m45.6 193.2 10.9-43.3-15.6 20.4-.3 71.1z" />
    <path fill="#efb59d" d="m110 58.4-6.5 27.1-3-24.1 1.4 6.6z" />
    <path fill="#b1b1b3" d="m135 238-5-4 1-5z" />
    <circle r="1" fill="#bd7d60" transform="matrix(-4.8349 1.7233 -1.88918 -5.30032 104.8 47.5)" />
    <path fill="#d6d8d6" d="m117 95 1.3-2.6 22.7 10.5-1.3 2.7z" />
    <path fill="#825840" d="m90 94 18-5 2-8z" />
    <path fill="#0d111e" d="m130 241 17 28 8-61z" />
    <path fill="#121119" d="M23 184h5v6h-5z" />
    <path fill="#909495" d="m147 266-80-8 64-11z" />
    <circle cx="10" cy="251" r="17" fill="#cac9cc" />
    <ellipse cx="181" cy="255" fill="#b3b4b4" rx="30" ry="62" />
    <circle r="1" fill="#bdbdbe" transform="matrix(.33445 22.93997 -56.40375 .82233 33.3 19)" />
    <circle r="1" fill="#cfd0d0" transform="rotate(-53.7 197 85.2) scale(12.69392 13.12902)" />
    <path fill="#fcd1be" d="m99.1 54-7 7.1-9.2-9.2 7-7z" />
    <circle r="1" fill="#cfcece" transform="matrix(-24.13222 9.79908 -8.94445 -22.02751 13.6 112.5)" />
    <path fill="#989b9e" d="m21 271 34-22-15-5z" />
    <path fill="#d2d4d3" d="m63.2 97.5 17.1-8.6-7-11.2-43.9 33.6z" />
    <path fill="#bebdbd" d="m157.4 200.6 40.6-12.7-30-163.4-13.4 139z" />
    <path fill="#e19e87" d="M83 90 68 57l32 28z" />
    <path fill="#c2786a" d="M85 62h15v19H85z" />
    <path fill="#16151e" d="m69.5 121.8 9.2-29.9-33.4 15.6 3.5-4.2z" />
    <ellipse cx="144" cy="170" fill="#131522" rx="10" ry="59" />
    <circle r="1" fill="#372d24" transform="matrix(5.58593 10.20291 -2.76104 1.51162 109.4 40.3)" />
    <path fill="#ccd1d1" d="M110 78h20v14h-20z" />
    <path fill="#0f0f19" d="m86 253 44-8-2-91z" />
    <path fill="#eabfa7" d="m91.2 107.7 18.1-15.5L93 95.9l-16.5.3z" />
    <path fill="#0b080b" d="m137.4 136.7-4.1 59-1.4-11.3-9-16.8z" />
    <path fill="silver" d="m157 271-8-15 11-31z" />
    <path fill="#171927" d="M23 201h13v39H23z" />
  </g>
</svg>