<svg xmlns="http://www.w3.org/2000/svg" viewBox="0 0 300 195"><path fill="#543d40" d="M0 0h300v195H0z"/><g fill-opacity=".5"><path fill="#faffff" d="M299.4 213.9-18.2 54.5l317.6-72.7z"/><path fill="#9fc8d9" d="M-18.2 201 5.3-18.2l212 226.2z"/><path fill="#e6ffff" d="m61.5 5.3 256.7-23.5-27 136z"/><path fill="#624f57" d="M68.6 169.3 297 214l21-118.4z"/><path fill="#8198a5" d="m-18.2 5.3 202.8-23.5-118.4 232z"/><path fill="#f4f5f9" d="m177.5 38 140.7-11.6-77.4 135.9z"/><path fill="#4f5c65" d="M89.6-5.3 37-1.8l65.6 157z"/><path fill="#b2c6d2" d="M86.1 109.6 3 65l89 147.7z"/><path fill="#3e2928" d="m225.6 175.2-12.9-51.6-65.6 16.4z"/><path fill="#5b4d52" d="m134.2 106 45.7 10.6 3.5-48z"/><path fill="#6b585e" d="m103.7 213.9 3.5-57.5 211 2.4z"/><path fill="#ddc9c0" d="m123.6 145.9 3.5-69.1L160 160z"/><path fill="#7793ab" d="m209.2 39.3-52.8-57.5 99.7 8.2z"/><path fill="#f6f6f8" d="m205.7 32.2-25.8 109 70.3-92.6z"/><path fill="#615768" d="m263 196.3 31.7-72.7-42.2-17.5z"/><path fill="#baa9a3" d="m244.3 115.4-12.9 49.2-70.3-143z"/><path fill="#687785" d="m157.6 54.5-25.8-72.7L72.1 5.3z"/><path fill="#f3fcff" d="M277.1 110.7 153 15.8l165.3 66.8z"/><path fill="#acaaae" d="m81.4 19.3 85.6 90.3 4.7-65.7z"/><path fill="#855a5f" d="m94.3 66.2 36.4-3.5-11.8 39.8z"/><path fill="#71646c" d="m100.2 189.3 218 24.6-78.6-57.5z"/><path fill="#5e7a8a" d="m-18.2-18.2 78.6 232-78.6-3.4z"/><path fill="#cac2c3" d="m89.6 81.4 82 45.7-49.1 8.3z"/><path fill="#947e78" d="m170.5 141.2 66.8-24.6-22.3-14z"/><path fill="#26110f" d="m175.2 145.9-9.4 17.6-4.7-35.2z"/><path fill="#fff" d="M196.3 47.5 154 28.7l31.6-14z"/><path fill="#d0e0ec" d="m236.1 65 56.3-83.2 15.2 126.6z"/><path fill="#9fb1bc" d="M46.3 174 34.6 11.1 108.4 214z"/><path fill="#c3bfc2" d="M216.2 74.4 117.8 64l72.6-14.1z"/><path fill="#d9d2d4" d="m242 162.3 16.4-18.7-12.9-34z"/><path fill="#a37a86" d="m160 40.4 35.1 14-57.4-3.4z"/><path fill="#4e3a3c" d="m145.9 164.6 68-15.2-1.2-30.5z"/><path fill="#c1b5b9" d="m177.5 140 27-16.4-50.4-12.9z"/><path fill="#667179" d="M86.1-18.2 46.3 27.5l41 99.6z"/><path fill="#30131b" d="M179.9 101.4 168.2 113l14 7z"/><path fill="#564b55" d="m264.3 116.6 1.1 37.5-14-39.8z"/><path fill="#89a4b2" d="m155.3 58-75-73.8 21 73.8z"/><path fill="#d2c9d9" d="m156.4 7.6 27 39.9-44.5-18.8z"/><path fill="#d8dee4" d="m181 115.4 48.1-31.6-31.6-12.9z"/><path fill="#ac9c96" d="M168.2 110.7 136.5 58l45.7 42.2z"/><path fill="#889ba5" d="m-10 46.3 77.4 20-35.2-75z"/><path fill="#4a424a" d="m160 100.2-15.3 12.9-7-18.8z"/><path fill="#c5bcb9" d="m112 124.8 30.4-28.1V46.3z"/><path fill="#736771" d="m306.4 131.8-35.1 82-154.7-5.8z"/><path fill="#474756" d="M187 68.6 170.4 99l1.2-24.6z"/><path fill="#cab9b2" d="m216.2 138.9 16.4 21 27-62z"/><path fill="#647986" d="M135.4 51 109.6-3l42.2-15.2z"/><path fill="#abbbc8" d="m254.9 35.7-1.2-53.9-62.1 52.8z"/><path fill="#bcb2b0" d="m225.6 86.1 57.4 35.2L250.2 86z"/><path fill="#917f75" d="m158.8 130.7 3.5 23.4-20-18.7z"/><path fill="#fdffff" d="m218.6 31 36.3 13-44.5 49.2z"/><path fill="#67575c" d="m109.6 213.9-11.7-36.4 119.5-32.8z"/><path fill="#738087" d="m82.6 122.5 35.2 51.5-4.7-65.6z"/><path fill="#877e8c" d="m288.9 140 29.3-43.3-61 15.2z"/><path fill="#633238" d="m121.3 102.5-2.4-22.2-7 5.8z"/><path fill="#869cae" d="m201 38-29.3-56.2h51.5z"/><path fill="#91a4b1" d="m67.4 203.3 32.8-11.7-85.6-97.3z"/><path fill="#898994" d="M88.5 106 92 30l21 49z"/><path fill="#e0e6ee" d="m107.2 100.2-7 14 2.3-28z"/><path fill="#af9e9b" d="M129.5 85 167 70.9l9.4 38.7z"/><path fill="#7e5b66" d="m179.9 116.6-2.4 9.4 13-10.6z"/><path fill="#708da5" d="m120.1-18.2 77.4 22.3L167 14.6z"/><path fill="#7e665e" d="m162.3 93.2-8.2-18.8-9.4-2.3z"/><path fill="#dcd8db" d="m158.8 130.7 8.2-15.3 12.9 2.4z"/><path fill="#b8a39a" d="m123.6 121.3 35.2-14 5.8 12.8z"/><path fill="#fff" d="m225.6 70.9 42.2 10.5 15.2 24.7z"/><path fill="#c0bbc0" d="m163.5 60.4 29.3-9.4L208 85z"/><path fill="#6e5f64" d="m260.7 196.3-42.1-48-147.7 65.6z"/><path fill="#5e707a" d="M27.5 135.4-14.6-.6-17 73.2z"/><path fill="#fff" d="m191.6 22.9-16.4-13 1.2 29.4z"/><path fill="#c1d6e2" d="m253.7 79.1 27-32.8L236 61.5z"/><path fill="#95a4af" d="M144.7 48.6 93.2 83.8l55-76.2z"/><path fill="#4a4048" d="m182.2 70.9-5.8 17.6 9.3-8.2z"/><path fill="#c9b4b1" d="M184.6 94.3V83.8l-8.2 5.8z"/><path fill="#4f5c64" d="M117.8-18.2 52 26.4 39.3-18.2z"/><path fill="#231418" d="M211.5 135.4v-13l-5.8 3.6z"/><path fill="#738891" d="M51 25.2-18.2 8.8l48-25.8z"/><path fill="#bcaca5" d="m216.2 144.7 4.7-43.3 27 16.4z"/><path fill="#e1e8ed" d="m273.6 21.7 44.6-13L299.4 99z"/><path fill="#85898e" d="m129.5 133 7 17.6-52.7 14z"/><path fill="#aca19f" d="m194 126 12.8 1.1-2.3-31.6z"/><path fill="#c5babd" d="m158.8 82.6 16.4 10.6-22.3-30.5z"/><path fill="#bdb4b2" d="m151.8 160-4.7-22.3 11.7 15.2z"/><path fill="#fff" d="M192.8 46.3 229 35.7l8.2 48z"/><path fill="#635655" d="m177.5 137.7-16.4-7-9.3 3.5z"/><path fill="#846e6c" d="m144.7 60.4 5.9-16.5 5.8 7z"/><path fill="#210c18" d="M170.5 87.3v-4.7l10.6 8.2z"/><path fill="#a1b2bc" d="m56.8 68.6 41 90.2-59.7-20z"/><path fill="#a2b5c2" d="M136.5 61.5h-35.1l1.1-27z"/><path fill="#8b9ca7" d="M22.9 106-.6 35.8l38.7-19.9z"/><path fill="#58646d" d="M182.2-18.2 122.5 10 107.2-6.4z"/><path fill="#6e8390" d="m-18.2 213.9 76.2-34-38.7-75z"/><path fill="#bdb4b3" d="M123.6 82.6 147.1 58l-13 51.6z"/><path fill="#e8e9ed" d="m250.2 140-3.5 16.4 7-11.7z"/><path fill="#776d79" d="m259.6 213.9 50.4-57.5-82 2.4z"/><path fill="#1d0b0b" d="m161.1 144.7 3.5-9.3 11.8 15.2z"/><path fill="#75696e" d="m134.2 190.4-48-28.1 52.7-11.7z"/><path fill="#523c3f" d="m160 155.3 27-20-13 25.8z"/><path fill="#67727a" d="M101.4 58 63.9.6l-2.4 61z"/><path fill="#d8ddeb" d="m145.9 24 3.5-10.5 21.1 4.7z"/><path fill="#b1a5b3" d="m161.1 20.5 5.9 5.9-25.8 8.2z"/><path fill="#e0e2e3" d="M246.7 96.7 229 88.5l20 25.8z"/><path fill="#6b606b" d="m252.5 171.7 5.9-54 34 29.4z"/><path fill="#19080a" d="m165.8 112 13 2.3-7.1 1.1z"/><path fill="#cbd0d7" d="m239.6 20.5 75-38.7-56.2 63.3z"/><path fill="#b6a8a6" d="m178.7 90.8 21.1-21-4.7-8.3z"/><path fill="#c5bac0" d="m182.2 100.2 9.4-2.3v36.3z"/><path fill="#ccc1c9" d="m113 78-8 12.7 1.2 10.6z"/><path fill="#7e909d" d="m142.4 44-14 11.7-14.1-48z"/><path fill="#c8bbca" d="m171.7 44-16.4 1-7-27z"/><path fill="#7c8897" d="m183.4 79.1-3.5-5.9-3.5 11.8z"/><path fill="#94a7b3" d="m94.3 170.5-62-35.1 69 77.3z"/><path fill="#93a7b6" d="m216.2 13.5-20 27-8.1-58.7z"/><path fill="#8c7c80" d="m133 68.6-31.6-7-17.6 9.3z"/><path fill="#978887" d="m113 96.7 9.5 5.8 8.2-16.4z"/><path fill="#c7c5c6" d="m112 122.5 25.7 14 36.3-12.9z"/><path fill="#624f4b" d="m123.6 67.4-2.3 10.5 7-4.7z"/><path fill="#75838b" d="m74.4 107.2 28.1-21-12.9 51.5z"/><path fill="#c9c5c9" d="m196.3 60.4-27 11.7-19.9-16.4z"/><path fill="#a79691" d="m254.9 140-17.6-14 4.7 9.4z"/><path fill="#8a7470" d="m205.7 122.5-1.2-9.4 21 12.9z"/><path fill="#b9a9a0" d="m154.1 138.9-7 18.7-22.3-27z"/><path fill="#d3e4ed" d="m224.4 31 75 69.2 4.7-45.7z"/><path fill="#d0c2ba" d="m215 129.5 23.5-3.5-10.6 15.2z"/><path fill="#afbdc7" d="m215 31 31.7 1.2-1.2-50.4z"/><path fill="#f9ffff" d="M206.8 40.4V30l-2.3 4.7z"/><path fill="#b3737d" d="m178.7 47.5-15.2-1.2v7z"/><path fill="#ccc0bc" d="m158.8 113-12.9 3.6 9.4-9.4z"/><path fill="#6e7d86" d="M124.8 148.2 80.3 81.4 99 155.3z"/><path fill="#42343c" d="M142.4 109.6V97.9l-3.5 7z"/><path fill="#796d69" d="M143.6 137.7H161v-8.2z"/><path fill="#ad9589" d="M217.4 145.9 236 140l5.9 7z"/><path fill="#fefffe" d="M182.2 44 174 15.7l30.5 34z"/><path fill="#8896a1" d="M78 88.5 76.7 113 58 59z"/><path fill="#392222" d="M161.1 107.2 150.6 98h4.7z"/><path fill="#a5938e" d="m145.9 122.5 21-10.6-33.9 4.7z"/><path fill="#857975" d="m190.4 86.1-11.7 16.4-5.8-5.8z"/><path fill="#d8d5d8" d="m253.7 128.3 1.2 18.8-15.3 5.8z"/><path fill="#a3a2aa" d="m281.8 106 20-7 8.2 8.2z"/><path fill="#7a717f" d="m279.5 213.9 7-103.2 31.7 17.6z"/><path fill="#9c8b88" d="m157.6 78-3.5 18.7 14 17.6z"/><path fill="#635963" d="m250.2 117.8 12.9 24.6-3.5-21.1z"/><path fill="#34272e" d="m153 100.2 3.4 3.5-7 8.2z"/><path fill="#dacacb" d="m181 88.5-3.5 1.1 7 2.4z"/><path fill="#fff" d="M284.2 101.4 254.9 79l19.9 28.1z"/><path fill="#94a5b1" d="M128.3 72 86.1 14.7l21.1-1.1z"/><path fill="#a2a0a9" d="m89.6 67.4 7 18.7-2.3-25.7z"/><path fill="#b6abaf" d="m147 95.5-21-8.2 1.1 14z"/><path fill="#8c9da5" d="m103.7 160-24.6-48 7 33.9z"/><path fill="#bdbcb7" d="m167 100.2 9.4 2.3-10.6 7z"/><path fill="#998c8c" d="m151.8 49.8-2.4-18.7-7 27z"/><path fill="#dfe4e8" d="M212.7 96.7 225.6 86l-20-24.6z"/><path fill="#6b5c62" d="m126 184.6 62 21-22.2-56.2z"/><path fill="#8096a7" d="m144.7 8.8 49.2 3.5 8.2-23.4z"/><path fill="#bdafb0" d="m251.4 155.3-29.3-7 7 8.1z"/><path fill="#a9938a" d="m213.9 127.1 21-9.3-24.5-13z"/><path fill="#6f5f69" d="m101.4 73.2 2.3-5.8-16.4 9.4z"/><path fill="#a59896" d="m142.4 137.7 17.6 9.4-1.2 8.2z"/><path d="m178.7 108.4 1.2 2.3-1.2 3.6z"/><path fill="#cfc9cc" d="m164.6 114.3-4.6 16.4 18.7-8.2z"/><path fill="#677784" d="m63.9 204.5-37.5-39.9-11.8-56.2z"/><path fill="#a2b1bc" d="m209.2 41.6-4.7-59.8h41z"/><path fill="#3f2f30" d="m210.4 117.8-7 17.6L215 140z"/><path fill="#b5a6b2" d="m100.2 73.2-9.4 15.3L112 69.7z"/><path fill="#758891" d="m87.3-17-4.7 37.5 16.4 34z"/><path fill="#a59ea0" d="m183.4 135.4 16.4-9.4-34 4.7z"/><path fill="#c1bec1" d="m108.4 99 37.5 14-27 14.1z"/><path fill="#602a38" d="m114.3 81.4-2.4 7 8.2-1.1z"/><path fill="#cfc7c1" d="m239.6 82.6 27 22.3-45.7-17.6z"/><path fill="#fbfcff" d="m168.2 20.5 3.5 11.7 21-10.5z"/><path fill="#c4bbb6" d="m151.8 74.4-15.3-8.2 39.9-17.6z"/><path fill="#6f7b84" d="m73.2 82.6 27 62.1L87.3 41.6z"/><path fill="#584f59" d="m179.9 73.2-1.2-3.5-9.4 5.9z"/><path fill="#c9beb8" d="m140 128.3-9.3 17.6 9.3 1.2z"/><path fill="#7a909e" d="m170.5-6.4 2.4 25.7L154-18.2z"/><path fill="#c4d8e3" d="m267.8 46.3-10.6 15.2 46.9-1.1z"/><path fill="#e4edf5" d="m279.5 99-18.8-22.2 56.3 23.4z"/><path fill="#6f7f88" d="M134.2 13.5 94.3-12.3 88.5 2.9z"/><path fill="#35292f" d="m183.4 81.4-3.5 1.2 4.7-5.8z"/><path fill="#777c8b" d="m150.6 109.6 1.2-7-4.7 3.5z"/><path fill="#717f8a" d="m110.7 109.6 1.2 43.3-16.4 2.4z"/><path fill="#95a4b2" d="m240.8-18.2-51.5 47 27-44.6z"/><path fill="#818e99" d="M142.4 108.4v-7l4.7 3.5z"/><path fill="#7c5b69" d="m101.4 80.3 7-4.7-1.2 11.7z"/><path fill="#596268" d="m56.8 4.1 15.3-18.7L87.3 24z"/><path fill="#b8a9a8" d="m181 68.6 7 10.5 10.6-14z"/><path fill="#cad4dd" d="m315.8 86.1-43.3-10.5 21 14z"/><path fill="#635155" d="M196.3 142.4 160 167l65.6-14z"/><path fill="#c6b4b6" d="m153 94.3 5.8 3.6 1.2 4.6z"/><path fill="#7f6f7b" d="m177.5 52.1-3.5-7 8.2 5.9z"/><path fill="#c3d4d8" d="M209.2 35.7h-18.8l1.2 5.9z"/><path fill="#816269" d="m181 117.8 9.4-3.5-7 5.8z"/><path fill="#97a9b5" d="m17 69.7 30.5-23.4-3.6 106.6z"/><path fill="#73676f" d="M243.2 198.6h-61L297.1 146z"/><path fill="#7d8e99" d="M13.5 81.4-18.2 5.3 3-4.1z"/><path fill="#82746f" d="m160 106 4.6-5.8 6 16.4z"/><path fill="#cbd2da" d="m104.9 87.3 3.5 14-7 14.1z"/><path fill="#616d77" d="M38 1.8 52.2 38 78 53.3z"/><path fill="#d9dcdf" d="m264.3 13.5 53.9-2.4-52.8 37.5z"/><path fill="#c0cad3" d="m263-18.2-5.8 58.6-16.4-4.7z"/><path fill="#8195a5" d="m167 20.5-7-20 8.2 7.1z"/><path fill="#bfb5bd" d="M176.4 55.7 167 85l1.2-30.5z"/><path fill="#4a4951" d="m147 110.7 2.4-9.3-9.4 7z"/><path fill="#807785" d="m310 213.9-41-49.3 45.6 2.4z"/><path fill="#e7f2fa" d="m258.4 48.6-27 15.3 8.2-21.1z"/><path fill="#c8c0bb" d="m220.9 106-16.4-1.1-4.7-18.8z"/><path fill="#a2908d" d="M199.8 109.6h7l-2.3 21z"/><path fill="#726267" d="M157.6 163.5 129.5 147l44.5 48z"/><path fill="#7a6765" d="m212.7 120.1-3.5-5.8-3.5 11.7z"/><path fill="#837775" d="M161.1 74.4v-4.7l8.2 7z"/><path fill="#c3bcbd" d="m190.4 97.9-3.5 7-7-4.7z"/><path fill="#bab2ae" d="m131.8 122.5 18.8-61-16.4-8.2z"/><path fill="#87736e" d="M158.8 88.5 154 72l-4.7 9.3z"/><path fill="#543740" d="m181 104.9-11.7 5.8 11.8 3.6z"/><path fill="#9a929a" d="m174 95.5-12.9 5.9 3.5-16.4z"/><path fill="#bdb7b8" d="m250.2 97.9 2.3 14 7-4.7z"/><path fill="#574446" d="m168.2 163.5-2.4-14-10.5 12.8z"/><path fill="#edf1f5" d="m301.8 52.1 16.4-17.5-41 9.3z"/><path fill="#92a4b1" d="m87.3 161.1-27 28.2 43.4 24.6z"/><path fill="#bdaca3" d="m215 135.4 8.2-10.6 13 31.6z"/><path fill="#9f8881" d="m144.7 96.7 4.7-1.2-9.4-11.7z"/><path fill="#e1e0df" d="m269 109.6-8.3-18.8-21-9.4z"/><path fill="#c2c5cd" d="m253.7 4.1 12.9-22.3 46.9 25.8z"/><path fill="#e5f1f8" d="m318.2 87.3-10.6-17.6-43.3-4.7z"/><path fill="#6c5e63" d="m238.5 158.8-83.2 8.2 90.2 22.3z"/><path fill="#a6b8cc" d="m153 12.3-3.6-8.2-2.3 15.2z"/><path fill="#fefefd" d="M245.5 68.6 221 74.4l29.3 9.4z"/><path fill="#756d70" d="m101.4 181 35.1-24.6-48 4.7z"/><path fill="#bdb0ae" d="m154.1 90.8-16.4-15.2-18.8 4.7z"/><path fill="#9aa9b3" d="m150.6 53.3-11.7-37.5v24.6z"/><path fill="#aa968f" d="m142.4 151.8 7-20h-5.8z"/><path fill="#989da1" d="m127.1 150.6 9.4-3.5-21-24.6z"/><path fill="#718796" d="m130.7 38 8.2-56.2 9.3 23.5z"/><path fill="#82939f" d="m12.3 67.4 4.7 34 12.9 5.8z"/><path fill="#1e090a" d="m170.5 149.4-3.5 1.2 2.3-10.6z"/><path fill="#99a9b4" d="m60.4 163.5 46.8-7-35.1-4.7z"/><path fill="#948c96" d="m263 112 11.8 7 25.8-16.5z"/><path fill="#80757f" d="m308.8 130.7 9.4-17.6-66.8 2.3z"/><path fill="#af9b93" d="m220.9 147 2.3-14 7 27z"/><path fill="#ac9995" d="m133 113 17.6 4.8-22.3 1.1z"/><path fill="#c5d5df" d="M246.7 74.4 242 55.7l21 21z"/><path fill="#82787e" d="m242 163.5 10.5-4.7 7-16.4z"/><path fill="#dcd7da" d="m179.9 44-4.7-4.7-10.6 5.8z"/><path fill="#6f776f" d="m133 70.9-7-5.9 5.8-1.1z"/><path fill="#f2f8fb" d="m189.3 39.3-5.9-3.6 10.5-8.2z"/><path fill="#c1bcbc" d="M202.1 72 201 56.9l-10.6 29.3z"/><path fill="#3f3842" d="m147 104.9 4.8-8.2H147z"/><path fill="#6f8492" d="m39.3 178.7-57.5-95L17 214z"/><path fill="#dfe6f3" d="m155.3 12.3 14 9.4-18.7-5.9z"/><path fill="#cdbfbb" d="m240.8 141.2 18.8 1.2-35.2-16.4z"/><path fill="#dadfe3" d="m190.4 101.4 7 5.8 3.6-28.1z"/><path fill="#918283" d="m185.7 129.5 2.4 3.5-11.7 9.4z"/><path fill="#c9c7cb" d="m135.4 106-18.8 18.8L129.5 99z"/><path fill="#b3a5a1" d="m236.1 122.5 7-10.6-32.7-10.5z"/><path fill="#3b3033" d="M145.9 96.7v4.7H140z"/><path fill="#c1b7b5" d="m181 110.7 9.4-24.6 1.2 11.8z"/><path fill="#91a5b1" d="m89.6 12.3 43.4 55-7-28z"/><path fill="#8699a8" d="M179.9-14.6 192.8.6l-10.6 14z"/><path fill="#c3c3c7" d="M197.5 62.7 188 49.8l-14 21.1z"/><path fill="#bfa7a2" d="m145.9 95.5 4.7-7 2.3 8.2z"/><path fill="#5c4d4b" d="M147 107.2h-4.6l7 4.7z"/><path fill="#4a3336" d="m171.7 140 1.2 13 11.7-9.4z"/><path fill="#74858c" d="m116.6 128.3 9.4 18.8-24.6-4.7z"/><path fill="#d5c6c5" d="m144.7 114.3 13-5.9-7.1 5.9z"/><path fill="#94adba" d="m201 40.4-4.7-14L208 7.6z"/><path fill="#66585c" d="m217.4 178.7-1.2-32.8 10.6 10.5z"/><path fill="#533f40" d="m174 156.4 8.2-17.5 18.8-9.4z"/><path fill="#667884" d="m.6 48.6 35.1 110.2-36.3-55z"/><path fill="#8f8179" d="m128.3 143.6 1.2-8.2 3.5-1.2z"/><path fill="#fff" d="m232.6 37-16.4-2.4 8.2 43.3z"/><path fill="#c8c5c8" d="m161.1 63.9 2.4-17.6-8.2 15.2z"/><path fill="#cfd0d1" d="m195.1 86.1 21.1 13-11.7-34z"/><path fill="#7a646d" d="m156.4 51-8.2-7 5.9 10.5z"/><path fill="#d2d2d8" d="m184.6 110.7-1.2-7 16.4 8.2z"/><path fill="#675b62" d="m99 185.7 29.3 11.8-3.5-31.7z"/><path fill="#81939f" d="M46.3 148.2 45 164.6 27.5 126z"/><path fill="#725c60" d="m120.1 75.6 1.2-8.2L127 79z"/><path fill="#c2cfdd" d="m182.2 15.8 7 1.2-7 1.2z"/><path fill="#86959f" d="m29.9 3 25.8 46.8-35.2-34z"/><path fill="#7a7c85" d="m143.6 103.7 10.5 4.7-11.7-1.2z"/><path fill="#cac4c9" d="m172.9 127.1 7-8.2-16.4-2.3z"/><path fill="#efecf9" d="m160 31-2.4-5.8 13 9.4z"/><path fill="#94767e" d="M123.6 81.4 112 72.1l-10.5 7z"/><path fill="#a79c99" d="m156.4 137.7-9.3 4.7 15.2-14z"/><path fill="#96807f" d="m181 138.9-11.7-7 1.2 4.6z"/><path fill="#8c9ea7" d="m90.8 130.7-11.7-8.2-4.7-22.3z"/><path fill="#9d8d95" d="M148.2 27.5 146 42.8l5.9 5.8z"/><path fill="#8999a5" d="M136.5 54.5 119 15.8 89.6 10z"/><path fill="#4b5861" d="m58 32.2-5.9-50.4H34.6z"/><path fill="#bbafb6" d="m167 39.3 5.9-5.9h-3.6z"/><path fill="#5c5153" d="m161.1 131.8-4.7 4.7 10.6-5.8z"/><path fill="#b7a7ae" d="m181 113 7 1.3-7 2.3z"/><path fill="#63727c" d="m109.6 1.8 35.1-8.2L133 15.8z"/><path fill="#d5cfcb" d="m233.8 89.6-11.7 7 19.9 10.6z"/><path fill="#beaea9" d="m235 160-7-20 10.5 5.9z"/><path fill="#768c9d" d="m150.6 10 95-28.2h-89.2z"/><path fill="#bbc0c5" d="m129.5 133-17.6-9.4 11.7-23.4z"/><path fill="#74666e" d="M271.3 158.8h-44.5l5.8 21z"/><path fill="#bdaab4" d="m154.1 47.5 5.9-13h-9.4z"/><path fill="#9e8a82" d="m181 95.5 7-5.9 2.4-14z"/><path fill="#b7afae" d="m190.4 67.4-5.8 14L199.8 65z"/><path fill="#bbb2b3" d="m147 157.6 10.6-1.2-10.5-10.5z"/><path fill="#91a3af" d="m31 122.5 4.7-100.8-22.2 44.5z"/><path fill="#c7b8b3" d="m153 124.8 2.3-7 16.4-2.4z"/><path fill="#1b3247" d="m175.2 79.1 4.7 1.2-7-5.9z"/><path fill="#79696d" d="m198.6 182.2-4.7-14-16.4 12.9z"/><path fill="#76838c" d="m82.6 49.8 11.7 31.6-8.2 8.2z"/><path fill="#a29495" d="m253.7 104.9 10.6 9.4 2.3-3.6z"/><path fill="#a4b2bc" d="m103.7 46.3 7 16.4H140z"/><path fill="#a19495" d="m115.4 102.5 8.2 2.4-14-11.7z"/><path fill="#362e37" d="m182.2 82.6-4.7 4.7 1.2-4.7z"/><path fill="#a5b6bf" d="m85 148.2-22.3-18.7L61.5 85z"/><path fill="#a89692" d="m155.3 68.6 8.2 23.4-13-17.6z"/><path fill="#9ca9b3" d="M95.5 80.3 92 93.2l10.5-10.6z"/><path fill="#5d6f7a" d="m1.8 60.4-20 3.5 30.5 37.5z"/><path fill="#946775" d="M176.4 109.6v4.7L174 113z"/><path fill="#b4aeb5" d="m179.9 133 3.5-9.4-16.4 5.9z"/><path fill="#6e7c8d" d="m182.2 81.4-7 3.6 2.3-10.6z"/><path fill="#fff" d="M233.8 74.4 263 92l-8.2-14z"/><path fill="#65737a" d="M96.7 60.4 79 45l6-30.4z"/><path fill="#a59897" d="m252.5 140-7-9.3-2.3 2.3z"/><path fill="#9ca09e" d="m124.8 59.2-1.2 5.8 8.2 7z"/><path fill="#a5939d" d="m103.7 72 9.4-4.6 10.5 5.8z"/><path fill="#767f8e" d="m177.5 83.8-3.5-1.2-1.1-7z"/><path fill="#776a6d" d="m182.2 95.5-4.7 7L174 92z"/><path fill="#7e8e99" d="m142.4 47.5-54-48 36.4 16.3z"/><path fill="#f9fafa" d="m181 32.2 8.3-9.3-27-3.6z"/><path fill="#7a6f7a" d="m269 124.8 21-8.2 10.6 38.7z"/><path fill="#8c9fab" d="m147 14.6-7 28.2-4.6-17.6z"/><path fill="#77635d" d="M148.2 76.8 153 79v4.7z"/><path fill="#af9d96" d="M143.6 70.9 154 86.1h-9.4z"/><path fill="#b7aeaf" d="m189.3 134.2 14-15.3h-8.2z"/><path fill="#717f87" d="m112 115.4-13 39.9-9.4-36.4z"/><path fill="#663743" d="m121.3 86.1-8.2 1.2 5.8-3.5z"/><path fill="#9fb2c7" d="m157.6 8.8 9.4 7-20-4.7z"/><path fill="#c0b9ba" d="m168.2 82.6-8.2 4.7V74.4z"/><path fill="#d0e1ed" d="m232.6 69.7 9.4-17.6 15.2 8.3z"/><path fill="#95a9b7" d="m205.7 4.1 5.8 12.9-18.7 18.7z"/><path fill="#c3baba" d="m128.3 78 5.9 12.8 5.8-22.2z"/><path fill="#aab9c4" d="m215 32.2 17.6-38.6-1.2 37.5z"/><path fill="#d8dee8" d="m247.9 115.4-6-8.2 8.3-1.1z"/><path fill="#baa9a0" d="m219.7 97.9-12.9 12.8-7-2.3z"/><path fill="#8d9ea8" d="m107.2 62.7-10.5-27L99 60.4z"/><path fill="#aca4ab" d="m163.5 27.5-5.9-9.3 9.4 8.2z"/><path fill="#ebe9f0" d="m169.3 28.7-4.7 8.2h3.6z"/><path fill="#6a5d64" d="m153 158.8-6 55-16.3-44.5z"/><path fill="#908687" d="m158.8 99-5.9-7 16.4 8.2z"/><path fill="#69767d" d="m75.6 79.1 21 27-5.8 12.8z"/><path fill="#c0b6b4" d="M158.8 76.8 148.2 52l9.4 8.3z"/><path fill="#24181c" d="m179.9 112-2.4-7.1 2.4 2.3z"/><path fill="#d4d6d6" d="m210.4 70.9-25.8-21.1 17.5 5.9z"/><path fill="#d4d0d2" d="m145.9 122.5-7 8.2-2.4-5.9z"/><path fill="#645856" d="m163.5 130.7-4.7 2.3 2.3 14z"/><path fill="#422e39" d="m184.6 120.1-5.9-9.4-3.5 2.4z"/><path fill="#6d616d" d="m280.7 136.5-28.2 17.6 45.7 2.3z"/><path fill="#cdc0bc" d="m217.4 135.4 19.9-11.8-5.9 11.8z"/><path fill="#a79ba3" d="m178.7 117.8-3.5 10.5 4.7 11.7z"/><path fill="#807479" d="m134.2 157.6-3.5-9.4-14.1 17.6z"/><path fill="#90a1ae" d="M56.8 183.4 39.3 140l58.6 61z"/><path fill="#675661" d="m96.7 75.6 4.7-5.9h-5.9z"/><path fill="#94a6b2" d="m196.3 24 2.3-9.4-9.3 15.3z"/><path fill="#99acb8" d="m26.4 93.2 21 57.4 52.8 30.5z"/><path fill="#7d706e" d="m197.5 127.1 3.5-1.1-5.9 4.7z"/><path fill="#766d74" d="m101.4 201 25.7 12.9-31.6-42.2z"/><path fill="#c5c3c3" d="M245.5 90.8h9.4l-1.2 23.5z"/><path fill="#7f8e97" d="M103.7 157.6 92 131.8l3.5 27z"/><path fill="#e3e2ea" d="M253.7 131.8v4.7l-5.8-7z"/><path fill="#c5c4c7" d="m206.8 80.3-4.7-10.6-10.5 20z"/><path fill="#e2e8eb" d="m226.8 85-9.4 5.8-11.7-9.4z"/><path fill="#795f61" d="m178.7 141.2-1.2-3.5h-8.2z"/><path fill="#a99ca2" d="m162.3 82.6-2.3 18.8 11.7-10.6z"/><path fill="#fff" d="m199.8 47.5 5.9 5.8V34.6z"/><path fill="#817578" d="M106 67.4h14.1l-10.5-4.7z"/><path fill="#63737b" d="M42.8 14.6 38-18.2l-12.9 4.7z"/><path fill="#d1d3dd" d="m254.9 133-1.2 4.7 2.4 3.5z"/><path fill="#7e6968" d="m112 94.3 8.1-4.7 4.7 7z"/><path fill="#aea3a6" d="m129.5 79.1-9.4 27 8.2-7z"/><path fill="#55626c" d="m130.7 4.1-28.2-9.4 30.5-7z"/><path fill="#fffeff" d="m171.7 27.5 16.4-2.3-3.5 20z"/><path fill="#adafb4" d="m141.2 34.6 7-17.6-2.3 29.3z"/><path fill="#a7a39c" d="m141.2 63.9 7 8.2-10.5-7z"/><path fill="#67707a" d="m78 80.3-4.8-62.1-12.8 27z"/><path fill="#b4b1b3" d="m249 157.6-2.3-7 3.5 1.2z"/><path fill="#71838d" d="m14.6-15.8 39.9-2.4-72.7 39.9z"/><path fill="#998880" d="m148.2 137.7-4.6 9.4 2.3-11.7z"/><path fill="#a6938a" d="m147 82.6-7-3.5 7-1.2z"/><path fill="#c3bfc3" d="m178.7 62.7-2.3-10.6-32.8 9.4z"/><path fill="#cfd2d8" d="M308.8 27.5 270 4.1l48 3.5z"/><path fill="#bfb6bc" d="m162.3 62.7 5.9 14 11.7-22.2z"/><path fill="#77818d" d="m69.7 74.4-2.3-17.6-11.7-10.5z"/><path fill="#66565b" d="m196.3 145.9-8.2 31.6-11.7-7z"/><path fill="#cec6c4" d="m246.7 133 4.7-7-11.8-4.7z"/><path fill="#6e787f" d="m68.6 19.3 28 41L76.9 58z"/><path fill="#a69d9b" d="m164.6 106-4.6-8 14 11.7z"/><path fill="#a59795" d="m138.9 151.8 7 4.6-1.2-5.8z"/><path fill="#a08a85" d="m237.3 144.7-3.5-4.7 5.8 3.6z"/><path fill="#cbd7da" d="M170.5 25.2v-5.9l2.4 2.4z"/><path fill="#7e757f" d="m259.6 135.4-2.4 10.5 4.7 3.5z"/><path fill="#c4b7b1" d="M239.6 87.3h-14l-2.4 4.7z"/><path fill="#d7e3e9" d="m259.6 61.5-1.2 22.3 8.2-11.7z"/><path fill="#89808b" d="m304.1 104.9-32.8 11.7 20 1.2z"/><path fill="#d7e3ec" d="m184.6 13.5-2.4 4.7 3.5 1.1z"/><path fill="#8a9eae" d="M206.8 3 189.3-.7 186.9 17z"/><path fill="#c1b7b3" d="m151.8 94.3-9.4-12.9 8.2 5.9z"/><path fill="#687882" d="m39.3 188-3.6-28 30.5 53.9z"/><path fill="#a6999b" d="m126 81.4 2.3 14.1-7 1.2z"/><path fill="#a49eab" d="m103.7 86.1-2.3-5.8-1.2 14z"/><path fill="#ac959c" d="m185.7 115.4-2.3 8.2 7-9.3z"/><path fill="#c3bebf" d="m201 95.5 8.2 7-9.4 4.7z"/><path fill="#73838b" d="m41.6 19.3 12.9 23.5-2.4-14z"/><path fill="#c3b9b7" d="m149.4 121.3-27-3.5 4.7 9.3z"/><path fill="#d6dbe7" d="m160 13.5 1.1 5.8H153z"/><path fill="#c6b2b2" d="m128.3 114.3 11.7 2.3v-7z"/><path fill="#807370" d="m162.3 135.4-8.2-3.6 5.9 8.2z"/><path fill="#71838e" d="M7.6 66.2v20l11.7 17.5z"/><path fill="#818a92" d="m100.2 101.4-4.7 4.7L98 86z"/><path fill="#796e79" d="m286.5 174 2.4 27-41-42.2z"/><path fill="#645d66" d="m104.9 163.5-16.4 1.1 3.5 3.6z"/><path fill="#776a70" d="m238.5 156.4-5.9 4.7 10.6 7z"/><path fill="#b7aeb0" d="m127.1 80.3 17.6 15.2-15.2 3.5z"/><path fill="#6c8293" d="m149.4-13.5-1.2 22.3H133z"/><path fill="#e2eefa" d="m174 20.5 5.9-8.2H174z"/><path fill="#e7f6f9" d="m208 28.7-2.3 1.2v5.8z"/><path fill="#8b8174" d="M162.3 114.3v-3.6l-3.5-1.1z"/><path fill="#787871" d="m145.9 58 2.3-1.2-2.3-8.2z"/><path fill="#958d93" d="m168.2 130.7-2.4 1.1-3.5-2.3z"/><path fill="#758793" d="M54.5 176.4v16.4l-14-34z"/><path fill="#877d89" d="m290 171.7 1.2 15.2 27-4.7z"/><path fill="#8b9da9" d="m4.1 38 42.2-3.4L11 67.4z"/><path fill="#2f0f13" d="M174 114.3h-4.7l4.7-3.6z"/><path fill="#574444" d="m201 127.1 19.9 27-29.3-14z"/><path fill="#bfc0cd" d="m167 38-21.1-17.5 12.9 21.1z"/><path fill="#493536" d="m151.8 108.4-10.6 1.2 5.9 1.1z"/><path fill="#bbb7bc" d="m251.4 122.5-7 1.1-9.4-21z"/><path fill="#d4c9c6" d="M157.6 109.6H153l-4.7 4.7z"/><path fill="#d5e2ea" d="m286.5 79.1 4.7 23.4-12.9-9.3z"/><path fill="#6b5553" d="m162.3 149.4 8.2 11.7-2.3-8.2z"/><path fill="#a29698" d="m188 95.5 2.4 3.5-7-4.7z"/><path fill="#baaaa6" d="m147 130.7-10.5 3.5 7 4.7z"/><path fill="#d5d3d5" d="m253.7 145.9-9.4 10.5v-15.2z"/><path fill="#615662" d="M266.6 145.9v-15.2L253.7 120z"/><path fill="#cabebe" d="m143.6 112-28.2 2.3 20-8.2z"/><path fill="#28181b" d="M205.7 129.5h4.7V126z"/><path fill="#888994" d="m100.2 75.6-11.7-2.4 7 5.9z"/><path fill="#c8bebf" d="m151.8 124.8-10.6 7L153 133z"/><path fill="#8398a5" d="m172.9 17-3.6-9.4L174-.6z"/><path fill="#544046" d="M158.8 158.8 181 161l-3.6-9.3z"/><path fill="#8f9faa" d="M92 25.2 90.8 7.6l37.5 23.5z"/><path fill="#3d2628" d="m181 73.2 2.4 2.4v-2.4z"/><path fill="#f6f0f1" d="m260.7 93.2 17.6 12.9-8.2 2.3z"/><path fill="#c1b7b2" d="m136.5 135.4 10.6 17.5-15.3-11.7z"/><path fill="#2f1b1b" d="m170.5 141.2-1.2 10.6-8.2-8.2z"/><path fill="#8c807b" d="m147 93.2-4.6-4.7 2.3 5.8z"/><path fill="#afb5b6" d="m137.7 66.2-10.6-4.7L146 48.6z"/><path fill="#c8c4cc" d="m190.4 112 2.4 12.8 7-17.6z"/><path fill="#ae626c" d="m170.5 47.5-7 3.5 2.3-3.5z"/><path fill="#89746d" d="m165.8 110.7-1.2-5.8-9.3 1.2z"/><path fill="#5e6771" d="M51 27.5 66.2-5.3 62.7 37z"/><path fill="#4d4d56" d="M169.3 83.8V79l5.9-3.5z"/><path fill="#fcfcfd" d="m205.7 44 10.5 34 4.7-43.4z"/><path fill="#231b25" d="m178.7 86.1 2.4-2.3-4.7 2.3z"/><path fill="#b5bbc7" d="m95.5 82.6 3.5-3.5-3.5-1.2z"/><path fill="#c7a2aa" d="m170.5 44-5.9 1.1-4.6 7z"/><path fill="#798b97" d="m137.7 33.4-1.2 21-8.2-31.5z"/><path fill="#e7f0f7" d="m225.6 33.4 15.2 18.7 22.3 2.4z"/><path fill="#78858f" d="m119 127.1-10.6 23.5 3.5-25.8z"/><path fill="#74585c" d="m114.3 94.3-2.4-9.3 9.4 11.7z"/><path fill="#7b7b87" d="m175.2 85 3.5-1.2-4.7-3.5z"/><path fill="#5d4c49" d="m165.8 136.5 2.4-1.1-2.4 7z"/><path fill="#f2f0f5" d="m163.5 34.6 1.1-3.5 6 1.1z"/><path fill="#a39ea6" d="m270.1 108.4 14-1.2-10.5 5.9z"/><path fill="#2e2026" d="m154.1 99 2.3 3.5-4.6 5.9z"/><path fill="#c6bfc4" d="m158.8 129.5 11.7-12.9 8.2 1.2z"/><path fill="#b59e9a" d="m223.2 116.6 5.9 12.9 5.9-17.6z"/><path fill="#91a7b4" d="m135.4 55.7-20 2.3 7-11.7z"/><path fill="#e8f1f8" d="M295.9 99h17.6l-32.8-11.7z"/><path fill="#74858f" d="M129.5 18.2 89.6-18.2h-41z"/><path fill="#202f41" d="m176.4 79.1-3.5-2.3 4.6 1.1z"/><path fill="#9da0a9" d="M124.8 137.7v12.9l4.7 2.3z"/><path fill="#d2e2ec" d="m279.5 48.6 38.7 13-24.6 9.3z"/><path fill="#e2e5e9" d="m287.7 26.4 30.5 14-49.3 3.5z"/><path fill="#8e818b" d="M104.9 63.9 99 73.2l14-5.8z"/><path fill="#737783" d="m174 79.1-2.3-1.2 1.2 2.4z"/><path fill="#ccd5dc" d="m251.4 26.4 11.7 21 9.4-39.8z"/><path fill="#deecf4" d="m176.4 18.2 3.5-7L181 17z"/><path fill="#b6c0c8" d="m245.5-8.8-16.4 27 54-29.3z"/><path fill="#897a7b" d="m209.2 117.8-7 12.9v-8.2z"/><path fill="#8b7f7b" d="M156.4 138.9 153 140l2.4-9.3z"/><path fill="#bdced5" d="m253.7 76.8-4.7-8.2 9.4 3.5z"/><path fill="#7e858e" d="M144.7 106v-5.8l-2.3 5.9z"/><path fill="#9f8c84" d="m217.4 144.7 8.2 1.2-1.2-2.3z"/><path fill="#806c7a" d="m102.5 80.3 3.6 7 1.1-2.3z"/><path fill="#7c7277" d="M108.4 174v-11.7l-11.7 15.2z"/><path fill="#7c7078" d="M262 185.7 245.4 214v-23.5z"/><path fill="#949c9f" d="m154.1 56.8-9.4-11.7h-7z"/><path fill="#9f8c8a" d="m175.2 99-20-11.7-5.8 5.9z"/><path fill="#99a7b3" d="m112 107.2-6 5.9h-5.8z"/><path fill="#afa8a8" d="M203.3 65h-12.9l-5.8 7z"/><path fill="#aea3a3" d="m197.5 127.1-18.8 2.4 14 2.3z"/><path fill="#858492" d="M151.8 107.2v-4.7l-2.4-1.1z"/><path fill="#aab4c0" d="m123.6 129.5-8.2-4.7 11.7 11.7z"/><path fill="#7c6873" d="m114.3 72-9.4 11.8-1.2-5.9z"/><path fill="#221017" d="m178.7 113-1.2 2.4-5.8-1.1z"/><path fill="#6d808e" d="m-18.2 116.6 63.3 79.7-34-86.7z"/><path fill="#94a6b2" d="m102.5 204.5-7-29.3-46.9-27z"/><path fill="#9aa9ac" d="m185.7 48.6-2.3 4.7-2.3-4.7z"/><path fill="#9aaab4" d="m42.8 65 31.6 37.5-21-45.7z"/><path fill="#72646b" d="m147 157.6-5.8 8.2 1.2 15.3z"/><path fill="#d9e5ea" d="m196.3 34.6-7 5.8h7z"/><path fill="#e8f2f3" d="m250.2 79.1-2.3-8.2-6-3.5z"/><path fill="#d1c4c1" d="m243.2 155.3 1.1-16.4-4.7 10.5z"/><path fill="#b1919a" d="m161.1 52.1-3.5-8.2-3.5 3.6z"/><path fill="#746874" d="m286.5 145.9-42.2 30.5 56.3-21.1z"/><path fill="#ac959a" d="m114.3 74.4-3.6 1.2-2.3 8.2z"/><path fill="#f8faf9" d="m222 48.6-39.8-2.3 17.6-7z"/><path fill="#cbb" d="m181 92-1.1-3.5 2.3-1.2z"/><path fill="#736672" d="m262 117.8 16.3 10.5-11.7 7z"/><path fill="#ab818e" d="m177.5 112-1.1-1.3-3.5 1.2z"/><path fill="#ccc7cf" d="m171.7 129.5-4.7-8.2 10.5-1.2z"/><path fill="#83797d" d="m260.7 110.7-12.8 5.9 12.8-1.2z"/><path fill="#6e7d85" d="m81.4 12.3 9.4 22.3-4.7-41z"/><path fill="#c1babf" d="m184.6 127.1-5.9 2.4 2.4-5.9z"/><path fill="#73646a" d="m210.4 213.9 28-29.3-90.2 9.3z"/><path fill="#a2999a" d="m129.5 78-7 5.8 8.2-11.7z"/><path fill="#cdc7cc" d="m191.6 100.2-2.3 12.9-7-4.7z"/><path fill="#dcd4cf" d="m237.3 81.4-14 4.7 10.5 2.4z"/><path fill="#baa9a2" d="m238.5 154.1-16.4-4.7 12.9-5.8z"/><path fill="#7d8f98" d="m38 13.5-52.6 14L29.9.5z"/><path fill="#c5c4c5" d="m204.5 67.4-11.7-5.9-7-12.9z"/><path fill="#bfb4ab" d="m220.9 136.5-2.3 8.2-1.2-15.2z"/><path fill="#755b62" d="m154.1 51-1.2-4.7-3.5 5.8z"/><path fill="#180a0a" d="m161.1 143.6 3.5-4.7 4.7 2.3z"/><path fill="#d6d5da" d="m175.2 38 5.9 6-8.2 1.1z"/><path fill="#e4ebf0" d="m277.1 89.6-1.1-14h-24.6z"/><path fill="#776971" d="m157.6 178.7 9.4 1.2-14-13z"/><path fill="#7a6866" d="m126 68.6-10.6-2.4 13 7z"/><path fill="#9ba8be" d="M148.2-14.6 151.8 4l-5.9-9.4z"/><path fill="#a9958c" d="m223.2 124.8-9.3-5.9-1.2-12.8z"/><path fill="#cccddd" d="m147 20.5 6 5.9 2.3-10.6z"/><path fill="#8da8b4" d="m196.3 27.5 9.4 1.2-13 4.7z"/><path fill="#5f6b71" d="M87.3 41.6 66.3 10l16.3-1.2z"/><path fill="#cddae1" d="M288.9 85 283 74.4l-12.9-1.2z"/><path fill="#755d61" d="m120.1 73.2-5.8 4.7 14-4.7z"/><path fill="#8399a8" d="m143.6 13.5 5.8 2.3-4.7-10.5z"/><path fill="#695c65" d="m251.4 156.4 9.3-10.5 15.3-3.5z"/><path fill="#726f7c" d="m148.2 99 4.7 4.7-2.3 1.2z"/><path fill="#b9a8b2" d="M115.4 69.7h-5.8l-7 5.9z"/><path fill="#c5bebb" d="m157.6 122.5 13-7-1.3 5.8z"/><path fill="#b29e97" d="m232.6 136.5 9.4 9.4-3.5 1.2z"/><path fill="#b7afb0" d="m155.3 121.3-5.9 1.2 12.9 7z"/><path fill="#dadce1" d="m216.2 79.1-9.4-5.9 2.4 18.8z"/><path fill="#eaedf3" d="m218.6 89.6-8.2-22.2 14 11.7z"/><path fill="#73848f" d="m21.7 115.4-5.9-18.7 7 5.8z"/><path fill="#48393a" d="m213.9 134.2 1.1 11.7-11.7-11.7z"/><path fill="#989191" d="m121.3 102.5-10.6-11.7 4.7 9.4z"/><path fill="#99acb9" d="m99 22.9 1.2 21 27 18.8z"/><path fill="#897f87" d="m150.6 46.3-3.5-5.9 1.1-8.2z"/><path fill="#a29097" d="m178.7 93.2 1.2-3.6-3.5-1.1z"/><path fill="#bac8d0" d="m245.5 5.3-5.9 28.1 11.8 2.3z"/><path fill="#8fa4b0" d="m137.7 32.2 7 18.8-1.1-30.5z"/><path fill="#c4bbb8" d="m182.2 76.8 10.6-2.4-2.4-2.3z"/><path fill="#c9c4c6" d="m228 107.2 16.3 2.4-10.5-5.9z"/><path fill="#8d8887" d="m179.9 102.5 1.2-5.8-9.4 10.5z"/><path fill="#9e9495" d="m158.8 150.6-5.9 3.5v-9.4z"/><path fill="#63545b" d="m150.6 158.8-5.9 4.7-1.1 11.7z"/><path fill="#aaa2a6" d="M115.4 62.7H93.2l9.3-3.5z"/><path fill="#ae9b98" d="m243.2 121.3-14.1-2.4-2.3-7z"/><path fill="#9eb2bf" d="m222 28.7-14-14 2.4 21z"/><path fill="#929fa8" d="m94.3 94.3 1.2-8.2-3.5 1.2z"/><path fill="#7c737e" d="m288.9 123.6 9.3 50.4 20-65.6z"/><path fill="#66565c" d="m190.4 157.6 34 4.7-5.8-15.2z"/><path fill="#acb8ca" d="m167 20.5-7-8.2 2.3-2.3z"/><path fill="#64555a" d="m126 213.9 39.8-16.4-50.4-5.9z"/><path fill="#c2bab6" d="m136.5 69.7 13 8.2-17.7-4.7z"/><path fill="#beb6b5" d="m144.7 60.4 1.2 9.3h32.8z"/><path fill="#85909b" d="M88.5 17 86 8.8 99 .6z"/><path fill="#d2dddb" d="m206.8 41.6 7-5.9H208z"/><path fill="#858a94" d="m120.1 153-15.2 5.8 5.8-8.2z"/><path fill="#8d7a75" d="m155.3 78-2.4-6v13z"/><path fill="#9f8689" d="m120.1 92 1.2 1.2-5.9 1.1z"/><path fill="#6b5d65" d="m161.1 154.1-19.9 37.5h-17.6z"/><path fill="#bba5a0" d="m153 95.5-6-1.2 2.4-3.5z"/><path fill="#82949e" d="M40.4 25.2 30 11.2l-48 24.5z"/><path fill="#c5c9ce" d="M122.5 127.1v-12.8l-5.9-2.4z"/><path fill="#3f2a31" d="m170.5 153 1.2-4.8 3.5 8.2z"/><path fill="#696163" d="m144.7 109.6 2.4-2.4 3.5 2.4z"/><path fill="#b29fa3" d="m109.6 83.8 5.8-4.7h-4.7z"/><path fill="#e0ecf6" d="m283 72-28-7 30.5-1.1z"/><path fill="#beb6b4" d="m195.1 86.1-4.7 4.7 1.2-5.8z"/><path fill="#d7d2cd" d="m205.7 94.3 12.9-1.1-7 5.8z"/><path fill="#7b8d97" d="M81.4 108.4h-4.6l1.1-14z"/><path fill="#bdbab6" d="m172.9 101.4-6 2.3 3.6-3.5z"/><path fill="#b7c1cc" d="m115.4 103.7-7-2.3-5.9 9.3z"/><path fill="#817379" d="m136.5 160-5.8 2.3 3.5-9.4z"/><path fill="#c2b5aa" d="m213.9 102.5 8.2 1.2-1.2-12.9z"/><path fill="#6a554a" d="m149.4 79.1 2.4 1.2-2.4-3.5z"/><path fill="#8598a4" d="m65 198.6-12.9-23.4 10.6 10.5z"/><path fill="#8f8d8d" d="M121.3 142.4 133 133l-3.5 9.4z"/><path fill="#c2b9bc" d="m164.6 80.3-8.2-11.7 3.6 14z"/><path fill="#453b3b" d="m158.8 134.2 1.2 1.2 2.3-3.6z"/><path fill="#938885" d="M160 133v2.4l-8.2-2.4z"/><path fill="#a98b92" d="m158.8 51 1.2-3.5-7 1.1z"/><path fill="#96a7b1" d="m67.4 99 10.5 9.4 3.5 17.6z"/><path fill="#d7e4f1" d="m191.6 20.5-1.2 3.5-5.8-5.8z"/><path fill="#b9b4bf" d="m145.9 27.5 2.3-3.5 10.6 11.7z"/><path fill="#7d8d99" d="m22.9 116.6 9.3 11.7-8.2-22.2z"/><path fill="#b09f96" d="M215 122.5v7l5.9 1.2z"/><path fill="#726e78" d="M258.4 136.5v-7l-3.5-4.7z"/><path fill="#a7948f" d="m158.8 114.3-15.2 7-1.2-5.9z"/><path fill="#cacacc" d="m256 94.3-4.6 2.4 14 10.5z"/><path fill="#bcb7bd" d="m250.2 138.9 7 4.7-7-8.2z"/><path fill="#c8c4d8" d="m151.8 26.4 9.3-1.2-7 5.9z"/><path fill="#9fb3be" d="M114.3 126v-10.6l3.5 10.6z"/><path fill="#f8fbfe" d="m229.1 79.1 3.5-38.7 5.9 16.4z"/><path fill="#72656c" d="m107.2 169.3 24.6 14.1-2.3 8.2z"/><path fill="#d5dce4" d="m106 97.9-3.5-4.7 1.2 14z"/><path fill="#8b9eaf" d="m189.3 20.5 8.2-5.9 1.1-12.8z"/><path fill="#98867f" d="M223.2 127.1 214 119v5.9z"/><path fill="#f9fafc" d="m172.9 27.5 10.5 15.3-8.2-28.2z"/><path fill="#788090" d="m175.2 72 3.5 2.4V78z"/><path fill="#565d64" d="m78 15.8-17.6-34L77.9-1.8z"/><path fill="#665554" d="m198.6 134.2 2.4 1.2 3.5-6z"/><path fill="#ebf4f6" d="m169.3 18.2-2.3 8.2 5.9-2.4z"/><path fill="#f5fcff" d="m158.8 17-2.4 1.2 1.2-2.4z"/><path fill="#4e484e" d="M174 72h2.4l-4.7 4.8z"/><path fill="#787e8b" d="m175.2 72 3.5 4.8-3.5-1.2z"/><path fill="#717d85" d="M97.9 97.9 94.3 120l-5.8-30.5z"/><path fill="#a89a95" d="m127.1 144.7 3.6-4.7 3.5 9.4z"/><path fill="#9eb0bb" d="M69.7 149.4 49.8 69.7l-14 38.7z"/><path fill="#aa9a97" d="m195.1 127.1 11.7-22.2-2.3 17.6z"/><path fill="#737c86" d="m75.6 49.8 5.8 9.4h20z"/><path fill="#9cadb6" d="m81.4 157.6 13 1.2-13-28.1z"/><path fill="#5d535f" d="m259.6 133-4.7-10.5 10.5 10.5z"/><path fill="#fefefe" d="m242 76.8 36.3 29.3-8.2-17.6z"/><path fill="#96a8b4" d="m28.7 108.4-7-34L52 52.1z"/><path fill="#a3a2a8" d="m252.5 114.3-2.3-1.2-1.2 3.5z"/><path fill="#b89ea7" d="m150.6 45.1 14 2.4-1.1-5.9z"/><path fill="#7b8b9d" d="m149.4-18.2 4.7 30.5 3.5-28.1z"/><path fill="#c3c3c4" d="M199.8 103.7v-9.4l8.2 1.2z"/><path fill="#a6a1a2" d="m119 63.9 2.3-2.4 7 7z"/><path fill="#758590" d="M-18.2 27.5 8.8 71l-14-49.2z"/><path fill="#dfe7f0" d="m237.3 35.7 3.5 10.6-11.7-11.7z"/><path fill="#c6d7e1" d="M254.9 61.5 272.5 51l9.3 7z"/><path fill="#836066" d="M183.4 121.3h-3.5l5.8-4.7z"/><path fill="#b3a49b" d="m143.6 87.3-2.4-9.4h-4.7z"/><path fill="#38363c" d="m145.9 96.7 1.2 8.2 1.1-7z"/><path fill="#c2d4e2" d="m243.2 60.4 7 7-11.7-2.4z"/><path fill="#c1b7b9" d="m158.8 153-9.4 3.4-1.2-3.5z"/><path fill="#8b7b7a" d="m145.9 157.6-2.3 4.7v-10.5z"/><path fill="#b9b1b6" d="M246.7 156.4h-18.8l7-4.6z"/><path fill="#afa4a7" d="m188 97.9-2.3-4.7v10.5z"/><path fill="#ceced0" d="M190.4 86.1h18.8L205.7 71z"/><path fill="#737e88" d="m61.5 49.8-8.2-16.4v9.4z"/><path fill="#eceef0" d="m195.1 51 17.6 16.4-1.2-8.2z"/><path fill="#af9e93" d="m225.6 106-9.4-1.1 2.4 2.3z"/><path fill="#bbadac" d="m145.9 95.5-14 1.2 1.1-8.2z"/><path fill="#d1d9e1" d="m178.7 12.3-2.3 7-1.2-2.3z"/><path fill="#8f8792" d="m314.6 101.4-17.5 8.2-1.2-7z"/><path fill="#887483" d="m103.7 78 3.5 10.5-4.7-7z"/><path fill="#b5a8a7" d="m133 110.7-1.2 9.4 5.9-8.2z"/><path fill="#3a2b2e" d="m205.7 134.2 7-4.7-1.2 7z"/><path fill="#8c5d68" d="m172.9 109.6 2.3 2.3 1.2-1.2z"/><path fill="#806e76" d="m177.5 51 1.2 2.3v-3.5z"/><path fill="#96807b" d="m209.2 110.7-5.9 5.9 8.2-2.3z"/><path fill="#9e918c" d="m144.7 75.6 7-4.7-7 1.2z"/><path fill="#a5b4c3" d="M149.4 4.1 147.1 17l3.5-3.5z"/><path fill="#a39491" d="m148.2 58 4.7-4.7h3.5z"/><path fill="#928682" d="m155.3 137.7 1.1 2.3-4.6 3.6z"/><path fill="#b6b2ac" d="M138.9 51 154 75.6l-15.2-11.7z"/><path fill="#a49aa1" d="m171.7 97.9-7-4.7 5.8-4.7z"/><path fill="#e2dfe2" d="m272.5 108.4-8.2-3.5-4.7-10.6z"/><path fill="#f8fbfc" d="m175.2 33.4 17.6-12.9-7 12.9z"/><path fill="#675558" d="m172.9 171.7-7-8.2v-17.6z"/><path fill="#bcaea7" d="m150.6 147-4.7-4.6 3.5-2.4z"/><path fill="#80777c" d="m101.4 161.1-3.5 8.2v-10.5z"/><path fill="#b9b3b7" d="m188 96.7-1 10.5 3.4-3.5z"/><path fill="#828e97" d="m56.8 44-8.2-8.3L58 59.2z"/><path fill="#6b7e8c" d="M131.8 17V4l27-14z"/><path fill="#6d656a" d="m115.4 163.5-19.9 1.1 15.2-7z"/><path fill="#d2d4da" d="m190.4 104.9 5.9 11.7 1.2-11.7z"/><path fill="#4e3939" d="m205.7 129.5 2.3 7-8.2 4.7z"/><path fill="#4f3a3c" d="m179.9 154.1-5.9-5.9-1.1-8.2z"/><path fill="#c2bdc4" d="m137.7 99-14 2.4 8.1 8.2z"/><path fill="#74828b" d="m104.9 114.3 5.8 37.5 11.8-10.6z"/><path fill="#dbe0e3" d="m318.2 34.6-51.6-4.7 18.8-10.6z"/><path fill="#584849" d="m199.8 149.4 15.2-12.9-4.6 10.6z"/><path fill="#70636c" d="m269 213.9-1.2-34-7 16.4z"/><path fill="#6c5d60" d="m150.6 162.3-12.9-3.5-2.3-8.2z"/><path fill="#e1e5e9" d="m198.6 100.2-2.3 7-2.4-14z"/><path fill="#6c5d61" d="m219.7 151.8-28.1 35.1 18.8 1.2z"/><path fill="#cebaba" d="m134.2 108.4 4.7 7h11.7z"/><path fill="#b0a6ac" d="m249 122.5 2.4-1.2-1.2-8.2z"/><path fill="#a9c2cd" d="m168.2 14.6 3.5-1.1-2.4 3.5z"/><path fill="#634e51" d="M189.3 143.6 202 140l-17.5 25.8z"/><path fill="#92abb9" d="m191.6 35.7 8.2-14 4.7 9.4z"/><path fill="#937473" d="m147 96.7 2.4-1.2H146z"/><path fill="#8798a4" d="m89.6 7.6 39.9 31.7-7-17.6z"/><path fill="#c2bfc3" d="m167 123.6-4.7 5.9-16.4-2.4z"/><path fill="#ebf2fa" d="m172.9 20.5 3.5-2.3-1.2-7z"/><path fill="#b5a5a3" d="m229.1 154.1-8.2-5.9 18.7 4.7z"/><path fill="#66717a" d="m63.9 26.4 2.3 37.5 14 10.5z"/><path fill="#281719" d="m211.5 127.1-3.5 1.2-1.2-2.3z"/><path fill="#60727e" d="m-4.1 48.6 17.6 48L-18.2 65z"/><path fill="#695f64" d="m99 168.2 5.9-3.6-8.2 11.8z"/><path fill="#b7a5a7" d="m142.4 99-7-7 1.1 4.7z"/><path fill="#706267" d="m202.1 160 11.8 11.7-28.2 1.2z"/><path fill="#77858c" d="m86.1 65 10.6 15.3-9.4-2.4z"/><path fill="#86919a" d="m99 115.4 3.5-1.1v3.5z"/><path fill="#655652" d="M160 137.7v-3.5l-3.6 3.5z"/><path fill="#a19291" d="m158.8 145.9-5.9 3.5 8.2 5.9z"/><path fill="#9f9fa6" d="m89.6 66.2 3.6 3.5-2.4-7z"/><path fill="#98adbc" d="m197.5 38 7-25.7 4.7 8.2z"/><path fill="#5d717b" d="m81.4 8.8 13-20-8.3-7z"/><path fill="#cfdfea" d="m269 51-3.6-14-21 37.4z"/><path fill="#6d7b83" d="m100.2 153 5.9-11.8L92 115.4z"/><path fill="#c3b5b2" d="m239.6 126 1.2-4.7-14 1.2z"/><path fill="#b4b5af" d="m170.5 99-2.3 7 4.7 1.2z"/><path fill="#6f7e87" d="m129.5 10 4.7 12.9L103.7-.6z"/><path fill="#e4e2e0" d="m219.7 83.8 27 1.2-16.4-5.9z"/><path fill="#a99695" d="m155.3 99-3.5-5.8 1.1-3.6z"/><path fill="#e2d9d8" d="m233.8 92-1.2 3.5h-8.2z"/><path fill="#ccaab3" d="m162.3 54.5 15.2-1.2-5.8-3.5z"/><path fill="#695c63" d="m149.4 175.2 32.8 10.5-62 9.4z"/><path fill="#8c7d8a" d="m96.7 69.7 10.5-4.7-12.9 1.2z"/><path fill="#1d0a12" d="m177.5 113 2.4-1-1.2-3.6z"/><path fill="#8fa1af" d="m199.8 20.5-10.5 8.2 9.3-14z"/><path fill="#90777f" d="m113 78 10.6-6-8.2-1.1z"/><path fill="#dadbdf" d="m236.1 92 14.1 11.7-5.9 5.9z"/><path fill="#c3b1b1" d="m185.7 82.6 4.7-8.2-4.7-9.4z"/><path fill="#7c777c" d="M148.2 108.4h-4.6l-2.4-3.5z"/><path fill="#a79ba8" d="M157.6 20.5h5.9L160 24z"/><path fill="#b1ada8" d="M142.4 61.5v4.7l-14-2.3z"/><path fill="#77595d" d="M122.5 90.8H120v-8.2z"/><path fill="#7c7374" d="m252.5 115.4 5.9-2.3-7 8.2z"/><path fill="#85959f" d="m130.7 25.2 15.2-3.5-4.7-5.9z"/><path fill="#cbc8cf" d="M247.9 100.2v18.7l4.6-11.7z"/><path fill="#7a8b93" d="m87.3 129.5 8.2 7-9.4-19.9z"/><path fill="#e3e5ed" d="m163.5 17-7 2.3 2.3-2.3z"/><path fill="#96898e" d="m167 89.6-2.4-2.3 1.2 3.5z"/><path fill="#a09295" d="m182.2 131.8-4.7 8.2 4.7-4.6z"/><path fill="#7a757c" d="m253.7 153-2.3-1.2 7-4.7z"/><path fill="#908989" d="m161.1 101.4 11.8-3.5-6-2.4z"/><path fill="#7f7681" d="m303 205.7-17.6-35.2 4.6 36.3z"/><path fill="#c0d1da" d="m192.8 27.5 2.3-1.1 1.2 3.5z"/><path fill="#788993" d="m33.4 3-46.9 19.9 50.4-41z"/><path fill="#c4bcbd" d="m199.8 119-4.7-1.2 3.5-8.2z"/><path fill="#b4c5c8" d="m206.8 34.6 1.2 2.3h4.7z"/><path fill="#cdc1bc" d="m237.3 134.2-14 3.5 11.7-12.9z"/><path fill="#8fa0ac" d="M109.6 107.2h3.5v9.4z"/><path fill="#786157" d="M162.3 147H160l2.3 4.8z"/><path fill="#d4ced0" d="m184.6 113-1.2-11.6 3.5 5.8z"/><path fill="#ad9f9b" d="m149.4 155.3-3.5 1.1-3.5-11.7z"/><path fill="#b09e9a" d="m216.2 119-1.2 2.3-1.1-5.9z"/><path fill="#f8f6f9" d="m174 32.2-10.5-11.7 19.9 12.9z"/><path fill="#bcbbbc" d="M113 112v-8.3h16.5z"/><path fill="#86838d" d="m95.5 176.4 3.5 2.3-1.1 9.4z"/><path fill="#8b7a71" d="M157.6 135.4h-9.4l-3.5 3.5z"/><path fill="#afa8a4" d="m243.2 114.3-7-3.6-10.6 4.7z"/><path fill="#687378" d="M75.6 19.3h-14L86 44z"/><path fill="#e3f0fb" d="m232.6 66.2 3.5 5.9 1.2-13z"/><path fill="#f4f9f9" d="m192.8 28.7-3.5 17.6-4.7-4.7z"/><path fill="#6e6065" d="m171.7 182.2 9.4-9.3-11.8-9.4z"/><path fill="#302529" d="m141.2 100.2 3.5-1.2v1.2z"/><path fill="#a58b7c" d="M210.4 107.2h7l-4.7 4.7z"/><path fill="#1d101e" d="m171.7 83.8 3.5 4.7-1.2-4.7z"/><path fill="#9598a2" d="m96.7 157.6 7 2.4-1.2-5.9z"/><path fill="#756066" d="M175.2 92v-3.5l3.5 4.7z"/><path fill="#8ea6b6" d="m203.3 32.2-8.2-2.3 3.5-14z"/><path fill="#c2c1c7" d="m185.7 63.9-14-10.6 2.3 16.4z"/><path fill="#b5b0a9" d="m137.7 135.4-3.5-3.6-3.5 8.2z"/><path fill="#d5dde4" d="m260.7 80.3-3.5-8.2 5.9 4.7z"/><path fill="#b4a69e" d="m156.4 89.6-4.6-1.1 1.1-4.7z"/><path fill="#d7d5db" d="M165.8 25.2h-2.3v-4.7z"/><path fill="#cac0b9" d="M226.8 88.5h-5.9l1.2 15.2z"/><path fill="#8498a8" d="M172.9 11.1h-15.3V6.4z"/><path fill="#96a8b5" d="M97.9 189.3 86 160l-35-4.7z"/><path fill="#c1b4b1" d="m219.7 113 9.4-9.3 1.2 4.7z"/><path fill="#bbaeb9" d="m104.9 88.5 3.5 1.1 2.3-1.1z"/><path fill="#cac0bd" d="M242 88.5 253.7 99l-23.4-10.5z"/><path fill="#dbe7ee" d="m276 86.1 17.6 2.4-18.8 3.5z"/><path fill="#6a6c79" d="m172.9 76.8 1.1 7 1.2-9.4z"/><path fill="#5f4f56" d="m150.6 164.6 14-1.1-5.8-5.9z"/><path fill="#4b4341" d="M156.4 141.2h-1.1l2.3 3.5z"/><path fill="#777985" d="m175.2 85-2.3-7 2.3 3.4z"/><path fill="#af9a93" d="m224.4 109.6 5.9 10.5-22.3-9.4z"/><path fill="#fefdfe" d="m235 55.7-18.8 14L228 78z"/><path fill="#b5a09b" d="m150.6 113-3.5 6 7 4.6z"/><path fill="#cbcad2" d="m165.8 27.5-2.3 1.2 7 3.5z"/><path fill="#000a21" d="m148.2 104.9-1.1-2.4v1.2z"/><path fill="#675c62" d="m101.4 190.4 8.2 1.2 3.5-20z"/><path fill="#d0d3e3" d="m150.6 13.5 3.5 9.4-3.5-4.7z"/><path fill="#6b5f6b" d="m267.8 144.7-8.2-21 24.6 19.9z"/><path fill="#f9fdfd" d="m178.7 14.6-2.3 14.1 4.7-7z"/><path fill="#a4938e" d="m141.2 143.6 3.5-8.2 3.5 4.6z"/><path fill="#7b727d" d="m278.3 162.3 3.5 25.8h-9.3z"/><path fill="#867a86" d="m269 113 10.5 6-14 3.5z"/><path fill="#748189" d="m107.2 128.3 2.4-17.6 4.7 28.2z"/><path fill="#988783" d="m150.6 85-8.2-5.9 11.7 3.5z"/><path fill="#74676e" d="m124.8 164.6 21.1-1.1-23.4-8.2z"/><path fill="#c3b8c1" d="m171.7 39.3-13 3.5 13-8.2z"/><path fill="#918986" d="m117.8 99 4.7 2.4-2.4-3.5z"/><path fill="#c9d5dd" d="m306.4 83.8-19.9-1.2 27 10.6z"/><path fill="#bab0c3" d="m158.8 24-7 1.2 3.5 1.2z"/><path fill="#8e9fa9" d="m19.3 44 34 4.6-14-19.9z"/><path fill="#b3a8a7" d="m204.5 106-4.7 1.2-1.2 11.7z"/><path fill="#85939c" d="M66.2 80.3 58 55.7l9.4 14z"/><path fill="#5c6674" d="m149.4 108.4-4.7-5.9 1.2 4.7z"/><path fill="#b1adae" d="m176.4 131.8-7-3.5h17.5z"/><path fill="#998c98" d="m172.9 129.5 4.6-7 3.6 1.1z"/><path fill="#778997" d="M87.3 5.3 140-11.1l-43.3-7z"/><path fill="#778b97" d="m101.4 56.8-8.2-18.7v14z"/><path fill="#b4aaa8" d="m155.3 70.9 8.2 4.7-9.4-11.7z"/><path fill="#412f2d" d="m165.8 141.2 1.2 3.5-2.4 2.4z"/><path fill="#c9c1c8" d="m194 120.1-14.1 8.2h9.4z"/><path fill="#ab948c" d="m187 85 2.3 4.6 2.3-10.5z"/><path fill="#200c0b" d="m167 148.2 3.5 3.6-3.5-8.2z"/><path fill="#755d57" d="M156.4 106h1.2v-2.3z"/><path fill="#78696e" d="m191.6 183.4-20-3.5 21.2-3.5z"/><path fill="#777175" d="m110.7 164.6 9.4-1.1-4.7 11.7z"/><path fill="#d1c9d0" d="m167 44 2.3-7 2.4 7z"/><path fill="#a5b0bb" d="m109.6 51 1.1 10.5 10.6 2.4z"/><path fill="#bab6be" d="m172.9 55.7 5.8 5.8 11.7-9.4z"/><path fill="#6e8391" d="m-.6 120.1-1.2 49.2 49.3 42.2z"/><path fill="#ac968b" d="m224.4 144.7-3.5-8.2 3.5 3.5z"/><path fill="#5c4a4e" d="m176.4 150.6 14 2.3-18.7 11.7z"/><path fill="#dcdee1" d="M204.5 62.7 191.6 51h5.9z"/><path fill="#77727c" d="m259.6 142.4 1.1-7-7-10.6z"/><path fill="#bfb7b6" d="m134.2 93.2-4.7-16.4 9.4 8.2z"/><path fill="#a57785" d="m175.2 45.1-1.2 2.4-3.5-2.4z"/><path fill="#5e4c4e" d="m188 147 24.7-2.3 8.2 8.2z"/><path fill="#758a98" d="m149.4-6.4-17.6 29.3 16.4-15.3z"/><path fill="#e9f5fc" d="m226.8 33.4-8.2 5.9-3.6-5.9z"/><path fill="#b0aaa4" d="m149.4 52.1-3.5-5.8 1.2 4.7z"/><path fill="#c8c7c4" d="m160 65-7-4.6 8.1-4.7z"/><path fill="#dfd7df" d="m168.2 31-1.2 7 3.5-1z"/><path fill="#aaa5a6" d="M199.8 67.4h-11.7l3.5 3.5z"/><path fill="#766b79" d="m287.7 158.8 11.7-5.9-1.2 18.8z"/><path fill="#cfccd3" d="m167 27.5 4.7 4.7-11.7-5.8z"/><path fill="#c6b3b1" d="m184.6 83.8-1.2 8.2-3.5-3.5z"/><path fill="#697f8a" d="m-10 75.6-8.2 45.7 35.2 1.2z"/><path fill="#6c3d47" d="m117.8 88.5-1.2 4.7-2.3-10.6z"/><path fill="#8498a5" d="m137.7 34.6 7 17.5-7-8.2z"/><path fill="#e4e2e0" d="m244.3 86.1 2.4 3.5h9.4z"/><path fill="#372b35" d="m172.9 89.6 2.3-4.6-5.9-4.7z"/><path fill="#533e40" d="m213.9 142.4-16.4-11.7 8.2 12.9z"/><path fill="#d1c4c5" d="M231.4 156.4h4.7l-4.7-2.3z"/><path fill="#9f8984" d="m188 80.3-3.4 8.2h4.7z"/><path fill="#5c4645" d="M183.4 136.5h8.2l1.2 8.2z"/><path fill="#b6a7b1" d="m153 44 2.3-6-4.7-7z"/><path fill="#867e87" d="M94.3 167H99l-7 3.5z"/><path fill="#67565c" d="m211.5 158.8-23.4 3.5 4.7-14z"/><path fill="#829aaf" d="m191.6 7.6 1.2-5.8L181 13.5z"/><path fill="#715c5f" d="m124.8 79.1-3.5-5.9 2.3-1.1z"/><path fill="#cfcdcf" d="m129.5 129.5 8.2-7 5.9 5.8z"/><path fill="#c0b6b0" d="m148.2 79.1-8.2-2.3-8.2 2.3z"/><path fill="#73646a" d="m156.4 213.9-10.5-3.5-3.5-31.7z"/><path fill="#d8cdcc" d="m243.2 142.4-1.2-5.9 4.7 8.2z"/><path fill="#503c3f" d="m167 163.5-1.2-5.9-3.5-3.5z"/><path fill="#bdb0b5" d="M169.3 89.6 167 85l1.2-7z"/><path fill="#7a6f75" d="m103.7 176.4-7-1.2 3.5 5.9z"/><path fill="#94a6b2" d="m94.3 183.4-32.8-8.2-19.9-32.8z"/><path fill="#4c3a3b" d="m198.6 138.9 10.6-9.4-2.4 5.9z"/><path fill="#70646c" d="m245.5 158.8-23.4 5.8 24.6 32.9z"/><path fill="#815860" d="m116.6 88.5 3.5-1.2-2.3 7z"/><path fill="#adb7be" d="m225.6 18.2 2.3-36.4h29.3z"/><path fill="#b9bcbd" d="m140 61.5 1.2-8.2-8.2 8.2z"/><path fill="#b2a2a0" d="M256 113v-5.8l-2.3 1.2z"/><path fill="#77858f" d="m74.4 80.3-2.3 3.5-5.9-14z"/><path fill="#8b9ca3" d="m85 141.2 1.1-16.4 3.5 15.2z"/><path fill="#48555e" d="M46.3 5.3 38-15.8 52 1.8z"/><path fill="#bcd0d9" d="m249 73.2 9.4 1.2-8.2-7z"/><path fill="#c8c7c4" d="m135.4 108.4-9.4-1.2-7 10.6z"/><path fill="#a1b3bc" d="m54.5 113 1.2-37.4 15.2 25.8z"/><path fill="#7c93a3" d="m168.2-18.2 18.7 1.2-22.3 34z"/><path fill="#ced2e1" d="m154.1 20.5 3.5 1.2-2.3-10.6z"/><path fill="#8597a5" d="m48.6 170.5 8.2 7-10.5-25.7z"/><path fill="#8b7b7c" d="m156.4 96.7 3.6 1.2-5.9-6z"/><path fill="#645a60" d="m120.1 174 7-8.2-1.1 9.4z"/><path fill="#5d4f5b" d="m264.3 124.8-8.2-4.7-2.4 2.4z"/><path fill="#a3908a" d="m218.6 117.8 3.5-2.4-10.6-5.8z"/><path fill="#948b96" d="m277.1 109.6 8.3-2.4-10.6 9.4z"/><path fill="#b3b4bb" d="m128.3 127.1-1.2 8.3-5.8 1.1z"/><path fill="#d1e0ea" d="m290 52.1-11.7 10.6 34 7z"/><path fill="#96a7b2" d="M113 120.1v5.9l-2.3-4.7z"/><path fill="#7b716f" d="m155.3 142.4 5.8-3.5v2.3z"/><path fill="#c8bbb7" d="M256 141.2h-16.4l-14-12.9z"/><path fill="#d3c7c3" d="m161.1 126 1.2-2.4-5.9-4.7z"/><path fill="#fffffe" d="m212.7 45.1-20-1.2L229.2 65z"/><path fill="#6d646a" d="m151.8 101.4-3.6-3.5-3.5 3.5z"/><path fill="#77686d" d="m197.5 181-5.9-18.7v17.6z"/><path fill="#7c8c96" d="m47.5 37-5.9-14.1 12.9 16.4z"/><path fill="#b4a39f" d="m226.8 151.8 15.2 4.6-14-10.5z"/><path fill="#93a5b1" d="M100.2 18.2 118.9 38l-24.6-9.4z"/><path fill="#817b84" d="m112 156.4 18.7-4.6-8.2-1.2z"/><path fill="#bdaea8" d="m231.4 148.2 5.9 9.4-3.5-23.4z"/><path fill="#c3bfc1" d="m130.7 126-9.4-16.4L127 133z"/><path fill="#867e74" d="m167 108.4-3.5 4.7-2.4-4.7z"/><path fill="#c2bebb" d="m145.9 68.6-2.3-9.4 9.3 9.4z"/><path fill="#9fa5aa" d="m126 135.4-1.2 14 3.5-3.5z"/><path fill="#3c3037" d="m141.2 103.7-1.2-1.2 1.2 3.6z"/><path fill="#b2c0c7" d="m233.8 29.9 3.5 3.5 5.9-1.2z"/><path fill="#646e76" d="m60.4 15.8 10.5-3.5-7 37.5z"/><path fill="#998c88" d="m141.2 87.3 1.2-1.2v3.5z"/><path fill="#788995" d="m13.5 79.1-7-9.4 7 17.6z"/><path fill="#777a83" d="m182.2 82.6-1.1-5.8-2.4 5.8z"/><path fill="#576871" d="m45.1 12.3-7-14 3.5-16.5z"/><path fill="#75646a" d="M148.2 213.9H248L163.5 188z"/><path fill="#7d6d68" d="m164.6 108.4-4.6 2.3-3.6-7z"/><path fill="#b6b6ba" d="M245.5 150.6h4.7l-2.3 2.3z"/><path fill="#dedce4" d="m250.2 135.4 1.2-1.2 4.7 3.5z"/><path fill="#6c4650" d="M110.7 86.1 119 85l-7-2.4z"/><path fill="#6e7f8b" d="m49.8 182.2-1.2-10.5-8.2-9.4z"/><path fill="#938684" d="m172.9 92 3.5 3.5-1.2 5.9z"/><path fill="#bfb1a9" d="m217.4 104.9 7-15.3-12.9 15.3z"/><path fill="#693441" d="m117.8 89.6-1.2-3.5-1.2 3.5z"/><path fill="#91a4b4" d="m184.6 6.4-2.4 4.7h-3.5z"/><path fill="#c1b4ad" d="M218.6 141.2h3.5l-5.9-10.5z"/><path fill="#aeaeb7" d="m295.9 101.4-2.3 2.3H290z"/><path fill="#e0e2e0" d="m252.5 90.8 5.9 3.5-1.2-3.5z"/><path fill="#bbb1ad" d="M168.2 101.4 167 106l2.3 3.5z"/><path fill="#685b60" d="m178.7 171.7-32.8-13 16.4 14.2z"/><path fill="#c9c1bc" d="m164.6 113 4.7 3.6-2.3 5.9z"/><path fill="#adc7d1" d="m198.6 33.4 1.2 4.7-2.3-1.2z"/><path fill="#d5cecb" d="m247.9 123.6-2.4 5.9-2.3-4.7z"/><path fill="#806f6b" d="m158.8 87.3-7-4.7 4.6 1.2z"/><path fill="#8798a1" d="M95.5 40.4 96.7 23H92z"/><path fill="#938681" d="m144.7 145.9-3.5 1.2 2.4-4.7z"/><path fill="#748692" d="M48.6 168.2h-5.8l-5.9-17.6z"/><path fill="#958477" d="m224.4 144.7 2.4 2.4-2.4-1.2z"/><path fill="#bfc7cf" d="m247.9 6.4-1.2 14.1L270-2.9z"/><path fill="#aea19e" d="m160 69.7 7 3.5-3.5-4.6z"/><path fill="#cbbcb6" d="m232.6 147 10.6-1.1-3.6 4.7z"/><path fill="#9d8d95" d="m109.6 97.9 4.7-10.6h-3.6z"/><path fill="#362925" d="m161.1 137.7 4.7-2.3-1.2-1.2z"/><path fill="#7a8c98" d="M128.3 31 140 48.7l-4.6-15.2z"/><path fill="#6a5c62" d="M231.4 162.3 216.2 174l-7-19.9z"/><path fill="#cebeb8" d="M223.2 133v-7l7 7z"/><path fill="#6a5957" d="m165.8 140 2.4-3.5-2.4-2.3z"/><path fill="#83959f" d="M3 45.1V27.5l24.5-7z"/><path fill="#bfc1c2" d="m203.3 80.3-1.2 2.3 1.2 3.5z"/><path fill="#d0d2d8" d="m196.3 107.2-3.5-10.5-2.4 15.2z"/><path fill="#c9bdbc" d="m247.9 129.5-7-8.2 2.3 9.4z"/><path fill="#e9f9fc" d="m238.5 70.9 4.7-3.5 3.5 3.5z"/><path fill="#fbfbfb" d="M170.5 33.4h15.2l-4.6-5.9z"/><path fill="#b3a5a5" d="M163.5 92v-7l-4.7-5.9z"/><path fill="#bcadb2" d="m167 79.1 1.2-11.7 5.8 2.3z"/><path fill="#8a98a4" d="m119 131.8 3.5 1.2-2.4 2.4z"/><path fill="#75858f" d="m109.6 143.6 14-2.4-10.5 11.7z"/><path fill="#8fa2ad" d="m116.6 209.2-49.2-9.4-9.4-22.3z"/><path fill="#a59a9d" d="M161.1 100.2 167 92l-3.5-7z"/><path fill="#3c282b" d="m170.5 142.4 3.5 5.8-4.7 4.7z"/><path fill="#6d7783" d="M70.9 76.8 82.6 52l-3.5 37.5z"/><path fill="#adb9c0" d="m101.4 114.3 2.3-3.6-3.5-1.1z"/><path fill="#6b7583" d="m181 76.8-9.3 8.2 5.8-2.4z"/><path fill="#d5d7db" d="m189.3 48.6-13-8.2 3.6 5.9z"/><path fill="#b0a29b" d="m157.6 117.8 4.7 2.3-4.7-12.9z"/><path fill="#ab9a93" d="m147 141.2 3.6-3.5 1.2 2.3z"/><path fill="#bdb7b7" d="M252.5 103.7 249 98l13 9.3z"/><path fill="#737f88" d="m103.7 115.4 12.9 16.4h-11.7z"/><path fill="#fcfefc" d="m266.6 100.2 15.2-2.3-5.8 7z"/><path fill="#8e7f7b" d="m168.2 115.4-5.9-10.5-1.2 3.5z"/><path fill="#80757e" d="m259.6 145.9-4.7 3.5 1.2 3.5z"/><path fill="#c1babe" d="m168.2 80.3-9.4-5.9-1.2 4.7z"/><path fill="#b9b7b5" d="m144.7 59.2 10.6 3.5-7 1.2z"/><path fill="#bab8c0" d="m288.9 101.4-5.9 3.5 12.9-3.5z"/><path fill="#615257" d="m171.7 162.3 18.7-5.9-14 11.8z"/><path fill="#8fa6b0" d="m124.8 60.4-3.5-6 7-5.8z"/><path fill="#918590" d="m102.5 66.2 5.9-3.5L92 61.5z"/><path fill="#a298a2" d="m110.7 70.9-2.3-3.5 8.2 4.7z"/><path fill="#dcd6db" d="M190.4 92v3.5l3.5-4.7z"/><path fill="#7e7278" d="m143.6 172.9-2.4 1.1 1.2-9.4z"/><path fill="#1f1520" d="m175.2 86.1-4.7-3.5 3.5 4.7z"/><path fill="#b8bbc3" d="m110.7 97.9-3.5 12.8V92z"/><path fill="#bfb7b8" d="m183.4 69.7 9.4-9.3 1.1 4.6z"/><path fill="#786d78" d="m281.8 120.1-7 5.9 16.4 23.4z"/><path fill="#c7cfd5" d="m252.5 37 29.3-44.6-30.4 27z"/><path fill="#94a6b1" d="m92 170.5 7 20-23.4-6z"/><path fill="#e6eff4" d="m318.2 54.5-39.9-8.2 39.9-2.4z"/><path fill="#8297a7" d="m191.6.6-9.4 12.9V-4.1z"/><path fill="#d2d2d6" d="m249 151.8-2.3-4.7 3.5-7z"/><path fill="#dae5ec" d="m307.6 80.3-22.2-4.7 1.1 5.8z"/><path fill="#96929b" d="M294.7 101.4h11.7l-21 7z"/><path fill="#e3e7e7" d="m194 39.3-2.4 3.5-3.5-1.2z"/><path fill="#8a9ca5" d="m5.3 52.1 38.6-18.7-8.2-10.5z"/><path fill="#6f8089" d="M90.8 37 99 58l-8.2-10.5z"/><path fill="#979795" d="m164.6 100.2-3.5-1.2 1.2 5.9z"/><path fill="#ded8de" d="m253.7 147-3.5-3.4v3.5z"/><path fill="#c2b4b2" d="m157.6 124.8 8.2-5.9-9.4-1.1z"/><path fill="#6f6169" d="m158.8 181-5.9 1.2-1.1-21z"/><path fill="#a89495" d="m161.1 87.3-5.8-5.9 2.3-2.3z"/><path fill="#7e5862" d="m176.4 110.7-1.2 3.6v-7z"/><path fill="#ccc9c8" d="m237.3 95.5-9.4 1.2 8.2 8.2z"/><path fill="#e8f2f7" d="m254.9 46.3-17.6 12.9 5.9-18.8z"/><path fill="#8195a4" d="M182.2-8.8 174-4l-2.3 20z"/><path fill="#93a4b1" d="m40.4 73.2 5.9-25.7-20 1.1z"/><path fill="#45373c" d="m182.2 79.1 1.2-4.7 1.2 9.4z"/><path fill="#9f939d" d="m104.9 70.9 1.2 1.2 3.5-4.7z"/><path fill="#cdd7dd" d="M101.4 103.7v5.9l3.5-4.7z"/><path fill="#7c8d97" d="m92 29.9-4.7-13 4.7 3.6z"/><path fill="#c2b8b5" d="M147 82.6h-3.4l3.5 7z"/></g></svg>