<svg xmlns="http://www.w3.org/2000/svg" viewBox="0 0 300 195"><path fill="#543d40" d="M0 0h300v195H0z"/><g fill-opacity=".5"><path fill="#faffff" d="m-18.2 54.5 317.6 159.4v-232z"/><path fill="#afd0dd" d="m20.5 213.9-38.7-232 336.4 53.8z"/><path fill="#7c838c" d="M19.3-18.2 318.2 194l-336.4 2.4z"/><path fill="#f3ffff" d="M285.4 123.6 318.2 1.8l-214.5-20z"/><path fill="#644e57" d="m306.4 213.9-164-70.3 171-44.6z"/><path fill="#a8c5d3" d="m22.9-18.2 90.2 232-71.5-34z"/><path fill="#f3f2f3" d="m308.8 34.6-123 5.8L237.2 167z"/><path fill="#5e6f7b" d="M168.2-18.2 86.2 119 32.1-5.3z"/><path fill="#dfcbc4" d="M148.2 163.5 92 87.3l72.6 32.8z"/><path fill="#7b5957" d="m185.7 62.7-53.9 44.5 55.1 10.6z"/></g></svg>