<svg xmlns="http://www.w3.org/2000/svg" viewBox="0 0 300 195"><path fill="#543d40" d="M0 0h300v195H0z"/><g fill-opacity=".5"><path fill="#faffff" d="m-18.2 54.5 317.6-72.7v232z"/><path fill="#9fcada" d="m-18.2 195.1 232 15.3L6.5-18.2z"/><path fill="#e6ffff" d="M288.9 120.1 62.7 5.3 318.2-10z"/><path fill="#624f57" d="M295.9 213.9 76.8 168.2l237.8-71.5z"/><path fill="#8197a6" d="M184.6-18.2 65 213.8l-83.2-212z"/><path fill="#f3f3f7" d="M235 167 183.4 37 317 27.4z"/><path fill="#515e66" d="m102.5 154.1-14-168.7-61-3.6z"/><path fill="#675356" d="m215 113 51.6 101L92 192.8z"/><path fill="#b1c5d0" d="M89.6 213.9 3 61.5l88 55.1z"/><path fill="#412c2c" d="m216.2 133-28.1 32.8-39.9-31.6z"/><path fill="#5b4e53" d="m181 116.6-41-11.7 44.6-37.5z"/><path fill="#dcc9c1" d="m158.8 158.8-36.3-12.9 3.5-70.3z"/><path fill="#7692ab" d="m151.8-18.2 105.4 5.9-46.8 50.4z"/><path fill="#f6f6f8" d="m178.7 141.2 25.8-110.1 46.9 14z"/><path fill="#635a6b" d="m307.6 151.8-48 50.3-7-100.7z"/><path fill="#c3b5ac" d="m185.7 41.6 39.9 117.2 37.5-12.9z"/><path fill="#828895" d="m76.8 25.2 24.6-43.4 102 88z"/><path fill="#f7ffff" d="M273.6 107.2 169.3 26.4l148.9 62z"/><path fill="#85585d" d="m127.1 66.2-4.6 38.7-29.3-41z"/><path fill="#fffcff" d="m143.6 22.9 41-9.4L199.8 51z"/><path fill="#bfb1b4" d="m130.7 79.1 42.2 32.8L161-18z"/><path fill="#71666e" d="m318.2 213.9-75-57.5-146.5 22.3z"/><path fill="#5e7a8a" d="m56.8 213.9-75-3.5L3 40.4z"/><path fill="#57707d" d="m103.7 1.8 52.7-20L133 38.1z"/><path fill="#99acb9" d="m14.6 87.3 52.8 119.5 53.9 7z"/><path fill="#9b8580" d="m216.2 102.5-48 36.4 79.7-22.3z"/><path fill="#d2e2ee" d="m235 67.4 53.9-85.6 29.3 131.3z"/><path fill="#c9c1c2" d="M184.6 121.3 99 97.9l24.6 41z"/><path fill="#2d2832" d="m147 113 1.2-16.3-11.7 7z"/><path fill="#4c3b3c" d="m222 171.7-10.5-55.1-23.4 22.3z"/><path fill="#160401" d="m160 130.7 4.6 18.7h14.1z"/><path fill="#32121b" d="m183.4 116.6-14-1.2 8.1-12.9z"/><path fill="#e3e4eb" d="m257.2 140-8.2-16.4-5.8 36.4z"/><path fill="#c8b8c3" d="m149.4 3 7 58.5 50.4 17.6z"/><path fill="#9a7278" d="m185.7 51-36.3-10.6-4.7 14z"/><path fill="#667179" d="m53.3 29.9 41 123-8.2-171z"/><path fill="#655964" d="m267.8 175.2-16.4-58.6 17.5-8.2z"/><path fill="#282e41" d="m172.9 90.8 10.5-10.5-12.9-7z"/><path fill="#9eb8c4" d="m88.5 8.8 15.2 50.4 45.7 7z"/><path fill="#cac3c0" d="m167 102.5 76.2-18.7 35.1 27z"/><path fill="#8d9fa8" d="m32.2-8.8-34 54 75 39.8z"/><path fill="#6d5d62" d="m100.2 213.9 2.3-56.3 181.7 1.2z"/><path fill="#b9aeb4" d="m181 86.1-1 52.9 28-19z"/><path fill="#a89d96" d="m110.7 134.2 50.4 1.2-2.3 21z"/><path fill="#7c6256" d="m144.7 73.2 15.3 20-4.7-20z"/><path fill="#a4b5c0" d="m35.7 103.7 69.2 99.6L52 54.5z"/><path fill="#afbdca" d="m263 39.3-55-10.6 42.2-46.9z"/><path fill="#728fa6" d="m151.8 11.1-3.6-29.3L214 13.5z"/><path fill="#c9b7af" d="m230.3 160 21-22.3-37.4-5.9z"/><path fill="#e6e2e8" d="m102.5 112-1.1-28.2 9.3 11.7z"/><path fill="#35272f" d="m158.8 104.9-11.7 5.8 7-12.8z"/><path fill="#6c424c" d="M189.3 115.4h-9.4l2.3 8.2z"/><path fill="#feffff" d="m212.7 93.2 38.7-51.6-39.9-5.9z"/><path fill="#727e86" d="m82.6 121.3 27-10.6 29.3 55.1z"/><path fill="#91a5b4" d="M197.5 40.4 235-10l-48 6z"/><path fill="#c3bbb9" d="m137.7 53.3 2.3 95-19.9-41z"/><path fill="#958f99" d="M94.3 100.2 85 60.4l38.6 2.3z"/><path fill="#623039" d="m121.3 81.4-10.6 2.4 5.9 12.9z"/><path fill="#fff" d="m161.1 31 28.2 17.6-1.2-30.4z"/><path fill="#c3b5b5" d="m174 116.6-50.4-7 58.6 28.1z"/><path fill="#c9ccdb" d="M156.4 8.8 141.2 24l43.4 24.6z"/><path fill="#c5c1c1" d="m175.2 51-37.5 16.4 72.7 3.5z"/><path fill="#aa9991" d="m153 122.5-22.3-4.7L186.9 99z"/><path fill="#776c77" d="m277.1 212.7 41-90.2-127.7 71.4z"/><path fill="#221216" d="M205.7 123.6h7l-2.3 16.4z"/><path fill="#d5dce2" d="m228 85-22.3-17.6-23.5 49.2z"/><path fill="#5e6f7a" d="M-17 68.6 27.5 140-1.8 39.3z"/><path fill="#d6e3ec" d="m307.6 103.7 10.6-109L237.3 65z"/><path fill="#fff" d="m274.8 81.4-57.4-11.7 63.3 35.2z"/><path fill="#454554" d="m187 79.1-16.5-2.3 9.4-7z"/><path fill="#8398a4" d="M161.1 54.5 83.8-18.2l5.8 51.6z"/><path fill="#5e4c50" d="m230.3 158.8-88 7 59.8-31.6z"/><path fill="#c1b5b3" d="m130.7 140 23.4 20 5.9-8.2z"/><path fill="#837987" d="m294.7 112 23.5 58.5-64.5-63.3z"/><path fill="#4d5961" d="m39.3 5.3 41 8.2 2.3-31.7z"/><path fill="#8597a2" d="m-18.2-18.2 44.6 140.7-3.5-88z"/><path fill="#bcb0ad" d="m206.8 72-29.3 20 17.6-25.8z"/><path fill="#6e6066" d="m260.7 176.4-139.4 37.5-35.2-54z"/><path fill="#44393f" d="m142.4 97.9 10.5-1.2-12.9 8.2z"/><path fill="#a8948d" d="m199.8 128.3 29.3-22.2-28.1-7z"/><path fill="#675c68" d="m292.4 154.1-35.2 4.7-1.1-41z"/><path fill="#6f6461" d="m164.6 131.8-11.7-1.1 7 12.9z"/><path fill="#76645e" d="M133 66.2 126 78l-9.4-9.3z"/><path fill="#aab8c3" d="m205.7 10 80.8-28.2-77.3 57.5z"/><path fill="#d0ced3" d="M169.3 116.6 146 131.8l29.3-4.7z"/><path fill="#738790" d="m-18.2 15.8 43.4-34 27 39.9z"/><path fill="#d0cdd1" d="m239.6 147 9.4 13 5.9-31.7z"/><path fill="#87989f" d="m78 109.6 12.8 45.7 18.8 3.5z"/><path fill="#887879" d="m147 37-1 22.1 11.7-5.9z"/><path fill="#c0b2b9" d="m113 102.5-2.3-23.4-4.6 16.4z"/><path fill="#768fa1" d="m171.7 18.2 3.5-18.8-52.7-17.6z"/><path fill="#cdc9c9" d="m244.3 133 16.4-39.8-30.4-10.6z"/><path fill="#c4d8e4" d="M285.4 51 256 78l-18.8-21.2z"/><path fill="#65737a" d="M51 44 82.6 1.7l17.6 57.4z"/><path fill="#91a4b1" d="m39.3 142.4 57.4 71.5-2.4-45.7z"/><path fill="#acacb8" d="M93.2 81.4v11.8l18.7-24.6z"/><path fill="#40262d" d="m169.3 112 11.8-8.3-1.2 10.6z"/><path fill="#5a6871" d="m131.8 13.5 8.2-25.8-29.3 14z"/><path fill="#75828a" d="M99 153 66.2 79l75 73.8z"/><path fill="#8197a4" d="m138.9 52.1 12.9-59.7-31.7 61z"/><path fill="#dbcdca" d="m157.6 104.9-2.3 9.4-5.9-1.2z"/><path fill="#9a93a0" d="m307.6 97.9-48 15.2 58.6 1.2z"/><path fill="#9b8d8f" d="m189.3 128.3-18.8 4.7 7 9.4z"/><path fill="#cebfb6" d="m239.6 127.1-23.4 17.6v-15.2z"/><path fill="#806871" d="m184.6 53.3-13-7 8.3 1.2z"/><path fill="#a19498" d="m121.3 82.6 7-8.2-1.2 27z"/><path fill="#3b2627" d="m174 155.3-18.7-13 23.4 1.3z"/><path fill="#ae9d98" d="m233.8 122.5 21 17.5-11.6-3.5z"/><path fill="#ab9e9c" d="M168.2 80.3 147 92l30.4 17.6z"/><path fill="#c1c5ca" d="m120.1 103.7-8.2 21.1L133 133z"/><path fill="#fff" d="m195.1 47.5 36.3-15.3v46.9z"/><path fill="#cccbcd" d="m203.3 61.5 7 42.2-29.2 7z"/><path fill="#dce7ee" d="M318.2 1.8 256 77.9l41 22.3z"/><path fill="#797073" d="M141.2 150.6 96.7 188l1.2-28.1z"/><path fill="#737d8b" d="m168.2 81.4 10.5 3.6 3.5-9.4z"/><path fill="#402c34" d="m177.5 93.2-7-5.9-1.2-11.7z"/><path fill="#747c87" d="m141.2 104.9 2.4-3.5 10.5 9.3z"/><path fill="#d3c5c9" d="M167 70.9v12.9l4.7-14z"/><path fill="#fff" d="m188 28.7-12.8-17.6-3.5 22.3z"/><path fill="#8e7d75" d="m187 94.3-10.6 8.2 14-23.4z"/><path fill="#ccd7df" d="M297 68.6 245.6 38l9.4-27z"/><path fill="#8ea3b2" d="m201 40.4 16.4-46.8-34-11.8z"/><path fill="#e0e3e8" d="m231.4 92 17.6 23.4-1-16.4z"/><path fill="#e5f2ff" d="m149.4 14.6 10.6-1.1 7 8.2z"/><path fill="#7b727f" d="m318.2 106-35.2 4.7 3.5 103.2z"/><path fill="#795b68" d="m112 73.2-11.8 7 5.9 4.8z"/><path fill="#5c4853" d="M95.5 75.6v-7l4.7 2.3z"/><path fill="#8f8079" d="m161.1 148.2-2.3-17.5-16.4 7z"/><path fill="#756973" d="m228 158.8 24.5 42.2 41-49.2z"/><path fill="#9eafba" d="m38 31 60 129-57.5-17.6z"/><path fill="#fffdfe" d="m286.5 101.4-18.7 7-8.2-22.3z"/><path fill="#9dadba" d="M103.7 52.1 129.5 71 99 9.9z"/><path fill="#c6bdc2" d="m202.1 104.9-21 19.9 10.5 9.4z"/><path fill="#b1a29f" d="m187 104.9-2.4-36.3 11.7-2.4z"/><path fill="#6c5d63" d="m252.5 168.2-152.3 37.5 96-56.3z"/><path fill="#3b2b2c" d="m210.4 121.3-7 14 12.8 6z"/><path fill="#7f8c96" d="M76.8 85 52 61.5l-8-45.7z"/><path fill="#523d40" d="m172.9 163.5-17.6-3.5 48-32.9z"/><path fill="#c8bdca" d="M153 45.1h21l-23.4-19.9z"/><path fill="#af9891" d="m233.8 136.5-3.5 8.2 14 2.4z"/><path fill="#3f252c" d="m178.7 104.9 1.2 9.4-14 1.1z"/><path fill="#b4a5a0" d="M163.5 150.6 133 131.8l-7 17.6z"/><path fill="#695e69" d="m250.2 114.3 18.7 49.2 4.7-36.4z"/><path fill="#c4c1c4" d="m141.2 65 20-14 42.1 14z"/><path fill="#87606a" d="m178.7 113-8.2-3.4 4.7-2.4z"/><path fill="#93a5b0" d="M65 76.8 34.6 20.5 15.8 87.3z"/><path fill="#c3c7cf" d="M305.3 3 236 17l35.2-35.2z"/><path fill="#6c7a84" d="m112 109.6-16.5 24.6 10.6 22.2z"/><path fill="#c8b4b3" d="m185.7 87.3-5.8 5.9-3.5-5.9z"/><path fill="#877c79" d="m167 76.8-2.4-7-5.8 2.3z"/><path fill="#e0eef7" d="m256 61.5 1.2-17.6L221 32.2z"/><path fill="#e7e6e8" d="m285.4 14.6-18.8 28.2 51.6 11.7z"/><path fill="#fff" d="m176.4 20.5 4.7 14 11.7-12.8z"/><path fill="#c3bcbb" d="m272.5 110.7-34-23.4 9.4 16.4z"/><path fill="#a294a1" d="m169.3 27.5-14-4.6 3.5-2.4z"/><path fill="#1c0808" d="M154.1 100.2v2.3l5.9 2.4z"/><path fill="#beb4b2" d="m210.4 96.7 48 38.7-22.3-31.7z"/><path fill="#c6d3dd" d="M270.1 70.9 289 87.3l16.4-1.2z"/><path fill="#dbdee4" d="m191.6 89.6 2.3 34 7-34z"/><path fill="#806d6b" d="M203.3 127.1 214 119l-4.7-7z"/><path fill="#ad9a92" d="M144.7 73.2 160 95.5l-21.1 1.2z"/><path fill="#97aab8" d="M213.9 20.5 191.6 37l22.3-55z"/><path fill="#beafb8" d="m168.2 82.6 7 11.7-10.6-9.3z"/><path fill="#81636f" d="m187 119-6-1.2-5.8 9.3z"/><path fill="#6f8594" d="m-18.2 80.3 59.8 109-36.3 24.6z"/><path fill="#beb6af" d="M150.6 95.5 140 55.7l-10.5 4.7z"/><path fill="#8b837f" d="m127.1 136.5 3.6 9.4 1.1-11.7z"/><path fill="#7d93a4" d="m170.5-.6-3.5 20-17.6-32.9z"/><path fill="#7a686c" d="M128.3 147v17.6l27-3.5z"/><path fill="#667784" d="M39.3 189.3 24 136.5 71 214z"/><path fill="#d2d1d4" d="m155.3 128.3-17.6-5.8-7 8.2z"/><path fill="#271414" d="m169.3 136.5 2.4 20-9.4-18.8z"/><path fill="#6c7882" d="M94.3 130.7 61.5 51l28.1-2.4z"/><path fill="#7f7683" d="M286.5 213.9 269 163.5l49.3 7z"/><path fill="#a9bac6" d="m252.5 34.6-48-4.7 20-17.6z"/><path fill="#a4adb3" d="m144.7 21.7 4.7 34L139 33.4z"/><path fill="#8899a3" d="m88.5 128.3-17.6-25.8 2.3-18.7z"/><path fill="#5b4c4b" d="m160 136.5 3.5-5.8 9.4 8.2z"/><path fill="#c7cfd7" d="m114.3 102.5-13-12.9-1.1 23.5z"/><path fill="#5b595a" d="m182.2 104.9-4.7-2.4-1.1-3.5z"/><path fill="#b5a49b" d="m240.8 156.4-23.4-14-2.4-18.8z"/><path fill="#fcffff" d="m179.9 39.3 5.8 7 8.2-17.6z"/><path fill="#a08d87" d="m164.6 112-11.7 7-16.4-1.2z"/><path fill="#b9636d" d="M165.8 52.1v-3.5l9.4-2.3z"/><path fill="#4f3e3e" d="m213.9 131.8-16.4 1.2 16.4 17.6z"/><path fill="#beb5b6" d="m130.7 126-1.2-55.1 11.7 21z"/><path fill="#71828b" d="m90.8 4.1 45.7 15.2L92-18.2z"/><path fill="#4c5b65" d="m44 14.6 2.3-32.8 17.6 52.8z"/><path fill="#948482" d="m156.4 78 8.2 25.7-9.3-10.5z"/><path fill="#93a5b1" d="m74.4 208 46.9 4.7-77.4-68z"/><path fill="#95a4b1" d="M209.2 11.1 188 30l28.1-48z"/><path fill="#e0eaf2" d="m260.7 79.1 54 15.2-28.2 8.2z"/><path fill="#d6d3d8" d="m250.2 142.4 7 1.2-16.4 14z"/><path fill="#8397a4" d="m169.3-18.2 8.2 10.6-4.6 27z"/><path fill="#d2ced5" d="m168.2 115.4 8.2 3.5-5.9 10.6z"/><path fill="#ada9b1" d="m90.8 72 4.7-10.5H92z"/><path fill="#220d19" d="m177.5 88.5-1.1-3.5-4.7 1.1z"/><path fill="#65757e" d="M44 25.2 37-5.3l26.9 50.4z"/><path fill="#56535e" d="M151.8 110.7h-7l5.8-11.7z"/><path fill="#e6f3f4" d="M197.5 44 208 28.6l1.2 9.4z"/><path fill="#7c6762" d="m155.3 78-7-1.2 9.3 10.5z"/><path fill="#a3b2bd" d="m246.7-15.8-39.9 58.6 11.8-58.6z"/><path fill="#c3b8c0" d="m170.5 46.3-7 25.8 24.6-4.7z"/><path fill="#79848b" d="m86.1 89.6 13 20 1.1-20z"/><path fill="#c7c0c2" d="m157.6 68.6 13 19.9-11.8-10.6z"/><path fill="#afa2a8" d="m167 133 24.6-17.6-14 20z"/><path fill="#cac0ba" d="m140 149.4-7-9.4 7-5.8z"/><path fill="#897c82" d="m99 61.5-8.2 8.2 34-3.5z"/><path fill="#d5d7dc" d="m262 7.6 56.2-1.2L265.4 44z"/><path fill="#c9dde8" d="m265.4 47.5 52.8 9.3-80.9 10.6z"/><path fill="#d5d8dc" d="m205.7 59.2-16.4-11.7L212.7 79z"/><path fill="#e1eff7" d="m258.4 62.7 59.8 23.4L290 62.7z"/><path fill="#523d41" d="m138.9 106 9.3 6-9.3-11.8z"/><path fill="#bfd0d8" d="m238.5 62.7 22.2 10.5-8.2 3.6z"/><path fill="#3d4b5c" d="m178.7 78-5.8-4.8 2.3 7z"/><path fill="#665154" d="m127.1 74.4-5.8-7 1.2 9.4z"/><path fill="#80939d" d="m92 45.1 10.5 3.5-12.9-34z"/><path fill="#7d7c8b" d="m151.8 100.2-3.6-1.2 3.6 8.2z"/><path fill="#f7fafa" d="m199.8 53.3-14-11.7 24.6-3.5z"/><path fill="#a5b5be" d="m48.6 86.1 24.6 16.4 8.2 54z"/><path fill="#cec4c6" d="m167 37 18.7 12.8L173 33.4z"/><path fill="#5b656c" d="M56.8 6.4 86.1 30 71-18.1z"/><path fill="#cbbdb6" d="M242 90.8 229 85l-10.5 9.3z"/><path fill="#c4c1c3" d="m113 107.2 29.4-11.7-17.6 22.3z"/><path fill="#260e0e" d="m175.2 108.4-9.4 5.9 7-1.2z"/><path fill="#683a44" d="m121.3 83.8-9.4 2.3 9.4 3.5z"/><path fill="#756960" d="m156.4 106 11.8 4.7-5.9 1.2z"/><path fill="#a2a7af" d="m123.6 151.8 3.5-17.6 1.2 12.9z"/><path fill="#25110c" d="m143.6 109.6 3.5 1.1 2.3-1.1z"/><path fill="#fefeff" d="m216.2 75.6 31.7-7L236 80.3z"/><path fill="#62575e" d="m110.7 172.9 30.5 37.5-37.5-27z"/><path fill="#554043" d="m171.7 141.2 8.2-1.2v22.3z"/><path fill="#ae988f" d="m209.2 108.4 31.6 5.9-19.9 15.2z"/><path fill="#757e75" d="m149.4 58-5.8-1.2 2.3-5.8z"/><path fill="#e4e7ec" d="m212.7 99-5.9-39.8L223.2 85z"/><path fill="#bfbabb" d="M185.7 47.5v35.1l11.8-19.9z"/><path fill="#78686c" d="m189.3 190.4 12.8-27-24.6 15.3z"/><path fill="#9d8f8e" d="m112 88.5-2.4 8.2 11.7 5.8z"/><path fill="#d0cacf" d="m192.8 109.6-10.6 4.7 1.2-14.1z"/><path fill="#8297a8" d="M192.8-18.2 181 14.6l16.4-12.8z"/><path fill="#6b646b" d="m102.5 163.5-2.3 12.9-11.7-14.1z"/><path fill="#ac9a94" d="m144.7 130.7 3.5 25.7-8.2-2.3z"/><path fill="#899ba5" d="M53.3 46.3 31.1 6.4 8.8 49.8z"/><path fill="#14283b" d="m148.2 104.9-2.3-2.4 2.3-1.1z"/><path fill="#998991" d="m172.9 45.1 12.8 4.7-7 4.7z"/><path fill="#93a5b1" d="m131.8 44-35.1-7-3.5-28.2z"/><path fill="#8b7982" d="m148.2 32.2 9.4 23.5-10.5-13z"/><path fill="#645455" d="m170.5 163.5-14-21.1 30.4 25.8z"/><path fill="#7a8a97" d="m114.3 8.8 22.2 16.4v27z"/><path fill="#a89aa4" d="M104.9 74.4v-8.2l12.9 2.4z"/><path fill="#636c75" d="m55.7 28.7 11.7-46.9 9.4 98.5z"/><path fill="#6a5c64" d="m133 205.7 2.4-55.1 26.9 18.7z"/><path fill="#96817c" d="m143.6 79.1 3.5 4.7 4.7-1.2z"/><path fill="#afa6aa" d="m141.2 96.7-17.6-16.4 3.5 21z"/><path fill="#98a9b4" d="m48.6 150.6 55.1 5.8-35.1 8.2z"/><path fill="#ccbdb7" d="m216.2 131.8 29.3 9.4-11.7-21z"/><path fill="#b8b2ab" d="m142.4 53.3 10.5 21.1-19.9-7z"/><path fill="#d8d4d9" d="m253.7 127.1-12.9-3.5 15.3 14.1z"/><path fill="#796e79" d="m251.4 114.3 36.3 8.2 3.5 15.2z"/><path fill="#bab2b4" d="m236.1 157.6 4.7-9.4-15.2 10.6z"/><path fill="#c4b9b3" d="m204.5 110.7 20-16.4h-24.7z"/><path fill="#aeb3bd" d="m110.7 94.3 4.7 10.6-15.2 10.5z"/><path fill="#756972" d="m266.6 184.6 14-24.6-57.4-2.4z"/><path fill="#706971" d="m128.3 210.4-27-3.6-2.3-28z"/><path fill="#cddce0" d="m190.4 35.7-1.1 5.9 14-2.3z"/><path fill="#876271" d="m177.5 109.6-3.5 2.3 2.4 1.2z"/><path fill="#b5a6ae" d="m188 116.6 4.8-4.7-11.7 2.4z"/><path fill="#7b8291" d="m175.2 72 5.9 7.1v-3.5z"/><path fill="#798690" d="m113 116.6-2.3-8.2-10.5 11.7z"/><path fill="#6f656f" d="m250.2 153 5.9-4.8 4.6 17.6z"/><path fill="#e0dfdc" d="m249 90.8-9.4-9.4 17.6 8.2z"/><path fill="#635864" d="m250.2 119 17.6 25.7-2.4-15.2z"/><path fill="#d1d5e5" d="M156.4 24v-9.4l-9.3 4.7z"/><path fill="#d7c4c4" d="m150.6 113-14-2.3 3.4 3.6z"/><path fill="#46373b" d="m178.7 72 4.7 8.3 1.2-5.9z"/><path fill="#1d0f0c" d="m161.1 142.4 3.5 5.8-1.1-8.2z"/><path fill="#524b54" d="m154.1 102.5-14-2.3 11.7-1.2z"/><path fill="#b6b0b0" d="m197.5 78 3.5-16.5-16.4 11.7z"/><path fill="#c6bdbc" d="m167 116.6-18.8 17.6-7-7z"/><path fill="#9c9193" d="m177.5 134.2 14.1-7-14 12.8z"/><path fill="#93817d" d="m144.7 93.2 4.7 2.3-7-9.4z"/><path fill="#f5f0f9" d="m161.1 28.7 2.4 5.9 7 1.1z"/><path fill="#97a9b5" d="m15.8 66.2 22.3 69.2 18.7-79.7z"/><path fill="#82848a" d="m147 108.4-3.4-3.5-1.2 2.3z"/><path fill="#48383f" d="m178.7 83.8-3.5 5.8 9.4-8.2z"/><path fill="#574141" d="m199.8 128.3 1.2 13-28.1 7z"/><path fill="#837375" d="m162.3 130.7 7-1.2 9.4 11.7z"/><path fill="#8b8281" d="m172.9 90.8 10.5 3.5-28.1 10.6z"/><path fill="#8e828e" d="m273.6 122.5-14-8.2 24.6-3.6z"/><path fill="#72828d" d="m-18.2 35.7 34 55.1-17.6-62z"/><path fill="#80929f" d="m28.7 131.8 16.4 17.6-21-41z"/><path fill="#827b85" d="m254.9 153 5.8-10.6-3.5-13z"/><path fill="#c5c7cb" d="m201 59.2-17.6 8.2 1.2-18.8z"/><path fill="#c2a4ae" d="m151.8 37 18.7 8.1-8.2 4.7z"/><path fill="#7a828f" d="m178.7 83.8 3.5-7-10.5 8.2z"/><path fill="#babdb6" d="m167 104.9 3.5 3.5 1.2-10.5z"/><path fill="#5b6d7a" d="m-18.2 46.3 29.3 53.9-9.3-41z"/><path fill="#dce9f4" d="m174 13.5 5.9-1.2-2.4 7z"/><path fill="#74848d" d="m86.1 92-3.5-31.6 11.7 19.9z"/><path fill="#b7b4c2" d="m92 82.6 9.4-2.3 2.3-4.7z"/></g></svg>