<svg xmlns="http://www.w3.org/2000/svg" viewBox="0 0 300 195"><path fill="#543d40" d="M0 0h300v195H0z"/><g fill-opacity=".5"><path fill="#faffff" d="M299.4-18.2-18.2 54.5l317.6 159.4z"/><path fill="#afcfdd" d="M318.2 48.6-6.4-18.2l11.7 232z"/><path fill="#f3ffff" d="M290 122.5 318.2-8.8l-197 10.6z"/><path fill="#81838b" d="M83.8-18.2-18.2 194l336.4 2.4z"/><path fill="#624e56" d="m315.8 97.9-164 44.5 150 71.5z"/><path fill="#a1bfce" d="m63.9 213.9 49.2-42.2L-17-18.2z"/><path fill="#eeebec" d="m176.4 59.2 141.8-54-77.4 163z"/><path fill="#455760" d="m86.1-17 15.3 164L31-11z"/><path fill="#7396ad" d="M256-18.2 78-1.8l151.1 34z"/><path fill="#decec7" d="m92 90.8 58.6 72.7L161 120z"/><path fill="#422928" d="m212.7 119 4.7 39.8-76.2 7z"/><path fill="#745655" d="m183.4 66.2-2.3 55-44.6-15.1z"/><path fill="#6e8b98" d="m-.6-18.2 55 48-52.6 184z"/><path fill="#f9f7f8" d="m178.7 137.7 79.7-99.6H208z"/><path fill="#63596a" d="m270.1 192.8 24.6-79.7-43.3-4.7z"/><path fill="#b7a399" d="m230.3 161.1 7-51.5-65.6-69.2z"/><path fill="#a4b8c3" d="M60.4 52.1 103.7 214 11.1 80.3z"/><path fill="#6c5c63" d="m82.6 156.4 205.1 1.2L128.3 214z"/><path fill="#39231f" d="m163.5 130.7-17.6 5.8 50.4 27z"/><path fill="#cfb2ac" d="m128.3 76.8 41 32.8 2.4-73.9z"/><path fill="#855a60" d="M120.1 100.2 87.3 61.5l44.5 4.7z"/><path fill="#fffeff" d="M262 89.6 157.5 33.4l20-23.4z"/><path fill="#feffff" d="m220.9 67.4 51.6 38.7 45.7-13z"/><path fill="#5e7a8a" d="m68.6 213.9-86.8-16.4L-4 34.5z"/><path fill="#5d7683" d="M154.1-18.2 114.3 4.1l22.2 48z"/><path fill="#d0bfbf" d="m204.5 127.1-51.6-17.5-37.5 22.2z"/><path fill="#c2b6b3" d="m122.5 144.7 39.8 16.4-36.3-89z"/><path fill="#859cae" d="m220.9 31-41-49.2 16.4 56.3z"/><path fill="#311418" d="m179.9 107.2-18.8 3.5 18.8 5.9z"/><path fill="#e1dcde" d="m245.5 156.4 11.7-14-12.9-42.2z"/><path fill="#d1e5f2" d="m287.7 3 30.5 106.6-84.4-43.4z"/><path fill="#93a1ae" d="M177.5 49.8 83.8 2.9l17.6 59.8z"/><path fill="#9b827a" d="m244.3 113-43.3-8 15.2 23.4z"/><path fill="#c6b3bd" d="m161.1 70.9 43.4-3.5-56.3-58.6z"/><path fill="#717f89" d="M96.7 24 49.8 40.4l54 133.6z"/><path fill="#443e47" d="m161.1 95.5-27 5.9 14.1 10.5z"/><path fill="#97a8b2" d="M5.3 40.4 34.6 8.8 93.2 140z"/><path fill="#343645" d="m170.5 79.1 4.7 14 11.7-21z"/><path fill="#94a8b5" d="M67.4 205.7 11 83.7l97.3 116.1z"/><path fill="#cdc3c0" d="m142.4 93.2-23.5 42.2L140 49.8z"/><path fill="#ad9e96" d="m130.7 126 65.6-50.4-28.1 37.5z"/><path fill="#b3c2cd" d="m263-18.2-62 44.6 62 15.2z"/><path fill="#dfdfe1" d="m246.7 78-54 2.3-10.5 32.8z"/><path fill="#5a505a" d="m266.6 156.4-16.4-39.8 15.2-1.2z"/><path fill="#cbbcb5" d="M215 137.7 264.3 92l-34 65.6z"/><path fill="#160100" d="m162.3 137.7 2.3 12.9 13-7z"/><path fill="#d4dfeb" d="m102.5 85 10.6 17.5-12.9 10.6z"/><path fill="#948078" d="m142.4 73.2 19.9 37.5-5.9-41z"/><path fill="#fff" d="m190.4 42.8 43.4 38.6v-48z"/><path fill="#baaaad" d="M191.6 134.2h-25.8l45.7-37.5z"/></g></svg>