<svg xmlns="http://www.w3.org/2000/svg" viewBox="0 0 300 195"><path fill="#543d40" d="M0 0h300v195H0z"/><g fill-opacity=".5"><path fill="#faffff" d="M299.4-18.2v232L-18.2 54.6z"/><path fill="#9fcada" d="M6.4-18.2 211.5 208l-229.7-14z"/><path fill="#e4ffff" d="m58 4.1 260.2-22.3-27 138.3z"/><path fill="#624f58" d="m68.6 170.5 249.6-75L294.7 214z"/><path fill="#8196a4" d="m-18.2 1.8 205.1-20-124.2 232z"/><path fill="#f3f3f7" d="m175.2 32.2 62.1 130.1 80.9-128.9z"/><path fill="#505e66" d="m102.5 155.3-75-173.5h61z"/><path fill="#b4c9d3" d="M80.3 100.2 6.4 75.6l90.3 138.3z"/><path fill="#382221" d="m212.7 123.6-58.6 17.6 69.1 32.8z"/><path fill="#5c4e53" d="m179.9 115.4-45.7-8.2 49.2-38.6z"/><path fill="#6d5f68" d="M314.6 141.2 255 214 85 189.4z"/><path fill="#dcc9c1" d="m161.1 157.6-37.5-9.4 3.5-64.4z"/><path fill="#7893ab" d="m160-7.6 104.3-10.6-52.8 56.3z"/><path fill="#f5f6f8" d="m256 38-51.5-2.3L181 141.2z"/><path fill="#b9a9a3" d="m264.3 136.5-32.9 28.1-63.2-133.5z"/><path fill="#4b4050" d="m274.8 168.2-9.4-59.8-16.4 8.2z"/><path fill="#6e7b89" d="m127.1-15.8 37.5 72.6-91.4-43.3z"/><path fill="#eff9ff" d="m143.6 10 140.6 103 34-36.2z"/><path fill="#84595e" d="M116.6 97.9 133 66.2 92 64z"/><path fill="#bdacab" d="m119 60.4 56.2-23.5-8.2 72.7z"/><path fill="#5e798a" d="m-18.2 192.8 73.9 9.3-73.9-220.3z"/><path fill="#210f0d" d="m155.3 129.5 19.9 31.6-4.7-25.7z"/><path fill="#634e51" d="m169.3 208-93.7 6 150-105.5z"/><path fill="#9eb1bc" d="M45.1 169.3 30 6.4 108.4 214z"/><path fill="#c8bfc0" d="M121.3 129.5 89.6 85l107.9 48z"/><path fill="#eaebf0" d="m249 116.6-3.5 41 10.6-12.9z"/><path fill="#2b0d15" d="m167 112 14 5.8v-14z"/><path fill="#736a79" d="m274.8 213.9-23.4-103.2 66.8-9.3z"/><path fill="#72656c" d="M318.2 205.7 220.9 154 93.2 181z"/><path fill="#d2e1ec" d="m318.2 112-27-130.2-57.4 82z"/><path fill="#fff" d="m184.6 15.8-30.5 14 41 17.7z"/><path fill="#98abb8" d="m85 6.4 25.7 83.2L122.5 23z"/><path fill="#aa9797" d="m174 141.2 8.2-30.5 57.4-4.6z"/><path fill="#413a42" d="m161.1 102.5-17.5 10.6-2.4-18.8z"/><path fill="#9dafbd" d="m252.5 22.9-60.9 17.5 7-58.6z"/><path fill="#b9acb2" d="m135.4 73.2 8.2-51.5 65.6 45.7z"/><path fill="#899ba5" d="m34.6-7.6 32.8 78.5-85.6-23.4z"/><path fill="#566c77" d="M157.6-12.3 133 25.2 87.3-18.2z"/><path fill="#67727b" d="m82.6 120.1 8.2-138.3-44.5 45.7z"/><path fill="#c8c1be" d="M158.8 101.4 244.3 85l36.4 28z"/><path fill="#996f78" d="m183.4 49.8-31.6-8.2-9.4 11.7z"/><path fill="#3b3c4d" d="m185.7 74.4-16.4 2.4 5.9 18.7z"/><path fill="#b39d91" d="m240.8 110.7-31.6-5.8 9.4 41z"/><path fill="#dbe0e4" d="m235 81.4-42.2 1.2-11.7 32.8z"/><path fill="#9e8f8c" d="M184.6 97.9 138.9 65l28 47z"/><path fill="#84756d" d="m157.6 148.2 5.9-18.7-22.3 7z"/><path fill="#372526" d="m213.9 137.7-3.5-24.6-9.4 31.6z"/><path fill="#fff" d="m274.8 95.5-70.3-63.3 7 39.9z"/><path fill="#622f36" d="m112 82.6 5.8 15.3 4.7-13z"/><path fill="#c6bebc" d="m136.5 59.2 8.2 35.1-31.6 30.5z"/><path fill="#d4cbdc" d="m144.7 24 10.6-16.4 30.4 41z"/><path fill="#94a7b4" d="m21.7 106 52.7 108 27-34z"/><path fill="#e4e6ee" d="M108.4 87.3h-7l1.1 24.6z"/><path fill="#b5c2cd" d="m250.2-18.2-41 45.7 52.7 14.1z"/><path fill="#6c5e63" d="m104.9 213.9-9.4-48 172.3-9.5z"/><path fill="#8c8690" d="m90.8 49.8 25.8 16.4-24.6 41z"/><path fill="#ccc0bd" d="m178.7 121.3-46.9 17.6 23.5-31.7z"/><path fill="#717d85" d="m89.6 129.5 23.5-23.4-7 62z"/><path fill="#869cad" d="M178.7-8.8 215 1.8 199.8 38z"/><path fill="#cabeba" d="m249 160-31.6-21.1 32.8-41z"/><path fill="#978e99" d="m295.9 101.4 15.2 11.7-59.7 2.3z"/><path fill="#c5c8ca" d="m122.5 59.2 86.7-3.5L170.5 72z"/><path fill="#bdb1ad" d="m160 147-45.7-24.5 41 38.6z"/><path fill="#a28c84" d="m128.3 116.6 24.6 4.7 15.3-9.4z"/><path fill="#9bacb6" d="m56.8 45.1 39.9 110.2L11 74.4z"/><path fill="#4c575e" d="m42.8 5.3 38.6-23.5 1.2 34z"/><path fill="#665a66" d="m254.9 114.3 46.9 42.1-43.4-1.1z"/><path fill="#4d373a" d="m149.4 162.3 38.7-8.2 8.2-23.4z"/><path fill="#bbaba8" d="M192.8 92h-16.4l23.4-27z"/><path fill="#fff" d="m191.6 21.7-16.4-8.2 5.9 29.3z"/><path fill="#7691a7" d="m196.3 11.1-65.6 1.2 49.2-30.5z"/><path fill="#1a1623" d="m169.3 76.8 5.9-5.9h4.7z"/><path fill="#9bb2bf" d="M104.9 60.4 94.3 17l47 48z"/><path fill="#bfd5e1" d="m285.4 47.5-35.2 30.4-12.9-15.2z"/><path fill="#867066" d="m147 73.2 11.8 20-3.5-22.3z"/><path fill="#bab3b7" d="m172.9 109.6-3.6-27L153 65z"/><path fill="#5f707a" d="M28.7 140-4 32.2l-1.2 55.1z"/><path fill="#fff" d="m285.4 100.2-34-23.4 17.5 31.6z"/><path fill="#75828a" d="M81.4 126 69.7 81.4l72.7 75z"/><path fill="#a99690" d="m199.8 120.1 44.5-1.2-41-22.2z"/><path fill="#2d1b1c" d="m179.9 156.4-16.4-25.7-1.2 17.5z"/><path fill="#c2c3c7" d="m142.4 126-31.7-27 9.4 36.4z"/><path fill="#747370" d="m143.6 52.1 2.3 7 11.7-9.3z"/><path fill="#fff" d="M192.8 48.6 236 80.3l-8.2-48z"/><path fill="#a3b4be" d="m96.7 158.8-59.8-24.6 20-57.4z"/><path fill="#9b8786" d="m127.1 74.4-11.7 27 13-2.4z"/><path fill="#9f9395" d="m179.9 140 15.2-11.7-31.6 3.5z"/><path fill="#dee2e7" d="M247.9 115.4 229 92l21.1 5.9z"/><path fill="#bda99f" d="m242 144.7-28.1-16.4 16.4 31.7z"/><path fill="#5a4b50" d="m181 95.5-11.7-12.9L180 105z"/><path fill="#e8eaec" d="m267.8 27.5 50.4-18.7v66.8z"/><path fill="#8699a4" d="M-13.5-18.2 25.2 37v80.9z"/><path fill="#b6b3bf" d="M108.4 67.4 93.2 85l5.8 2.3z"/><path fill="#73676f" d="M148.2 213.9 262 195l28.1-61z"/><path fill="#46222e" d="m184.6 117.8-1.2 3.5-4.7-7z"/><path fill="#635256" d="m167 156.4 64.4 4.7-18.7-21z"/><path fill="#cccdd2" d="m190.4 76.8 1.2 57.4 21.1-66.8z"/><path fill="#6a7b84" d="m85 63.9 16.4-7L83.8 4z"/><path fill="#7a8f9a" d="m136.5 49.8 1.2-30.5-71.5-37.5z"/><path fill="#d2cfd7" d="M164.6 116.6h13l-6 16.4z"/></g></svg>