<svg xmlns="http://www.w3.org/2000/svg" viewBox="0 0 300 195"><path fill="#543d40" d="M0 0h300v195H0z"/><g fill-opacity=".5"><path fill="#faffff" d="m-18.2 54.5 317.6 159.4v-232z"/><path fill="#b0d0dd" d="m-18.2-18.2 39.9 232L318.2 38.2z"/><path fill="#7c838c" d="m15.8-18.2 302.4 211L-18.2 208z"/><path fill="#f3ffff" d="m318.2 1.8-32.8 121.8L100.2-18.2z"/><path fill="#644e56" d="M298.2 213.9 317 100.2l-170 38.7z"/><path fill="#a6c1cf" d="m67.4 213.9 46.9-47L-18.2-13.4z"/><path fill="#f3f2f3" d="m183.4 39.3 55 126.5L303 38.1z"/><path fill="#5d6f7b" d="M170.5-18.2 85 116.6 32.2-7.6z"/><path fill="#a99" d="M199.8 70.9 140 177.5 76.8-18.2z"/><path fill="#7191a9" d="M210.4 35.7 252.5 3 146-18z"/><path fill="#3d2423" d="m224.4 171.7-69.1-27 57.4-17.6z"/><path fill="#685456" d="m179.9 114.3-51.6-7 57.4-37.6z"/><path fill="#d9d0cc" d="m130.7 80.3 28 82L112 126z"/><path fill="#628394" d="M-10 206.8-5.3 17l72.7 196.9z"/><path fill="#edf7ff" d="m148.2 27.5 170 32.9-25.8 50.3z"/><path fill="#6b6271" d="m318.2 97.9-63.3 14-2.4 102z"/><path fill="#c6b4aa" d="M225.6 158.8 185.7 51l78.6 96z"/><path fill="#6d5b62" d="m308.8 156.4-221.5 2.4 27 55z"/><path fill="#ebe3e5" d="m235 70.9-58.6 71.5L195 75.6z"/><path fill="#9eb3bf" d="m26.4-12.3 83.2 226.2-80.9-89.1z"/><path fill="#566168" d="m87.3-3 5.9 125.5-61-140.7z"/><path fill="#76484f" d="m127.1 68.6-5.8 31.6-20-22.3z"/><path fill="#819cae" d="m85-1.8 16.4 80.9 90.2-84.4z"/><path fill="#cac3c4" d="m197.5 133-78.6-3.5-25.7-41z"/><path fill="#360e16" d="m179.9 104.9 5.8 15.2-17.5-5.8z"/><path fill="#bbadac" d="m149.4 4.1-17.6 78.5 45.7 30.5z"/><path fill="#301c19" d="m165.8 129.5 16.4 38.7-28.1-35.2z"/><path fill="#d0e0ea" d="m292.4-18.2-56.3 82 78.5 45.8z"/><path fill="#a08a84" d="m198.6 123.6 3.5-28 54 23.3z"/><path fill="#5c515e" d="m263 158.8 23.5-16.4-36.3-30.5z"/><path fill="#dad8dc" d="m242 99 14 41-10.5 21.1z"/><path fill="#444150" d="m169.3 70.9 2.4 24.6L188 73.2z"/><path fill="#8398a3" d="M25.2 116.6-18.2-5.3l65.7 27z"/><path fill="#9aacb9" d="m192.8-18.2 61 48-61 6z"/><path fill="#fff" d="m190.4 20.5-29.3-1.2 28.2 28.2zm4.7 23.5 42.2-13-12.9 55.1z"/><path fill="#69757d" d="m102.5 196.3 16.4-66.8L82.6 92z"/><path fill="#5f717b" d="m150.6-3-20 32.9-46.8-43.4z"/><path fill="#697d8b" d="M-18.2-3v191l79.7 26z"/><path fill="#a2b8c4" d="M141.2 62.7 92 10l14 52.7z"/><path fill="#d0bec6" d="m149.4 17 59.8 44.5-44.6 10.6z"/><path fill="#8a838e" d="M129.5 33.4v21l61-2.3z"/><path fill="#393640" d="m137.7 102.5 8.2 10.6 12.9-12.9z"/><path fill="#d9e1eb" d="m110.7 103.7-8.2-21-2.3 32.7z"/><path fill="#c6b5b7" d="M198.6 124.8 153 109.6l27 30.4z"/><path fill="#382726" d="m204.5 136.5 5.9-21 7 36.3z"/><path fill="#91878f" d="m81.4 53.3 45.7 15.3-39.8 32.8z"/><path fill="#d4cdcd" d="m181 101.4 1.2 15.2 50.4-27z"/><path fill="#fbfeff" d="m310 93.2-83.2-22.3 48 36.3z"/><path fill="#b8c5cf" d="m212.7 22.9 48-41v60.9z"/><path fill="#a99d96" d="M158.8 157.6 116.6 140l43.4-10.5z"/><path fill="#6e5e64" d="m93.2 172.9 179.3 41-54-68z"/><path fill="#9fb1bc" d="M80.3 106 92 214 10 69.7z"/><path fill="#76594d" d="m155.3 73.2 3.5 16.4L147 74.4z"/><path fill="#b7adae" d="M284.2 115.4 256 112l-22.3-30.5z"/><path fill="#cbbab0" d="M254.9 131.8 219.7 146l-4.7-17.6z"/><path fill="#ebe9fa" d="m144.7 24 7-11.7 13 7z"/><path fill="#331f25" d="m178.7 116.6-10.5-2.3 14-13z"/><path fill="#849cad" d="m181 1.8 20 37.5 8.2-39.9z"/><path fill="#4b555e" d="m38-6.4 14.1 29.3 49.3-31.7z"/><path fill="#4b3537" d="m177.5 138.9-23.4 23.4 31.6-1.2z"/><path fill="#6f6369" d="m81.4 163.5 54-11.7 89 57.4z"/><path fill="#766b78" d="m232.6 158.8 23.5 55 62-63.2z"/><path fill="#738e9b" d="m1.8 107.2-20 100.8 38.7 5.9z"/><path fill="#c9bdb8" d="M140 100.2V62.7l-16.4 21z"/><path fill="#d4e1ea" d="m293.6 103.7 24.6-109L239.6 65z"/><path fill="#d1ccce" d="m164.6 130.7 16.5-14.1-56.3 10.5z"/><path fill="#b29f96" d="m185.7 97.9-34 26.9-23.4-5.9z"/><path fill="#94a9b5" d="m108.4 213.9-48-13 19.9-57.3z"/><path fill="#fff" d="m190.4 54.5-5.8-39.9-17.6 7z"/><path fill="#8c8490" d="m260.7 115.4 39.9 17.6 17.6-39.8z"/><path fill="#61343c" d="m120.1 102.5-2.3-21-5.9 2.3z"/><path fill="#4e3e41" d="M153 96.7h-16.5l29.3 12.9z"/><path fill="#c4bbbd" d="m187 76.8 18.7-9.4-36.4-18.8z"/><path fill="#748a94" d="m10-18.2 34 29.3-62.2 41z"/><path fill="#b8a098" d="m192.8 76.8-3.5 24.6-10.6-13z"/><path fill="#c5c5c8" d="m170.5 75.6-21-20 38.6 1.2z"/><path fill="#6c616c" d="m256 107.2 37.6 46.9-37.5 8.2z"/><path fill="#847678" d="M156.4 53.3 148.2 37l-3.5 22.3z"/><path fill="#5e6e78" d="m29.9 143.6-48-73.9V-7.6z"/><path fill="#708da1" d="m172.9 18.2 4.6-34-55-2.4z"/><path d="M171.7 85h5.8l-4.6 3.5z"/><path fill="#160503" d="m172.9 150.6-11.8-5.9 3.5-8.2z"/><path fill="#ad9c9a" d="m175.2 94.3-21.1-21L108.4 99z"/><path fill="#768690" d="m104.9 141.2 4.7-34 24.6 57.4z"/><path fill="#b2b4c1" d="m106 73.2-14 9.4 4.7 7z"/><path fill="#9b8a8f" d="m189.3 113-18.8 17.7 8.2 10.5z"/><path fill="#fbfeff" d="M252.5 41.6 215 32.2l-2.3 61z"/><path fill="#6c7d86" d="m75.6 102.5 24.6-16.4-3.5 44.6z"/><path fill="#f5f8f7" d="M215 75.6 197.5 51 208 27.5z"/><path fill="#756461" d="m123.6 79.1 10.6-12.9h-20z"/><path fill="#c3b7bf" d="m110.7 96.7-5.8 1.2 5.8-17.6z"/><path fill="#beaba4" d="m220.9 148.2 10.5 10.6 20-32.8z"/><path fill="#7c6e6a" d="m162.3 129.5-1.2 23.4-14-18.7z"/><path fill="#c5d8e3" d="m250.2 79.1 37.5-30.5-49.2 8.2z"/><path fill="#c0bdbf" d="m113 124.8 29.4-53.9-9.4 63.3z"/><path fill="#d6d5dd" d="m249 153 1.2-31.7 7 21z"/><path fill="#c1b4b1" d="m188 134.2 13-29.3 2.3 17.6z"/><path fill="#fffffe" d="m243.2 74.4 27 34 12.8-5.9z"/><path fill="#b7abab" d="m158.8 156.4-1.2-10.5-34 1.2z"/><path fill="#91a3af" d="m116.6 213.9-96-119.6 22.2 66.8z"/><path fill="#a1b3bc" d="m45.1 149.4 50.4 9.4-41-99.6z"/><path fill="#d6d3d1" d="m256 88.5-45.6-10.6 41 38.7z"/><path fill="#6c7a82" d="M85-1.8 73.2 83.8 98 54.5z"/><path fill="#9e877f" d="m220.9 130.7-16.4-20 21 2.4z"/><path fill="#eaeaeb" d="m287.7 17-18.8 16.4 49.3 36.3z"/><path fill="#af7b82" d="M189.3 55.7 160 45l16.4 1.2z"/><path fill="#baada7" d="m256 144.7-44.5-41 11.7-15.2z"/><path fill="#829aa6" d="M83.8-14.6 127 58l22.3-11.7z"/><path fill="#837b89" d="m318.2 175.2-23.5 30.5-21-42.2z"/><path fill="#574342" d="m188 137.7 13-10.6 27 30.5z"/><path fill="#889aa4" d="m26.4 8.8 34 43.3-78.6-1.1z"/><path fill="#59666f" d="M130.7 12.3 136.5.6 96.7-18.2z"/><path fill="#846871" d="m95.5 74.4 17.6-9.4-18.8-1z"/><path fill="#726369" d="M251.4 156.4 240.8 214l-99.6-21.1z"/><path fill="#c2c3c4" d="m187 78-2.4-29.4 9.3 3.5z"/><path fill="#725d56" d="m147 74.4 10.6 12.9-2.3-8.2z"/><path fill="#4b5260" d="M171.7 74.4 181 71l2.3 14z"/><path fill="#71646a" d="m135.4 149.4-45.8 16.4 78.6 14z"/><path fill="#bcc5cd" d="m230.3 17 23.4-35.2L318.2.6z"/><path fill="#ad98a3" d="m162.3 26.4-2.3-8.2 8.2 9.3z"/><path fill="#312021" d="m210.4 122.5-4.7 5.8 9.3 4.7z"/><path fill="#d6ccc9" d="M151.8 113h8.2l-4.7-5.8z"/><path fill="#94857d" d="m169.3 110.7-10.5 5.9-1.2-20z"/><path fill="#f3f5fa" d="M165.8 35.7 194 20.5l-18.7-8.2z"/><path fill="#d6d5da" d="m199.8 90.8-3.5 27-14-16.4z"/><path fill="#7a717e" d="M318.2 188v-51.5l-59.8-28.1z"/><path fill="#aab7b9" d="M143.6 34.6 133 69.7l15.2-22.2z"/><path fill="#ab9c99" d="m178.7 88.5 9.4 15.2 1.2-22.3z"/><path fill="#d5d1d3" d="m175.2 129.5-11.7-14 10.5 1.1z"/><path fill="#c7bdce" d="m153 45.1-4.8-34 22.3 35.2z"/><path fill="#798994" d="M145.9 49.8 82.6-7.6l25.8-2.4z"/><path fill="#b4afac" d="m150.6 95.5 23.4 5.9-4.7 7z"/><path fill="#a8b7c1" d="M211.5 12.3 208 41.6l52.7-59.8z"/><path fill="#968886" d="m160 76.8 8.2-1.2-5.9-9.4z"/><path fill="#fffffe" d="m237.3 83.8-38.7-37.5 30.5-7z"/><path fill="#413842" d="m141.2 100.2 9.4-3.5 7 5.8z"/><path fill="#887c7c" d="m126 95.5-16.4-4.7 11.7 14z"/><path fill="#86636b" d="m188 114.3-9.3 2.3 3.5 7z"/><path fill="#c6bec0" d="m174 49.8-31.6 12.9 30.5 9.4z"/><path fill="#8b8988" d="m123.6 136.5 5.9 4.7 3.5-8.2z"/><path fill="#c9bdc3" d="m167 76.8-4.7 2.3 9.4 12.9z"/><path fill="#98a6b3" d="M188 29.9 216.3 4v-18.7z"/><path fill="#a19ca4" d="m264.3 110.7 29.3-9.3 24.6 7z"/><path fill="#93a5b1" d="M61.5 59.2 21.7 29.9l9.4 82z"/><path fill="#5f545d" d="m251.4 115.4 17.5 16.4-16.4-8.2z"/><path fill="#271413" d="m162.3 137.7 8.2 1.2v10.5z"/><path fill="#7b8c98" d="m61.5 181-22.2-29.2L59.2 201z"/><path fill="#84989f" d="M82.6 134.2 81.4 106l21.1 53.9z"/><path fill="#727583" d="m150.6 108.4-12.9-2.3 14-4.7z"/><path fill="#e3f0f8" d="m318.2 86.1-66.8-23.4 39.8 2.3z"/><path fill="#b3a7a8" d="m121.3 80.3 28.1 12.9-16.4 9.3z"/><path fill="#c7bbb9" d="m143.6 122.5 23.4-4.7-36.3 30.4z"/><path fill="#ccdbe5" d="m293.6 65-73.9-34 46.9 7z"/><path fill="#988e8d" d="m188 127.1-11.6 10.6 14-4.7z"/><path fill="#65575c" d="m206.8 154.1-24.6 21.1-57.4-5.9z"/><path fill="#cdc4ca" d="m188 129.5 14.1-20-25.7 20z"/><path fill="#6c7b86" d="m93.2 81.4-10.6 21.1-21-50.4z"/><path fill="#c0c2c3" d="m208 103.7-21-56.2 18.7 22.2z"/><path fill="#a5b2bb" d="m104.9 38-4.7 22.4 23.4 3.5z"/><path fill="#493d43" d="m175.2 89.6 8.2-8.2v-7z"/><path fill="#7b92a4" d="m195.1 13.5-3.5-31.7-36.3 23.5z"/><path fill="#748090" d="m177.5 70.9 4.7 9.4-7 3.5z"/><path fill="#998881" d="m157.6 133-3.5 10.6-10.5-8.2z"/><path fill="#c8bfbe" d="m109.6 101.4 15.2 15.2 23.4-3.5z"/><path fill="#766a72" d="m257.2 134.2 20 58.6-30.5 7z"/><path fill="#cbc5c1" d="m249 87.3 20 15.2-47-15.2z"/><path fill="#b9848b" d="m164.6 52.1 15.3-4.6-28.1-2.4z"/><path fill="#d7d3d6" d="m245.5 156.4-7-8.2L256 140z"/><path fill="#af9891" d="m205.7 104.9 30.4 9.4-7 12.8z"/><path fill="#aa9591" d="m154.1 123.6 1.2-9.3h-25.8z"/><path fill="#ac949f" d="m120.1 70.9-9.4-4.7-15.2 9.4z"/><path fill="#fdffff" d="m187 47.5 7-18.8-13 10.6z"/><path fill="#96a3ac" d="M104.9 157.6 87.3 160l2.3-9.4z"/><path fill="#b3a2a0" d="m201 63.9-14 21-3.6-16.3z"/><path fill="#c8c0c5" d="m182.2 115.4 8.2-25.8 1.2 25.8z"/><path fill="#5f2d3a" d="m112 87.3 7-4.7 3.5 4.7z"/><path fill="#6f7e89" d="m94.3 143.6 16.4-34-1.1 49.2z"/><path fill="#39313a" d="m169.3 82.6 2.4 4.7V76.8z"/><path fill="#d2d6dc" d="m259.6 41.6-2.4-34 61-1.2z"/><path fill="#786e72" d="M97.9 184.6 95.5 160l42.2-7z"/><path fill="#8d7c74" d="M188 81.4v7l-7 8.3z"/><path fill="#b1bfc9" d="M247.9-12.3v48L219.7 30z"/><path fill="#697984" d="m44 158.8 9.3 55-39.8-86.7z"/><path fill="#e0e6eb" d="m226.8 85-14.1 7-10.6-34z"/><path fill="#3c2727" d="m169.3 150.6 17.6-8.2h-30.5z"/><path fill="#a08f8f" d="m168.2 90.8-2.4 14-23.4-15.2z"/><path fill="#e0e4f2" d="m155.3 12.3-4.7 5.9 12.9-1.2z"/><path fill="#a79ea7" d="m96.7 63.9-3.5 9.3-2.4-11.7z"/><path fill="#b9b2b3" d="M240.8 106h-18.7l32.8 21.1z"/><path fill="#c4bebd" d="m155.3 72 5.8-24.5 1.2 36.3z"/><path fill="#bdb0b4" d="m161.1 86.1 9.4-27v16.5z"/><path fill="#86706d" d="m210.4 112 5.8 14-11.7-10.6z"/><path fill="#decccf" d="m181 92 2.4-5.9-3.5 2.4z"/><path fill="#dadde4" d="m250.2 120.1-16.4-24.6h10.5z"/><path fill="#e3eff7" d="m243.2 58 18.7-9.4-32.8-14z"/><path fill="#bbc7cd" d="m126 104.9-4.7 22.2-9.4-4.6z"/><path fill="#bfb3ac" d="m158.8 99-22.3-17.6-3.5-19.9z"/><path fill="#1e1217" d="m142.4 101.4 2.3-3.5-7 4.6z"/><path fill="#626c72" d="m55.7 4.1 41 56.3L77.9 8.8z"/><path fill="#99adba" d="m195.1 39.3 21.1-45.7 1.2 24.6z"/><path fill="#ac958b" d="m243.2 145.9-25.8-1.2L235 140z"/><path fill="#7d91a1" d="m167 20.5-10.6-38.7H173z"/><path fill="#c4b6b4" d="m237.3 130.7-24.6 2.3 49.2-28.1z"/><path fill="#543f41" d="m175.2 142.4-3.5 19.9 29.3-32.8z"/><path fill="#dcdde7" d="M253.7 129.5 248 133l9.3 3.5z"/><path fill="#899aa5" d="m121.3 20.5-32.8 4.7L86 6.4z"/><path fill="#a69795" d="m251.4 138.9-13-11.8 7.1 11.8z"/><path fill="#979da3" d="m127.1 151.8 4.7-3.6-10.5-15.2z"/><path fill="#775961" d="m154.1 49.8-3.5-3.5 1.2 7z"/><path fill="#859293" d="m172.9 21.7-1.2-3.5v2.3z"/><path fill="#5f4d4e" d="m217.4 151.8-2.4-15.3-41 17.6z"/><path fill="#bfafae" d="m228 157.6-1.2-14 5.8 12.8z"/><path fill="#beafac" d="m156.4 158.8-17.5-7-1.2-9.4z"/><path fill="#4c5760" d="M58 32.2 39.3-10l15.2-8.2z"/><path fill="#b4bac4" d="m107.2 90.8-1.1 20 8.2-7z"/><path fill="#352d31" d="m163.5 134.2-1.2-3.5-2.3 3.5z"/><path fill="#0c2336" d="m147 102.5-2.3 2.4h3.5z"/><path fill="#aba5a8" d="m162.3 133 17.6-7 11.7 5.8z"/><path fill="#d7d0d1" d="m249 150.6-15.2-20 21 15.3z"/><path fill="#e0e4e8" d="m201 85-3.5 21-4.7-14z"/><path fill="#7c8d98" d="M76.8 103.7 72 71 52 46.3z"/><path fill="#e3e3e5" d="m272.5 107.2-20-19.9 9.4 16.4z"/><path fill="#a59691" d="m161.1 67.4 3.5 7h-21z"/><path fill="#96a8b5" d="M100.2 213.9 94.3 174l-34-34z"/><path fill="#6d707c" d="m155.3 103.7-14-2.3 8.1-2.4z"/><path fill="#fff" d="M243.2 69.7 222 72.1l49.2 21z"/><path fill="#2d1e27" d="m174 89.6-3.5-12.8V85z"/><path fill="#768a98" d="m130.7 38 2.3-22.2 17.6-17.6z"/><path fill="#6c7982" d="M100.2 140 65 62.7 98 99z"/><path fill="#a79da2" d="M124.8 101.4 122.5 79l7-1.2z"/><path fill="#93a7b4" d="m137.7 31 10.5-22.2-5.8 36.3z"/><path fill="#768892" d="M-18.2 31 39.3 7.7 11-18.2z"/><path fill="#899aa5" d="m3 41.6 22.2-21-5.9 77.3z"/><path fill="#baccd8" d="m257.2 72-14-11.6 10.5 16.4z"/><path fill="#33201f" d="m167 112 7-3.6-4.7 5.9z"/><path fill="#d0c6c0" d="M217.4 103.7 227.9 85l9.4 18.7z"/><path fill="#d7dde5" d="m106 89.6-3.5 1.2 2.4 11.7z"/><path fill="#717f8d" d="M170.5 79.1h9.4v4.7z"/><path fill="#fcfcfc" d="m176.4 37 9.3-22.4 8.2 31.7z"/><path fill="#95a6b2" d="m93.2 25.2 14-8.2 23.5 56.2z"/><path fill="#7e8e9b" d="m37 128.3-16.5-18.7 20 44.5z"/><path fill="#71808a" d="m96.7 155.3 28.1-14-27-30.6z"/><path fill="#9f939b" d="m153 39.3-6-11.8 1.2 27z"/><path fill="#cadde9" d="m265.4 47.5-32.8 21 85.6-12.8z"/><path fill="#eceaf5" d="m165.8 33.4-9.4-4.7 13 2.4z"/><path fill="#aa9890" d="m142.4 135.4 11.7 3.5-9.4 11.7z"/><path fill="#9b847b" d="M153 83.8 138.8 79h10.5z"/><path fill="#6b5c63" d="m135.4 153 48 19.9-50.4 41z"/><path fill="#747b74" d="m144.7 56.8 4.7 1.2-4.7-9.4z"/><path fill="#b4c3d0" d="m172.9 7.6 9.3 9.4 11.7 2.3z"/><path fill="#beb3b5" d="m153 157.6 7-4.7-15.3-1.1z"/><path fill="#79777c" d="m183.4 53.3-5.9-5.8 1.2 5.8z"/><path fill="#a6999a" d="m254.9 106-3.5 6 15.2-1.3z"/><path fill="#bcb9b3" d="m129.5 79.1 9.4-24.6L156.4 65z"/><path fill="#a0a9b4" d="m90.8 90.8 9.4-15.2 2.3 14z"/><path fill="#d2c7cc" d="m177.5 41.6-8.2-12.9-2.3 16.4z"/><path fill="#816173" d="m100.2 80.3 5.9-1.2 1.1 8.2z"/><path fill="#9a8f93" d="m251.4 150.6-7 9.4h5.8z"/><path fill="#70636b" d="m238.5 156.4 10.5 41-44.5-3.5z"/><path fill="#d8e9eb" d="m167 20.5 3.5-5.9L174 24z"/><path fill="#c3bbbe" d="m168.2 82.6-10.6-10.5 4.7 11.7z"/><path fill="#72838c" d="m83.8 6.4 9.4-18.7-5.9 39.8z"/><path fill="#c7d0d7" d="m242 26.4 12.9 14L285.4-11z"/><path fill="#92aab7" d="m203.3 34.6 7-29.3-17.5 29.3z"/><path fill="#76575a" d="m120.1 87.3-5.8 5.9 5.8 3.5z"/><path fill="#c4c8d7" d="m158.8 28.7-7-17.6-7 15.3z"/><path fill="#c3bfc1" d="m128.3 121.3-18.7-18.8 25.8-2.3z"/><path fill="#907a79" d="m208 122.5-11.7 5.8 11.7-11.7z"/><path fill="#695b60" d="m219.7 147 10.6 31.7-37.5 7z"/><path fill="#8a9eb0" d="m199.8 14.6-10.5 6 8.2-38.8z"/><path fill="#cec7d1" d="m167 121.3 4.7 7 7-9.4z"/><path fill="#c1b5ac" d="m223.2 131.8-5.8-1.1-1.2 14z"/><path fill="#2b1a1f" d="m155.3 100.2-4.7-1.2 5.8 5.9z"/><path fill="#97b1c8" d="m145.9 11.1 4.7-3.5 1.2-10.5z"/><path fill="#816a6a" d="m150.6 92 7 3.5-2.3-3.5z"/><path fill="#b3a4a1" d="m133 110.7 12.9 10.6-16.4-3.5z"/><path fill="#80919b" d="m3 54.5-4.8-34L28.7 1.8z"/><path fill="#696269" d="m89.6 161.1 16.5 3.5-10.6 7z"/><path fill="#887a73" d="m143.6 92 2.3-1.2-4.7-3.5z"/><path fill="#6e7980" d="M101.4 58 69.7 21.7l10.6 41z"/><path fill="#cabcb6" d="m226.8 124.8 31.6 17.6-39.8-9.4z"/><path fill="#a59189" d="m222 108.4-8.1 20-1.2-23.5z"/><path fill="#ccc8c8" d="m128.3 130.7 25.8 2.3-18.7-12.9z"/><path fill="#90a3b0" d="m74.4 212.7-38.7-82 55.1 58.6z"/><path fill="#7e7278" d="m134.2 160-3.5-13-14.1 18.8z"/><path fill="#cad7e0" d="m313.5 90.8-39.9-17.6 13 14.1z"/><path fill="#dfe9f1" d="m257.2 73.2 29.3 28.2 29.3-4.7z"/><path fill="#bcafaa" d="m199.8 115.4-1.2-8.2 20-9.3z"/><path fill="#cbcccd" d="M191.6 83.8 208 68.6l2.4 35.1z"/><path fill="#8b7f8b" d="m260.7 114.3 8.2 9.3 31.7-15.2z"/><path fill="#766a71" d="m104.9 213.9-7-39.9 29.2 38.7z"/><path fill="#614b4f" d="m172.9 72 8.1-1 4.6 4.7z"/><path fill="#8a8a94" d="m110.7 150.6 16.4 1.2-31.6 9.3z"/><path fill="#615761" d="m264.3 153 5.8-14.1-12.9-15.3z"/><path fill="#766b75" d="m251.4 213.9 46.8-56.3-56.2 1.2z"/><path fill="#6f8290" d="m17 213.9 34-2.4-44.6-109z"/><path fill="#8b737a" d="m99 79.1 28.1-14-10.5 11.7z"/><path fill="#6f636e" d="m242 172.9 55-17.6-23.4-29.3z"/><path fill="#7b717c" d="m318.2 115.4-20 41-29.3-36.3z"/><path fill="#ae9498" d="m109.6 82.6 4.7-8.2v5.9z"/><path fill="#b4b1b6" d="m155.3 130.7 7-1.2-8.2-8.2z"/><path fill="#5c676f" d="m45.1 21.7 15.3-8.2L65 41.6z"/><path fill="#2c1319" d="m140 107.2 2.4 1.2-2.4-5.9z"/><path fill="#beb7b9" d="m138.9 65 37.5 7-2.4-11.6z"/><path fill="#180b09" d="m163.5 143.6 1.1-8.2L167 147z"/><path fill="#ab9fa4" d="m167 74.4 4.7 17.6-14 9.4z"/><path fill="#867875" d="m165.8 110.7-5.8 3.6 4.6-15.3z"/><path fill="#fbfcfc" d="m178.7 20.5 14 1.2-10.5 11.7z"/><path fill="#836c68" d="m167 130.7 9.4 9.3-10.6-4.6z"/><path fill="#af5e69" d="m165.8 51 3.5-3.5h-5.8z"/><path fill="#eaf1f7" d="m276 44 41-3.6-3.5 15.3z"/><path fill="#bda6af" d="m168.2 45.1-8.2 9.4-10.6-22.3z"/><path fill="#352628" d="m150.6 107.2-2.4 2.4 4.7-2.4z"/><path fill="#5b4a53" d="m101.4 69.7-4.7 4.7 1.2-3.5z"/><path fill="#7f919a" d="m31 1.8 24.7 39.8L26.4 17z"/><path fill="#c6bdb7" d="m131.8 143.6 5.9-9.4 4.7 11.7z"/><path fill="#3a4c5d" d="m171.7 76.8 8.2 3.5v-3.5z"/><path fill="#7b7371" d="m182.2 106-7-15.2-2.3 5.9z"/><path fill="#857a7b" d="m107.2 62.7 13 3.5-10.6 2.4z"/><path fill="#dcdfe2" d="m318.2 27.5-42.2-14-13 29.3z"/><path fill="#8e9fab" d="M136.5 55.7 87.3 10l31.6 14z"/><path fill="#69606b" d="m252.5 121.3 10.6-3.5-5.9 18.7z"/><path fill="#6c7b84" d="m32.2-13.5 106.7 27-51.6-31.7z"/><path fill="#fffefe" d="m280.7 104.9-9.4 2.3-1.2-18.7z"/><path fill="#5b4647" d="M165.8 163.5v-17.6l-8.2 17.6z"/><path fill="#a4b5c1" d="m212.7 12.3 22.3 20h-20z"/><path fill="#301523" d="m171.7 85 4.7 2.3-2.4 3.5z"/><path fill="#907c76" d="m164.6 96.7-10.5-23.5-5.9 3.6z"/><path fill="#b6a1a7" d="m181 87.3-5.8 2.3 1.2-2.3z"/><path fill="#bab7b3" d="m175.2 100.2-8.2 2.3 1.2 7z"/><path fill="#b2aca6" d="M128.3 61.5h14l11.8 14z"/><path fill="#77686c" d="m190.4 183.4 13-16.4-30.5 12.9z"/><path fill="#bcb3b4" d="m141.2 97.9-4.7-41-10.5 44.5z"/><path fill="#7b727f" d="m274.8 164.6-2.3 23.5 45.7-34z"/><path fill="#6c575c" d="m123.6 78-7-1.2 11.7-3.6z"/><path fill="#cabcb7" d="m223.2 92 15.3-3.5-7-3.5z"/><path fill="#6f828b" d="M94.3 81.4 82.6 56.8v37.5z"/><path fill="#958e8e" d="m156.4 145.9-4.6-2.3 3.5 9.3z"/><path fill="#7c7886" d="m148.2 107.2 3.6-3.5v-3.5z"/><path fill="#af9caa" d="m155.3 21.7 4.7-1.2 5.8 5.9z"/><path fill="#896771" d="m174 110.7 4.7 1.2-2.3-9.4z"/><path fill="#97a2ab" d="m128.3 150.6-1.2-14-11.7-14.1z"/><path fill="#a3b4be" d="m54.5 112 32.8 55-20-77.4z"/><path fill="#bcaaa4" d="m167 112-9.4 8.1v-4.7z"/><path fill="#8d8283" d="m164.6 70.9 3.6 7-10.6-7z"/><path fill="#5c6e7a" d="m13.5 102.5-31.7-46.8L-4 47.5z"/><path fill="#beb6b5" d="m168.2 83.8-18.8-30.5 3.5 16.4z"/><path fill="#d8cbc9" d="m154.1 110.7-7 2.4h8.2z"/><path fill="#b7b0b1" d="M179.9 68.6 197.5 79l1.1-15.2z"/><path fill="#687a86" d="M20.5 110.7 37 160l-55-79.7z"/><path fill="#1e0a0a" d="m167 140 1.2 10.6 2.3-8.2z"/><path fill="#596267" d="m74.4-18.2 9.4 47-30.5-47z"/><path fill="#887d89" d="m287.7 171.7 4.7 16.4 19.9-4.7z"/><path fill="#a49491" d="M204.5 109.6v21l-5.9-21z"/><path fill="#a19799" d="m123.6 102.5-14-9.3 8.2 11.7z"/><path fill="#a69b9c" d="m188 131.8-8.1 5.9-17.6-8.2z"/><path fill="#788c98" d="m134.2 19.3-7 20 10.5 9.3z"/><path fill="#71818d" d="M-14.6 37 7.6 63.8-10 5.3z"/><path fill="#beb7bf" d="m165.8 60.4 2.4 17.5 14-25.8z"/><path fill="#c3c2c6" d="M151.8 60.4 161 52l28.2 16.5z"/><path fill="#94a5b1" d="M25.2 103.7 14.6 67.4l30.5-31.7z"/><path fill="#cad2d9" d="m108.4 94.3-7 20 1.1-28.2z"/><path fill="#a2b1c6" d="M157.6 8.8 147.1 11l18.7 4.7z"/><path fill="#776b68" d="m154.1 140 5.9 7v-10.5z"/><path fill="#81706a" d="M155.3 134.2H147l1.1 4.7z"/><path fill="#614f54" d="m187 165.8-22.4-2.3 30.5-16.4z"/><path fill="#b9b2b5" d="M251.4 114.3V97.9l5.8 8.2z"/><path fill="#9caeb9" d="M51 60.4 34.6 126l29.3 30.4z"/><path fill="#788e9d" d="m148.2 13.5-12.8 9.4 12.8-30.5z"/><path fill="#f2f8f9" d="m188 47.5-3.4-9.4 8.2-9.4z"/><path fill="#ada5a9" d="m94.3 61.5 8.2 1.2-4.6-2.3z"/><path fill="#8b9eaa" d="m107.2 61.5-10.5-5.8V33.4z"/><path fill="#d5cdcd" d="m240.8 124.8 11.7 12.9-4.6-14z"/><path fill="#7f909c" d="m37 153 18.7 30.4-8.2-30.5z"/><path fill="#e2ddda" d="m231.4 87.3-8.2-7 20 3.5z"/><path fill="#70636a" d="m119 178.7 11.7 14 9.3-37.4z"/><path fill="#bbafa9" d="m150.6 137.7-4.7 4.7 3.5 7z"/><path fill="#87959e" d="m90.8 89.6 3.5 6L99 86z"/><path fill="#757887" d="m175.2 80.3 1.2 5.8-4.7-8.2z"/><path fill="#5c4945" d="m168.2 135.4-2.4 2.3 7 1.2z"/><path fill="#fefcfc" d="M174 20.5V37l23.5 11.7z"/><path fill="#654851" d="m137.7 108.4 2.3-1.2-1.1-5.8z"/><path fill="#c5d8e1" d="m262 59.2 7-13 15.2 16.5z"/><path fill="#6c5858" d="m211.5 119 1.2 4.6-11.7 3.5z"/><path fill="#756972" d="m252.5 150.6 29.3 51.5-35.1-2.3z"/><path fill="#b6aeba" d="m96.7 78 11.7-4.8L93.2 85z"/><path fill="#9f838b" d="m115.4 73.2-4.7 4.7 11.8 3.5z"/><path fill="#d6dbe1" d="m293.6 100.2-3.6-3.5-14 10.5z"/><path fill="#bba8a6" d="m235 158.8-16.4-12.9 11.7 4.7z"/><path fill="#96a7b5" d="m204.5 21.7 8.2-22.3-24.6 29.3z"/><path fill="#938883" d="m130.7 134.2-4.7 8.2h5.8z"/><path fill="#effdff" d="M205.7 32.2v3.5l2.3-7z"/><path fill="#8fa0ab" d="m114.3 107.2-9.4 2.4-4.7 5.8z"/><path fill="#777d79" d="m130.7 65-7-1.1 7 3.5z"/><path fill="#8c9fa9" d="m35.7 21.7 13 16.4L10 67.4z"/><path fill="#806976" d="m103.7 86.1 8.2-12.9-9.4 4.7z"/><path fill="#a7b5bc" d="m144.7 51-22.2 9.4 9.3 4.6z"/><path fill="#66464e" d="m181 117.8 2.4-1.2-2.3 4.7z"/><path fill="#f1faff" d="m222 32.2 6 5.9-16.5 1.2z"/><path fill="#392a2c" d="m204.5 130.7 7-7 3.5 17.5z"/><path fill="#61727a" d="m18.2-18.2 31.6 39.9-16.4-39.9z"/><path fill="#7f6269" d="M178.7 69.7V71l2.4-1.2z"/><path fill="#4f3d3c" d="m197.5 130.7 7 9.3-3.5-11.7z"/><path fill="#cdc6ce" d="m171.7 34.6 7 10.5-21-5.8z"/><path fill="#d0cad0" d="M183.4 102.5v11.8l15.2-2.4z"/><path fill="#bfb0ad" d="M150.6 96.7V86l-5.9-1.1z"/><path fill="#8ca6b5" d="m195.1 24 3.5-8.2 4.7 22.3z"/><path fill="#efebf4" d="m170.5 37-7-6 1.1 6z"/><path fill="#a3a7ab" d="m145.9 37 3.5 17.5-8.2-8.2z"/><path fill="#eaf0f6" d="m215 72 2.4 20 4.7-10.6z"/><path fill="#5d5f59" d="m130.7 67.4-3.6-1.2 3.6 3.5z"/><path fill="#b8a9ae" d="m184.6 128.3 7-15.2-21 20z"/><path fill="#fdfeff" d="m264.3 80.3-8.2 7 23.4 15.2z"/><path fill="#73858f" d="m-18.2 10 29.3-28.2L37 3z"/><path fill="#cdb5b7" d="m135.4 116.6 3.5-8.2v8.2z"/><path fill="#b8abb1" d="M182.2 116.6v-4.7l9.4 2.4z"/><path fill="#c3bcbe" d="m181 100.2 6 8.2 2.3-4.7z"/><path fill="#d7dbdd" d="m218.6 93.2-14.1-32.8 2.3 30.4z"/><path fill="#6a5455" d="m122.5 69.7 3.5 2.4-4.7 4.7z"/><path fill="#b29e97" d="m226.8 126 4.6-5.9-22.2-9.4z"/><path fill="#ab959a" d="m161.1 49.8-5.8 5.9 4.7-11.8z"/><path fill="#7e838f" d="m178.7 75.6 2.4 7v-5.8z"/><path fill="#5e5753" d="M213.9 143.6v-14.1l2.3 8.2z"/><path fill="#533e3f" d="m178.7 142.4 8.2-7-2.3 16.4z"/><path fill="#cec3c9" d="m196.3 120.1-10.6 1.2-8.2 8.2z"/><path fill="#54626c" d="M141.2-18.2 130.7 4.1 80.3-18.2z"/><path fill="#9d918d" d="m154.1 141.2 4.7-8.2-7 5.9z"/><path fill="#c8cbd1" d="M318.2 24 242-15.8l42.2 2.3z"/><path fill="#837a73" d="m172.9 108.4-13 1.2 1.2 3.5z"/><path fill="#697882" d="m52.1 213.9 3.6-23.5-22.3-31.6z"/><path fill="#8d848a" d="m142.4 101.4-4.7 10.5 7-8.2z"/><path fill="#776970" d="m155.3 177.5-2.4-10.5 11.7 11.7z"/><path fill="#9e949a" d="m175.2 99-2.3-8.2-6-1.2z"/><path fill="#967077" d="M188 116.6h-3.4l-1.2 5.9z"/><path fill="#f9fcfd" d="m174 33.4 5.9-21.1v21.1z"/><path fill="#95837c" d="M212.7 126v-7l8.2 5.8z"/><path fill="#9aabb4" d="m79.1 169.3 14-15.2-12.8-31.6z"/><path fill="#a08e88" d="m148.2 138.9-1.1-4.7-5.9 11.7z"/><path fill="#bbb0b9" d="m171.7 34.6-3.5 5.8-9.4 2.4z"/><path fill="#1f1320" d="m175.2 87.3 1.2-1.2-5.9-2.3z"/><path fill="#d4d6d6" d="m209.2 73.2-7-18.7-18.8-7z"/><path fill="#d3bcbe" d="m141.2 115.4 3.5-2.3-11.7-8.2z"/><path fill="#728288" d="m124.8 149.4-1.2-9.4-11.7-5.8z"/><path fill="#c6b6b5" d="m178.7 89.6 4.7 2.4v-7z"/><path fill="#6f7f88" d="m51 25.2-10.6-5.9L58 42.8z"/><path fill="#5d4f50" d="m137.7 155.3-1.2-3.5 4.7 5.8z"/><path fill="#bcada9" d="m135.4 137.7 12.8-3.5-2.3-5.9z"/><path fill="#bab9bf" d="m104.9 88.5 17.6 22.2-11.8-7z"/><path fill="#8a8280" d="m174 97.9-10.5 2.3 1.1-3.5z"/><path fill="#e8f0f5" d="m284.2 85-22.3-3.6 4.7-7z"/><path fill="#c3b6ac" d="m205.7 104.9 14-1.2 4.7-14z"/><path fill="#23121d" d="m177.5 108.4 2.4 2.3-1.2 4.7z"/><path fill="#75555b" d="M154.1 49.8h2.3l-3.5 3.5z"/><path fill="#b5a59e" d="M140 93.2 136.5 79l5.9-1.2z"/><path fill="#8e8791" d="m299.4 101.4 9.4 11.7-31.7-1.2z"/><path fill="#697d8b" d="M142.4 11.1 126 19.3l21-37.5z"/><path fill="#807985" d="m258.4 147 2.3-7-3.5-5.8z"/><path fill="#e3dcdb" d="m236.1 92 2.4 3.5h-14z"/><path fill="#d9e5ed" d="m185.7 14.6 4.7 7-12.9-7z"/><path fill="#c0b8b8" d="m243.2 147-8.2 9.4-8.2 1.2z"/><path fill="#98898a" d="m181 138.9 7-8.2-14 5.8z"/><path fill="#a5928b" d="m138.9 116.6 12.9 2.3 7-4.6z"/><path fill="#b0a0a1" d="m153 78 14 15.2-5.9-11.8z"/><path fill="#d9e4e4" d="m197.5 35.7-5.9 7-2.3-2.3z"/><path fill="#685d62" d="m104.9 177.5-3.5 13 35.1-23.5z"/><path fill="#d4d7dc" d="m253.7 147-9.4-2.3 4.7 4.7z"/><path fill="#c5bfc0" d="m197.5 70.9 1.1 14-10.5 8.3z"/><path fill="#676f78" d="M61.5 42.8 78 81.4 68.6 5.3z"/><path fill="#79696a" d="m182.2 95.5-7-3.5v7z"/><path fill="#7c92a2" d="M148.2-18.2h29.3l1.2 30.5z"/><path fill="#b7a6a0" d="m230.3 142.4 10.5 14-15.2-7z"/><path fill="#8b9ca6" d="m90.8 156.4-2.3-18.7 9.4 21z"/><path fill="#c3c4c9" d="m197.5 60.4-24.6 8.2L188 47.5z"/><path fill="#715c53" d="m151.8 78-2.4-1.2 3.5 5.8z"/><path fill="#d0d0de" d="m156.4 14.6 1.2 8.3-8.2-1.2z"/><path fill="#643541" d="m119 86.1-4.7-4.7-2.4 5.9z"/><path fill="#90868e" d="m150.6 42.8-4.7-8.2 3.5-2.4z"/><path fill="#748189" d="m107.2 143.6 4.7-28.2-10.5 4.7z"/><path fill="#a5999d" d="m177.5 89.6 9.4 11.8 3.5-2.4z"/><path fill="#b1a098" d="M215 134.2v-10.6l4.7 4.7z"/><path fill="#574a57" d="m254.9 124.8 3.5-4.7v8.2z"/><path fill="#9baebc" d="m108.4 58-8.2-22.3L135.4 58z"/><path fill="#75656b" d="M220.9 185.7 182.2 214l-34-20z"/><path fill="#6a5c58" d="m160 135.4-3.6 1.1 8.2 1.2z"/><path fill="#b7aeb2" d="m116.6 109.6 8.2-11.7 10.6-3.6z"/><path fill="#c7c5c5" d="M215 100.2h-16.4V92z"/><path fill="#90838c" d="M114.3 67.4 99 61.5l-7 7z"/><path fill="#9a919c" d="m259.6 113 28.1-7-11.7 9.4z"/><path fill="#cab6b1" d="m190.4 72-4.7 3.6v7z"/><path fill="#797579" d="m119 163.5-4.7 2.3 1.1 10.6z"/><path fill="#d4d5d6" d="M269 109.6 249 92l10.6 1.2z"/><path fill="#857b86" d="m270.1 117.8 43.4-16.4-22.3 17.5z"/><path fill="#6e5e63" d="m165.8 151.8 22.3 39.8h-12.9z"/><path fill="#a2969a" d="m168.2 90.8-4.7 7-10.6 2.4z"/><path fill="#899da5" d="M89.6 130.7 78 120l-1.1-16.4z"/><path fill="#233448" d="m176.4 80.3-1.2-3.5h3.5z"/><path fill="#97a9b6" d="m38 131.8 51.6 34-29.2 3.5z"/><path fill="#fffefe" d="m209.2 44 22.2 22.2-45.7-24.6z"/><path fill="#9d958e" d="m122.5 63.9 5.8 1.1 1.2 7z"/></g></svg>